<?xml version="1.0" encoding="utf-8"?>
<!-- Generator: Adobe Illustrator 22.0.1, SVG Export Plug-In . SVG Version: 6.00 Build 0)  -->
<svg version="1.1" id="Layer_1" xmlns="http://www.w3.org/2000/svg" xmlns:xlink="http://www.w3.org/1999/xlink" x="0px" y="0px"
	 viewBox="0 0 1000 1000" style="enable-background:new 0 0 1000 1000;" xml:space="preserve">
<style type="text/css">
	.st0{fill:#FFFFFF;}
</style>
<title>Artboard 1</title>
<rect id="_Path_" y="0" width="1000" height="1000"/>
<path id="_Path_2" class="st0" d="M187,257.8h-55.6v-9.5c0-15.8,5.6-21.7,14.3-30.9l21.7-22.9c17.6-18.7,21.4-30.6,21.4-50.9v-19.6
	c0-28.8-14-42.5-44.3-42.5c-29.7,0-44.9,15.8-44.9,44v24.4h30.9v-25.3c0-12.2,5.9-15.8,13.1-15.8c6.5,0,12.2,2.7,12.2,15.2v16.7
	c0,16.7-1.5,23.2-12.5,34.8l-19,20.2C105.8,215.2,99,228.3,99,248.2v37.2h88V257.8z"/>
<g>
	<path id="_Path_3" class="st0" d="M413.1,849.7v14.1c0,0.1,0,0.2,0,0.3c0,0.1,0,0.2,0,0.3c0.1,3.5,3,6.3,6.5,6.3c0,0,0.1,0,0.1,0
		h0.2h165c0,0,0.1,0,0.1,0h0.2c3.6-0.1,6.5-3,6.5-6.6l0,0c0,0,0,0,0,0v-16c92.9-30.4,162.4-105.7,177.7-197.4c0-0.2,0.1-0.4,0.1-0.5
		c0.1-0.3,0.1-0.6,0.1-0.9c0-3.7-3-6.7-6.7-6.7c0,0,0,0,0,0H237.1c-3.7,0-6.7,3-6.7,6.6c0,0,0,0,0,0l0.4,3
		C246.9,744.8,318.3,820.5,413.1,849.7"/>
	<path id="_Path_4" class="st0" d="M591.5,418.2c-2.2,3.1-53,76.2,1.1,135.3c24.8,27.1,22.7,51.1,15.6,67.2h34.7
		c7-23.9,4.1-53.8-24-84.6c-39.9-43.6,0.5-102.5,1.1-103.4c4.8-6.7,2.2-15.4-5.6-19.4S596.3,411.5,591.5,418.2"/>
	<path id="_Path_5" class="st0" d="M503.6,620.8h34.7c7-23.9,4.1-53.8-24.1-84.6c-39.9-43.6,0.5-102.5,1.1-103.4
		c4.7-6.7,2.2-15.3-5.6-19.4s-18.1-1.9-22.8,4.8c-2.2,3.1-53,76.2,1.1,135.3C512.8,580.7,510.7,604.6,503.6,620.8"/>
	<path id="_Path_6" class="st0" d="M382.3,418.2c-2.2,3.1-53,76.2,1.1,135.3c24.8,27.2,22.7,51.1,15.6,67.2h34.7
		c7-23.9,4.1-53.8-24.1-84.6c-39.9-43.6,0.5-102.5,1.1-103.4c4.7-6.7,2.2-15.4-5.7-19.4S387.1,411.5,382.3,418.2"/>
</g>
<g id="_Group_">
	<path id="_Compound_Path_" class="st0" d="M299.1,154.3h20.9v11.2h-35.2v-11.2L306.3,95h-19.4V83.8h33.9V95L299.1,154.3z"/>
	<path id="_Compound_Path_2" class="st0" d="M329.2,83.8H362V95h-19.1v23.4h13.6v11.1h-13.6v24.8H362v11.2h-32.8V83.8z"/>
	<path id="_Compound_Path_3" class="st0" d="M384.3,128v37.5h-13.8V83.8h20c13.9,0,18.9,6.9,18.9,18.3v10.5c0,8.8-3.1,14-11,15.8
		l13.1,37.1h-14.4L384.3,128z M384.3,95v25.4h4.6c4.7,0,6.8-2.4,6.8-6.8v-12.1c0-4.5-2-6.6-6.8-6.6H384.3z"/>
	<path id="_Compound_Path_4" class="st0" d="M418.2,144.4v-39.5c0-12.8,6.3-22.1,20.7-22.1s20.9,9.3,20.9,22.1v39.5
		c0,12.7-6.3,22.1-20.9,22.1S418.2,157.1,418.2,144.4z M446,146.6v-43.9c0-4.9-2.2-8.4-7.1-8.4s-7,3.5-7,8.4v43.9
		c0,4.9,2.2,8.4,7,8.4S446,151.5,446,146.6z"/>
</g>
<g id="_Group_2">
	<path id="_Compound_Path_5" class="st0" d="M312.5,249.2h-13.3v36h-13.7v-81.7h13.7v34.6h13.3v-34.6h13.9v81.7h-13.9V249.2z"/>
	<path id="_Compound_Path_6" class="st0" d="M375.3,203.5v61.8c0,12.7-5.4,20.9-19.4,20.9c-14.5,0-20.5-8.2-20.5-20.9v-61.8h13.7
		v63.2c0,4.8,1.9,8.1,6.8,8.1s6.8-3.3,6.8-8.1v-63.2H375.3z"/>
	<path id="_Compound_Path_7" class="st0" d="M395.9,233.9v51.4h-11.6v-81.7h13.5l14.8,46.9v-46.9h11.5v81.7h-12.1L395.9,233.9z"/>
	<path id="_Compound_Path_8" class="st0" d="M453.9,241.6h19.5v43.6h-9.9v-8.9c-1.8,6.1-5.7,9.9-13.1,9.9
		c-11.8,0-17.2-9.4-17.2-22.1v-39.5c0-12.8,6.1-22.1,20.6-22.1c15.2,0,19.7,8.4,19.7,20.5v7.2h-12.5V222c0-5.1-1.9-7.9-6.9-7.9
		s-7.1,3.5-7.1,8.4v43.9c0,4.9,2,8.4,6.8,8.4c4.5,0,6.8-2.5,6.8-7.8v-14.5h-6.5L453.9,241.6z"/>
	<path id="_Compound_Path_9" class="st0" d="M482.5,203.5h32.8v11.2h-19.1v23.4h13.6v11.1h-13.6v24.8h19.1v11.2h-32.8L482.5,203.5z"
		/>
	<path id="_Compound_Path_10" class="st0" d="M537.6,247.8v37.5h-13.8v-81.7h20c13.9,0,18.9,6.9,18.9,18.3v10.5
		c0,8.8-3.1,14-11,15.8l13.1,37.1h-14.4L537.6,247.8z M537.6,214.8v25.4h4.6c4.7,0,6.8-2.4,6.8-6.8v-12.1c0-4.5-2-6.6-6.8-6.6
		L537.6,214.8z"/>
</g>
</svg>
