<?xml version="1.0" encoding="utf-8"?>
<!-- Generator: Adobe Illustrator 22.0.1, SVG Export Plug-In . SVG Version: 6.00 Build 0)  -->
<svg version="1.1" id="Layer_1" xmlns="http://www.w3.org/2000/svg" xmlns:xlink="http://www.w3.org/1999/xlink" x="0px" y="0px"
	 viewBox="0 0 101.5 175.2" style="enable-background:new 0 0 101.5 175.2;" xml:space="preserve">
<style type="text/css">
	.st0{fill:#FFFFFF;}
	.st1{fill:#4C9F38;}
	.st2{enable-background:new    ;}
	.st3{fill:none;}
</style>
<title>TARGET 1 B</title>
<g id="WHITE_BG">
	<g>
		<rect y="0" class="st0" width="101.5" height="175.1"/>
	</g>
</g>
<g id="TARGETS">
	<g>
		<g>
			<path class="st1" d="M6.8,130.2v-4.4h1v4.3c-0.1,0.7,0.4,1.2,1,1.3c0.1,0,0.2,0,0.3,0c0.7,0.1,1.3-0.4,1.4-1c0-0.1,0-0.2,0-0.3
				v-4.3h1v4.4c0.1,1.1-0.8,2.1-1.9,2.1c-0.1,0-0.3,0-0.4,0c-1.1,0.2-2.1-0.5-2.4-1.5C6.8,130.6,6.8,130.4,6.8,130.2z"/>
		</g>
		<g>
			<path class="st1" d="M16.1,132.2l-2.8-4.5v4.5h-0.9v-6.4h0.9l2.8,4.5v-4.5h1v6.4L16.1,132.2L16.1,132.2z"/>
		</g>
		<g>
			<path class="st1" d="M17.9,132.2v-6.4h1v6.4H17.9z"/>
		</g>
		<g>
			<path class="st1" d="M24.5,125.8l-2,6.4h-1l-2-6.4h1L22,131l1.5-5.2H24.5z"/>
		</g>
		<g>
			<path class="st1" d="M28.6,129.3H26v2h2.9v0.9H25v-6.4h3.9v0.9H26v1.8h2.6V129.3z"/>
		</g>
		<g>
			<path class="st1" d="M30.7,132.2h-1v-6.4h2.1c1.6,0,2.2,0.7,2.2,1.9c0.1,0.7-0.3,1.4-1,1.7l1.3,2.8h-1.1l-1.2-2.6h-1.3V132.2z
				 M30.7,128.7H32c0.9,0,1-0.5,1-1s-0.1-1-1-1h-1.3V128.7z"/>
		</g>
		<g>
			<path class="st1" d="M39,130.3c0,1.2-0.7,2-2.4,2c-0.6,0-1.3-0.1-1.9-0.4V131c0.6,0.3,1.2,0.4,1.8,0.4c1.2,0,1.5-0.5,1.5-1.1
				s-0.3-0.9-1.2-1c-1.5-0.2-2.2-0.6-2.2-1.8c0-0.9,0.5-1.8,2.3-1.8c0.6,0,1.2,0.1,1.7,0.3v1c-0.5-0.2-1.1-0.3-1.7-0.3
				c-1,0-1.3,0.4-1.3,1c0,0.7,0.4,0.8,1.2,0.9C38.2,128.7,39,129,39,130.3z"/>
		</g>
		<g>
			<path class="st1" d="M42.7,130.6h-2l-0.5,1.6h-1l2-6.4h1l2,6.4h-1L42.7,130.6z M41.7,127l-0.8,2.8h1.6L41.7,127z"/>
		</g>
		<g>
			<path class="st1" d="M45.7,131.3h2.8v0.9h-3.7v-6.4h1L45.7,131.3z"/>
		</g>
		<g>
			<path class="st1" d="M53.7,130.6h-2l-0.5,1.6h-1l2-6.4h1l2,6.4h-1L53.7,130.6z M52.7,127l-0.8,2.8h1.6L52.7,127z"/>
		</g>
		<g>
			<path class="st1" d="M58,125.7c0.5,0,1,0.1,1.5,0.3v0.9c-0.4-0.2-0.9-0.3-1.4-0.3c-1.2,0-1.7,0.8-1.7,2.4c0,1.6,0.5,2.4,1.7,2.4
				c0.5,0,1-0.1,1.4-0.3v0.9c-0.5,0.2-1,0.3-1.5,0.3c-1.9,0-2.6-1.2-2.6-3.3S56.1,125.7,58,125.7z"/>
		</g>
		<g>
			<path class="st1" d="M62.7,125.7c0.5,0,1,0.1,1.5,0.3v0.9c-0.5-0.2-0.9-0.3-1.4-0.3c-1.2,0-1.7,0.8-1.7,2.4
				c0,1.6,0.5,2.4,1.7,2.4c0.5,0,1-0.1,1.4-0.3v0.9c-0.5,0.2-1,0.3-1.5,0.3c-1.9,0-2.6-1.2-2.6-3.3S60.9,125.7,62.7,125.7z"/>
		</g>
		<g>
			<path class="st1" d="M68.7,129.3H66v2h3v0.9h-3.9v-6.4H69v0.9h-2.9v1.8h2.7L68.7,129.3L68.7,129.3z"/>
		</g>
		<g>
			<path class="st1" d="M73.9,130.3c0,1.2-0.7,2-2.4,2c-0.6,0-1.3-0.1-1.9-0.4V131c0.6,0.3,1.2,0.4,1.8,0.4c1.2,0,1.5-0.5,1.5-1.1
				s-0.3-0.9-1.2-1c-1.6-0.2-2.2-0.6-2.2-1.8c0-0.9,0.5-1.8,2.3-1.8c0.6,0,1.2,0.1,1.7,0.3v1c-0.5-0.2-1.1-0.3-1.7-0.3
				c-1,0-1.3,0.4-1.3,1c0,0.7,0.4,0.8,1.2,0.9C73.1,128.7,73.9,129,73.9,130.3z"/>
		</g>
		<g>
			<path class="st1" d="M78.7,130.3c0,1.2-0.7,2-2.4,2c-0.6,0-1.3-0.1-1.9-0.4V131c0.6,0.3,1.2,0.4,1.8,0.4c1.2,0,1.5-0.5,1.5-1.1
				s-0.3-0.9-1.2-1c-1.6-0.2-2.2-0.6-2.2-1.8c0-0.9,0.5-1.8,2.3-1.8c0.6,0,1.2,0.1,1.7,0.3v1c-0.5-0.2-1.1-0.3-1.7-0.3
				c-1,0-1.3,0.4-1.3,1c0,0.7,0.4,0.8,1.2,0.9C77.9,128.7,78.7,129,78.7,130.3z"/>
		</g>
		<g>
			<path class="st1" d="M9.2,135.7v5.5h-1v-5.5H6.6v-0.9h4.3v0.9H9.2z"/>
		</g>
		<g>
			<path class="st1" d="M11.1,138c0-1.8,0.4-3.3,2.5-3.3s2.5,1.5,2.5,3.3s-0.4,3.3-2.4,3.3S11.1,139.8,11.1,138z M12.1,138
				c0,1.5,0.3,2.4,1.5,2.4s1.5-0.9,1.5-2.4s-0.3-2.4-1.5-2.4S12,136.5,12.1,138L12.1,138z"/>
		</g>
		<g>
			<path class="st1" d="M22.4,139.3c0,1.2-0.7,2-2.4,2c-0.6,0-1.3-0.1-1.9-0.4V140c0.6,0.3,1.2,0.4,1.8,0.4c1.1,0,1.5-0.5,1.5-1.1
				s-0.3-0.9-1.2-1c-1.5-0.2-2.1-0.6-2.1-1.8c0-0.9,0.5-1.8,2.3-1.8c0.6,0,1.2,0.1,1.7,0.3v1c-0.5-0.2-1.1-0.3-1.7-0.3
				c-1,0-1.3,0.4-1.3,1s0.4,0.8,1.2,0.9C21.6,137.7,22.4,138,22.4,139.3z"/>
		</g>
		<g>
			<path class="st1" d="M26.8,138.3h-2.7v2H27v0.9h-3.9v-6.4H27v0.9h-2.9v1.8h2.6L26.8,138.3z"/>
		</g>
		<g>
			<path class="st1" d="M31.3,134.8h1.1l-1.9,3.1l1.9,3.3h-1.1l-1.4-2.6l-1.4,2.6h-1.2l1.9-3.3l-1.9-3.1h1.1l1.4,2.5L31.3,134.8z"/>
		</g>
		<g>
			<path class="st1" d="M33.1,139.2v-4.4H34v4.3c0,0.8,0.6,1.4,1.4,1.4s1.4-0.6,1.4-1.4v-4.3h1v4.4c0.1,1.1-0.8,2.1-1.9,2.1
				c-0.1,0-0.3,0-0.4,0c-1.1,0.2-2.1-0.5-2.3-1.6C33.1,139.5,33,139.4,33.1,139.2z"/>
		</g>
		<g>
			<path class="st1" d="M41.5,139.6h-2l-0.5,1.6h-1l2-6.4h1l2,6.4h-1L41.5,139.6z M40.5,136l-0.8,2.8h1.6L40.5,136z"/>
		</g>
		<g>
			<path class="st1" d="M44.6,140.3h2.8v0.9h-3.7v-6.4h1L44.6,140.3z"/>
		</g>
		<g>
			<path class="st1" d="M52.6,139.6h-2l-0.5,1.6h-1l2-6.4h1l2,6.4h-1L52.6,139.6z M51.6,136l-0.8,2.8h1.6L51.6,136z"/>
		</g>
		<g>
			<path class="st1" d="M58.3,141.2l-2.8-4.5v4.5h-0.9v-6.4h0.9l2.8,4.5v-4.5h1v6.4H58.3z"/>
		</g>
		<g>
			<path class="st1" d="M60.1,141.2v-6.4H62c2.1,0,2.7,1.4,2.7,3.2s-0.6,3.2-2.7,3.2H60.1z M61.1,140.3h1c1.3,0,1.7-0.9,1.7-2.3
				s-0.4-2.3-1.7-2.3h-1V140.3z"/>
		</g>
		<g>
			<path class="st1" d="M7.8,150.2h-1v-6.4H9c1.6,0,2.2,0.7,2.2,1.9c0.1,0.7-0.3,1.4-1,1.7l1.3,2.8h-1.2l-1.1-2.6H7.8V150.2z
				 M7.8,146.7h1.3c0.9,0,1-0.5,1-1s-0.1-1-1-1H7.8V146.7z"/>
		</g>
		<g>
			<path class="st1" d="M15.7,147.3H13v2h3v0.9h-3.9v-6.4H16v0.9h-3v1.8h2.7V147.3z"/>
		</g>
		<g>
			<path class="st1" d="M17.8,150.2h-1v-6.4h2c1.6,0,2.2,0.9,2.2,2s-0.6,2-2.2,2h-1.1L17.8,150.2z M17.8,146.9h1.1
				c0.6,0.1,1.2-0.4,1.2-1s-0.4-1.2-1-1.2c-0.1,0-0.1,0-0.2,0h-1.1V146.9z"/>
		</g>
		<g>
			<path class="st1" d="M22.6,150.2h-1v-6.4h2.1c1.6,0,2.2,0.7,2.2,1.9c0.1,0.7-0.3,1.4-1,1.7l1.3,2.8h-1.1l-1.1-2.6h-1.4V150.2z
				 M22.6,146.7h1.3c0.9,0,1-0.5,1-1s-0.1-1-1-1h-1.3V146.7z"/>
		</g>
		<g>
			<path class="st1" d="M26.7,147c0-1.8,0.4-3.3,2.5-3.3s2.5,1.5,2.5,3.3s-0.4,3.3-2.5,3.3S26.7,148.8,26.7,147z M27.7,147
				c0,1.5,0.3,2.4,1.5,2.4s1.5-0.9,1.5-2.4s-0.3-2.4-1.5-2.4S27.6,145.5,27.7,147L27.7,147z"/>
		</g>
		<g>
			<path class="st1" d="M32.3,150.2v-6.4h1.9c2.1,0,2.7,1.4,2.7,3.2s-0.6,3.2-2.7,3.2H32.3z M33.3,149.3h1c1.3,0,1.7-0.9,1.7-2.3
				s-0.4-2.3-1.7-2.3h-1V149.3z"/>
		</g>
		<g>
			<path class="st1" d="M37.6,148.2v-4.4h1v4.3c0,0.8,0.6,1.4,1.4,1.4s1.4-0.6,1.4-1.4v-4.3h1v4.4c0,1.1-0.8,2.1-2,2.1
				c-0.1,0-0.2,0-0.3,0c-1.1,0.2-2.1-0.5-2.3-1.6C37.6,148.5,37.6,148.4,37.6,148.2z"/>
		</g>
		<g>
			<path class="st1" d="M45.5,143.7c0.5,0,1,0.1,1.5,0.3v0.9c-0.4-0.2-0.9-0.3-1.4-0.3c-1.2,0-1.7,0.8-1.7,2.4s0.5,2.4,1.7,2.4
				c0.5,0,1-0.1,1.4-0.3v0.9c-0.5,0.2-1,0.3-1.5,0.3c-1.9,0-2.6-1.2-2.6-3.3S43.7,143.7,45.5,143.7z"/>
		</g>
		<g>
			<path class="st1" d="M50.2,144.7v5.5h-1v-5.5h-1.7v-0.9h4.3v0.9H50.2z"/>
		</g>
		<g>
			<path class="st1" d="M52.5,150.2v-6.4h1v6.4H52.5z"/>
		</g>
		<g>
			<path class="st1" d="M59.3,143.8l-2,6.4h-1l-2-6.4h1l1.5,5.2l1.5-5.2H59.3z"/>
		</g>
		<g>
			<path class="st1" d="M63.4,147.3h-2.6v2h2.9v0.9h-3.9v-6.4h3.9v0.9h-2.9v1.8h2.7L63.4,147.3z"/>
		</g>
		<g>
			<path class="st1" d="M68.4,143.7c0.5,0,1,0.1,1.5,0.3v0.9c-0.4-0.2-0.9-0.3-1.4-0.3c-1.2,0-1.7,0.8-1.7,2.4s0.5,2.4,1.7,2.4
				c0.5,0,1-0.1,1.4-0.3v0.9c-0.5,0.2-1,0.3-1.5,0.3c-1.9,0-2.6-1.2-2.6-3.3S66.6,143.7,68.4,143.7z"/>
		</g>
		<g>
			<path class="st1" d="M73.8,148.6h-2l-0.4,1.6h-1l2-6.4h1l2,6.4h-1L73.8,148.6z M72.8,145l-0.8,2.8h1.6L72.8,145z"/>
		</g>
		<g>
			<path class="st1" d="M76.8,150.2h-1v-6.4h2.1c1.7,0,2.2,0.7,2.2,1.9c0.1,0.7-0.3,1.4-1,1.7l1.3,2.8h-1.1l-1.2-2.6h-1.3V150.2z
				 M76.8,146.7H78c0.9,0,1-0.5,1-1s-0.1-1-1-1h-1.2V146.7z"/>
		</g>
		<g>
			<path class="st1" d="M84.6,147.3H82v2h2.9v0.9H81v-6.4h3.9v0.9H82v1.8h2.7L84.6,147.3z"/>
		</g>
		<g>
			<path class="st1" d="M86.6,149.3l-0.7,2h-0.7l0.2-2H86.6z"/>
		</g>
		<g>
			<path class="st1" d="M10.4,156.4H7.8v2.8h-1v-6.4h3.9v0.9H7.8v1.8h2.6V156.4z"/>
		</g>
		<g>
			<path class="st1" d="M14,157.6h-2l-0.4,1.6h-1l2-6.4h1l2,6.4h-1L14,157.6z M13,154l-0.8,2.8h1.6L13,154z"/>
		</g>
		<g>
			<path class="st1" d="M19.4,158.3h-0.9l-1.6-3.9v4.8H16v-6.4h1.2l1.8,4.3l1.7-4.3h1.2v6.4H21v-4.8L19.4,158.3z"/>
		</g>
		<g>
			<path class="st1" d="M23,159.2v-6.4h1v6.4H23z"/>
		</g>
		<g>
			<path class="st1" d="M26,158.3h2.8v0.9H25v-6.4h1V158.3z"/>
		</g>
		<g>
			<path class="st1" d="M30.9,156.6v2.6h-1v-2.6l-2.2-3.8h1.1l1.6,3l1.6-3h1L30.9,156.6z"/>
		</g>
		<g>
			<path class="st1" d="M35.8,159.2h-1v-6.4h2c1.6,0,2.2,0.9,2.2,2s-0.6,2-2.2,2h-1V159.2z M35.8,155.9H37c0.6,0.1,1.2-0.4,1.2-1
				s-0.4-1.2-1-1.2c-0.1,0-0.1,0-0.2,0h-1.2V155.9z"/>
		</g>
		<g>
			<path class="st1" d="M40.7,158.3h2.8v0.9h-3.7v-6.4h1L40.7,158.3L40.7,158.3z"/>
		</g>
		<g>
			<path class="st1" d="M47.2,157.6h-2l-0.5,1.6h-1l2-6.4h1l2,6.4h-1L47.2,157.6z M46.2,154l-0.8,2.8H47L46.2,154z"/>
		</g>
		<g>
			<path class="st1" d="M52.9,159.2l-2.8-4.5v4.5h-0.9v-6.4H50l2.8,4.5v-4.5h0.9v6.4H52.9z"/>
		</g>
		<g>
			<path class="st1" d="M58.4,159.2l-2.8-4.5v4.5h-0.9v-6.4h0.9l2.8,4.5v-4.5h0.9v6.4H58.4z"/>
		</g>
		<g>
			<path class="st1" d="M60.3,159.2v-6.4h1v6.4H60.3z"/>
		</g>
		<g>
			<path class="st1" d="M66.1,159.2l-2.8-4.5v4.5h-0.9v-6.4h0.9l2.8,4.5v-4.5h1v6.4H66.1z"/>
		</g>
		<g>
			<path class="st1" d="M67.8,156c0-2,0.7-3.3,2.6-3.3c0.6,0,1.3,0.1,1.8,0.3v1c-0.5-0.2-1.1-0.4-1.7-0.4c-1.3,0-1.8,0.9-1.8,2.4
				s0.5,2.4,1.8,2.4c0.3,0,0.6,0,0.9-0.1v-1.7h-1.1v-0.9h2.1v3.2c-0.6,0.3-1.3,0.4-2,0.4C68.5,159.3,67.8,158,67.8,156z"/>
		</g>
		<g>
			<path class="st1" d="M77.9,157.6h-2l-0.4,1.6h-1l2-6.4h1l2,6.4h-1L77.9,157.6z M76.9,154l-0.8,2.8h1.6L76.9,154z"/>
		</g>
		<g>
			<path class="st1" d="M83.6,159.2l-2.8-4.5v4.5h-0.9v-6.4h0.9l2.8,4.5v-4.5h0.9v6.4H83.6z"/>
		</g>
		<g>
			<path class="st1" d="M85.4,159.2v-6.4h1.9c2.1,0,2.7,1.4,2.7,3.2s-0.6,3.2-2.7,3.2H85.4z M86.4,158.3h1c1.3,0,1.7-0.9,1.7-2.3
				s-0.4-2.3-1.7-2.3h-1V158.3z"/>
		</g>
		<g>
			<path class="st1" d="M10.5,165.3H7.8v2h2.9v0.9H6.9v-6.4h3.9v0.9h-3v1.8h2.6v0.8H10.5z"/>
		</g>
		<g>
			<path class="st1" d="M11.6,168.2v-6.4h1.9c2.1,0,2.7,1.4,2.7,3.2s-0.6,3.2-2.7,3.2H11.6z M12.6,167.3h1c1.3,0,1.7-0.9,1.7-2.3
				s-0.4-2.3-1.7-2.3h-1V167.3z"/>
		</g>
		<g>
			<path class="st1" d="M16.9,166.2v-4.4h1v4.3c-0.1,0.7,0.4,1.2,1,1.3c0.1,0,0.2,0,0.3,0c0.6,0.1,1.3-0.3,1.4-1c0-0.1,0-0.2,0-0.3
				v-4.3h1v4.4c0.1,1.1-0.8,2.1-1.9,2.1c-0.1,0-0.3,0-0.4,0c-1.1,0.2-2.1-0.6-2.3-1.7C16.9,166.5,16.9,166.3,16.9,166.2z"/>
		</g>
		<g>
			<path class="st1" d="M25,161.7c0.5,0,1,0.1,1.5,0.3v0.9c-0.5-0.2-0.9-0.3-1.4-0.3c-1.2,0-1.7,0.8-1.7,2.4s0.5,2.4,1.7,2.4
				c0.5,0,1-0.1,1.4-0.3v0.9c-0.5,0.2-1,0.3-1.5,0.3c-1.9,0-2.6-1.2-2.6-3.3S23.1,161.7,25,161.7z"/>
		</g>
		<g>
			<path class="st1" d="M30.3,166.6h-2l-0.5,1.6h-1l2-6.4h1l2,6.4h-1L30.3,166.6z M29.3,163l-0.8,2.8h1.6L29.3,163z"/>
		</g>
		<g>
			<path class="st1" d="M34,162.7v5.5h-1v-5.5h-1.6v-0.9h4.3v0.9H34z"/>
		</g>
		<g>
			<path class="st1" d="M36.4,168.2v-6.4h1v6.4H36.4z"/>
		</g>
		<g>
			<path class="st1" d="M38.4,165c0-1.8,0.4-3.3,2.5-3.3s2.5,1.5,2.5,3.3s-0.4,3.3-2.5,3.3S38.4,166.8,38.4,165z M39.4,165
				c0,1.5,0.3,2.4,1.5,2.4s1.5-0.9,1.5-2.4s-0.3-2.4-1.5-2.4S39.4,163.5,39.4,165L39.4,165z"/>
		</g>
		<g>
			<path class="st1" d="M47.7,168.2l-2.7-4.5v4.5h-1v-6.4h0.9l2.8,4.5v-4.5h0.9v6.4H47.7z"/>
		</g>
	</g>
	<g>
		<rect x="3.3" y="24" class="st1" width="94.8" height="94.8"/>
	</g>
	<g>
		<path class="st1" d="M98.2,20.7H3.3V3.3h94.8L98.2,20.7L98.2,20.7z M4.3,19.7h92.8V4.3H4.3V19.7z"/>
	</g>
	<g class="st2">
		<path class="st1" d="M6.7,6.9h4.5v1.4H9.9v8.8H8.1V8.3H6.7V6.9z"/>
	</g>
	<g class="st2">
		<path class="st1" d="M11.2,17.1l1.9-10.2H15l2,10.2h-1.8l-0.3-1.9h-1.8l-0.3,1.9H11.2z M13.3,13.9h1.4L14,9.8l0,0L13.3,13.9z"/>
	</g>
	<g class="st2">
		<path class="st1" d="M19.6,12.4v4.7h-1.7V6.9h2.5c1.7,0,2.4,0.9,2.4,2.3v1.3c0,1.1-0.4,1.7-1.4,2l1.6,4.6h-1.8L19.6,12.4z
			 M19.6,8.3v3.2h0.6c0.6,0,0.8-0.3,0.8-0.8V9.2c0-0.6-0.3-0.8-0.8-0.8L19.6,8.3L19.6,8.3z"/>
	</g>
	<g class="st2">
		<path class="st1" d="M26.4,11.7h2.4v5.4h-1.2V16c-0.2,0.8-0.7,1.2-1.6,1.2c-1.5,0-2.1-1.2-2.1-2.7V9.6c0-1.6,0.8-2.7,2.6-2.7
			c1.9,0,2.4,1.1,2.4,2.6v0.9h-1.6v-1c0-0.6-0.2-1-0.9-1c-0.6,0-0.9,0.4-0.9,1v5.5c0,0.6,0.3,1,0.8,1c0.6,0,0.8-0.3,0.8-1V13h-0.8
			v-1.3H26.4z"/>
	</g>
	<g class="st2">
		<path class="st1" d="M30.2,6.9h4.1v1.4h-2.4v2.9h1.7v1.4h-1.7v3.1h2.4v1.4h-4.1C30.2,17.1,30.2,6.9,30.2,6.9z"/>
	</g>
	<g class="st2">
		<path class="st1" d="M35.1,6.9h4.5v1.4h-1.4v8.8h-1.7V8.3h-1.4C35.1,8.3,35.1,6.9,35.1,6.9z"/>
	</g>
	<g class="st2">
		<path class="st1" d="M84.4,9.2V10c0,0.9-0.5,1.4-1.2,1.7c0.9,0.2,1.3,0.8,1.3,1.7v1.5c0,1.4-0.8,2.3-2.5,2.3s-2.4-1-2.4-2.5v-1.3
			h1.6v1.5c0,0.6,0.2,1,0.8,1c0.5,0,0.8-0.4,0.8-0.9v-1.7c0-0.5-0.2-0.8-0.8-0.8h-0.7v-1.3h0.6c0.6,0,0.9-0.3,0.9-0.8V9.2
			c0-0.6-0.2-0.9-0.7-0.9s-0.7,0.4-0.7,1v1h-1.6V9.4c0-1.5,0.6-2.6,2.4-2.6C83.7,6.8,84.4,7.7,84.4,9.2z"/>
	</g>
	<g class="st2">
		<path class="st1" d="M87.3,10.8c0.7,0,1.2,0.6,1.2,1.2c0,0.7-0.6,1.2-1.2,1.2c-0.7,0-1.2-0.6-1.2-1.2
			C86.1,11.4,86.6,10.8,87.3,10.8z"/>
	</g>
	<g class="st2">
		<path class="st1" d="M90.1,6.9h4.3v1.6l-2.2,8.6h-1.7l2.3-8.8h-2.6V6.9H90.1z"/>
	</g>
	<g>
		<path class="st1" d="M98.2,171.9h-95v-49.7h95V171.9z M4.2,170.9h93v-47.7h-93C4.2,123.2,4.2,170.9,4.2,170.9z"/>
	</g>
	<g>
		<g>
			<path class="st3" d="M24.2,88.2c0.6,0.4,1.2,0.7,1.9,0.9l0.3-0.9c-0.6-0.2-1.1-0.5-1.6-0.8L24.2,88.2z"/>
		</g>
		<g>
			<path class="st3" d="M28.1,88.4v1c0.7,0,1.4-0.1,2.1-0.3l-0.3-1C29.3,88.3,28.7,88.4,28.1,88.4z"/>
		</g>
		<g>
			<path class="st3" d="M31.5,87.3l0.6,0.8c0.6-0.4,1.1-0.9,1.5-1.5L32.8,86C32.4,86.6,32,87,31.5,87.3z"/>
		</g>
		<g>
			<path class="st3" d="M24.1,77.3c-0.6,0.4-1.1,0.9-1.5,1.5l0.8,0.6c0.4-0.5,0.8-0.9,1.3-1.3L24.1,77.3z"/>
		</g>
		<g>
			<path class="st3" d="M33.6,84.5l1,0.3c0.2-0.7,0.3-1.4,0.3-2.1h-0.3h-0.7C33.9,83.3,33.8,83.9,33.6,84.5z"/>
		</g>
		<g>
			<path class="st3" d="M28.1,77v-1c-0.7,0-1.4,0.1-2.1,0.3l0.3,1C26.9,77.1,27.5,77,28.1,77z"/>
		</g>
		<g>
			<path class="st3" d="M32,77.2c-0.6-0.4-1.2-0.7-1.9-0.9l-0.3,1c0.6,0.2,1.1,0.4,1.6,0.8L32,77.2z"/>
		</g>
		<g>
			<path class="st3" d="M21.7,84.8c0.2,0.7,0.6,1.3,1,1.9l0.8-0.6c-0.4-0.5-0.6-1-0.8-1.6L21.7,84.8z"/>
		</g>
		<g>
			<path class="st3" d="M22.6,81l-1-0.3c-0.2,0.6-0.3,1.3-0.3,2l0,0h1C22.4,82.1,22.5,81.5,22.6,81z"/>
		</g>
		<g>
			<path class="st3" d="M31.8,82.1c0-1.2-0.6-2.3-1.9-2.3c-0.9,0-1.5,1.1-1.9,1.5c-0.4-0.4-0.8-1.5-1.8-1.5c-1.1,0-2,1-1.9,2.1
				c0,0.1,0,0.1,0,0.2c0,0.6,0.2,1.2,0.6,1.6l3.1,3.1l3.1-3.1l0,0C31.6,83.3,31.8,82.7,31.8,82.1z"/>
		</g>
		<g>
			<path class="st3" d="M32.7,79.3c0.4,0.5,0.6,1,0.8,1.6l0.9-0.3c-0.2-0.7-0.6-1.3-1-1.9L32.7,79.3z"/>
		</g>
		<g>
			<path class="st3" d="M73.6,74.8c-0.5,0.1-0.9,0.5-0.8,1c0,0.4,0.4,0.8,0.8,0.8c0.5,0.1,1-0.3,1-0.8c0.1-0.5-0.3-1-0.8-1
				C73.7,74.8,73.6,74.8,73.6,74.8z"/>
		</g>
		<g>
			<path class="st3" d="M73.6,67.8c-0.5,0-0.9,0.4-0.9,0.9s0.4,0.9,0.9,0.9s0.9-0.4,0.9-0.9S74.1,67.8,73.6,67.8L73.6,67.8z"/>
		</g>
		<g>
			<path class="st3" d="M73.6,82.1c-0.5,0-0.9,0.4-0.9,0.9s0.4,0.9,0.9,0.9s0.9-0.4,0.9-0.9S74.1,82.1,73.6,82.1L73.6,82.1z"/>
		</g>
		<g>
			<path class="st3" d="M62.5,37c-0.1-0.2-3-4.3-9.1-2.5c0,0-0.2,0.1-0.6,0.2c-0.5,0.2-0.9,0.4-1.3,0.7c-1.4,0.8-2.4,2.3-2.6,3.9
				c-0.4,3.2,2.1,5,3,5.6c0.2,0.1,0.3,0.2,0.3,0.2c0.3,0.2,0.7,0.3,1,0.4c1.5,0.5,3.1,0.6,4.6,0.2l0.3-0.1l2.4,1.5v-2.3l0.3-0.2
				c1.3-0.9,2.3-2.3,2.7-3.8C63.7,39.5,63.4,38.1,62.5,37z"/>
		</g>
		<g>
			<path class="st3" d="M47.4,39.2c0.2-1.9,1.3-3.6,2.8-4.7c-0.7-0.4-1.4-0.8-2.2-1c-1.2-0.4-2.4-0.6-3.7-0.6
				c-2.9-0.1-5.7,1.3-7.5,3.6c-1,1.3-1.5,3.1-1.2,4.7c0.5,1.9,1.7,3.6,3.3,4.7l0.3,0.2l-0.1,3l3.1-1.9l0.3,0.1
				c2.7,1,6.4-0.5,6.9-0.7c0.4-0.2,0.8-0.5,1.2-0.8C48.5,44.4,47.2,41.9,47.4,39.2z"/>
		</g>
		<g>
			<path class="st0" d="M61.9,45.5c1.5-1.1,2.5-2.7,3-4.5c0.3-1.7-0.1-3.5-1.2-4.9c0,0-3.6-5.2-10.7-3c-0.5,0.2-1,0.3-1.4,0.6
				c-1-0.7-2-1.2-3.1-1.5c-8.5-2.6-12.8,3.5-12.8,3.6c-1.3,1.7-1.8,3.8-1.4,5.8c0.5,2.2,1.8,4,3.6,5.4l-0.1,4.8l4.8-2.9
				c3.2,1,7-0.6,7.7-0.9c0.7-0.4,1.3-0.8,1.9-1.3c1.9,0.8,3.9,1,5.9,0.6l4,2.5L61.9,45.5z M49.5,46.6c-0.5,0.2-4.1,1.7-6.9,0.7
				l-0.3-0.1l-3.1,1.9l0.1-3L39,46c-1.6-1.1-2.8-2.8-3.3-4.7c-0.3-1.7,0.2-3.4,1.2-4.7c1.8-2.3,4.5-3.7,7.5-3.6
				c1.3,0,2.5,0.2,3.7,0.6c0.8,0.2,1.5,0.6,2.2,1c-1.6,1.1-2.6,2.8-2.8,4.7c-0.2,2.7,1,5.3,3.3,6.7C50.4,46.2,50,46.4,49.5,46.6z
				 M60.8,44.6l-0.3,0.2v2.3l-2.4-1.5l-0.3,0.1c-1.5,0.4-3.1,0.3-4.6-0.2c-0.3-0.1-0.7-0.2-1-0.4c0,0-0.2-0.1-0.3-0.2
				c-0.9-0.6-3.4-2.4-3-5.6c0.2-1.6,1.2-3.1,2.6-3.9c0.4-0.3,0.9-0.5,1.3-0.7c0.4-0.2,0.6-0.2,0.6-0.2c6.1-1.8,9,2.3,9.1,2.5
				c0.8,1.1,1.2,2.5,1,3.8C63.1,42.3,62.2,43.7,60.8,44.6L60.8,44.6z"/>
		</g>
		<g>
			<path class="st0" d="M28.1,57.1c3,0,5.5-2.5,5.5-5.5s-2.5-5.5-5.5-5.5s-5.5,2.5-5.5,5.5C22.6,54.7,25,57.1,28.1,57.1L28.1,57.1z"
				/>
		</g>
		<g>
			<path class="st0" d="M39.1,64.1c0,0-1.6-4.3-5.2-4.3H22.2c-3.6,0-5.2,4.3-5.2,4.3L12.4,79c0,0-0.8,2.7,1.5,3.4s3-2,3-2L20.6,68
				c0,0,0.2-1,0.9-0.7s0.5,1.2,0.5,1.2l-6.4,23.2h6v16.7c0.1,1.6,1.5,2.8,3,2.7c1.5-0.1,2.6-1.2,2.7-2.7V91.7h1.6v16.7
				c0.1,1.6,1.5,2.8,3,2.7c1.5-0.1,2.6-1.2,2.7-2.7V91.7h6l-6.4-23.3c0,0-0.3-1,0.4-1.2s0.9,0.7,0.9,0.7l3.7,12.4c0,0,0.7,2.7,3,2
				s1.5-3.4,1.5-3.4L39.1,64.1z M30.1,76.3c0.7,0.2,1.3,0.5,1.9,0.9L31.4,78c-0.5-0.4-1-0.6-1.6-0.8L30.1,76.3z M28,76v1
				c-0.6,0-1.2,0.1-1.8,0.3l-0.3-1C26.6,76.1,27.3,76,28,76z M21.4,82.8L21.4,82.8c0-0.7,0.1-1.4,0.3-2l1,0.3
				c-0.2,0.6-0.3,1.1-0.3,1.7H21.4z M22.7,86.8c-0.4-0.6-0.8-1.2-1-1.9l1-0.3c0.2,0.6,0.5,1.1,0.8,1.6L22.7,86.8z M23.4,79.4
				l-0.8-0.6c0.4-0.6,0.9-1.1,1.5-1.5l0.6,0.8C24.2,78.5,23.8,78.9,23.4,79.4L23.4,79.4z M26,89.2c-0.7-0.2-1.3-0.5-1.9-0.9l0.6-0.8
				c0.5,0.3,1,0.6,1.6,0.8L26,89.2z M28.1,89.5v-1c0.6,0,1.2-0.1,1.8-0.3l0.3,1C29.5,89.4,28.8,89.5,28.1,89.5L28.1,89.5z
				 M28.1,86.9L25,83.7c-0.4-0.4-0.7-1-0.6-1.6C24.2,81,25,80,26.1,79.8c0.1,0,0.1,0,0.2,0c1,0,1.5,1.1,1.8,1.5
				c0.4-0.4,1-1.5,1.9-1.5c1.2,0,1.9,1,1.9,2.3c0,0.6-0.2,1.2-0.6,1.6l0,0L28.1,86.9z M32.1,88.2l-0.6-0.8c0.5-0.4,0.9-0.8,1.3-1.3
				l0.8,0.6C33.1,87.3,32.6,87.8,32.1,88.2L32.1,88.2z M34.9,82.8c0,0.7-0.1,1.4-0.3,2.1l-1-0.3c0.2-0.6,0.3-1.2,0.3-1.8h0.7
				L34.9,82.8z M34.5,80.6L33.6,81c-0.2-0.6-0.5-1.1-0.8-1.6l0.8-0.6C33.9,79.3,34.3,79.9,34.5,80.6L34.5,80.6z"/>
		</g>
		<g>
			<path class="st0" d="M73.6,47c-3,0-5.4,2.4-5.5,5.4s2.4,5.4,5.4,5.5c3,0,5.4-2.4,5.5-5.4C79,49.5,76.6,47,73.6,47L73.6,47z"/>
		</g>
		<g>
			<path class="st0" d="M89.1,79.5l-4.5-14.7c0,0-1.6-4.2-5.2-4.2H67.8c-3.6,0-5.2,4.2-5.2,4.2l-4.5,14.7c0,0-0.8,2.7,1.5,3.4
				s3-2,3-2l3.6-12.2c0,0,0.2-1,0.9-0.7s0.4,1.2,0.4,1.2l-6.3,23h5.9v16.5c0.1,1.6,1.4,2.8,3,2.7c1.4-0.1,2.6-1.2,2.7-2.7V92.1h1.6
				v16.5c0.1,1.6,1.4,2.8,3,2.7c1.4-0.1,2.6-1.2,2.7-2.7V92.1H86l-6.3-23c0,0-0.3-1,0.4-1.2s0.9,0.7,0.9,0.7l3.6,12.3
				c0,0,0.7,2.6,3,2S89.1,79.5,89.1,79.5z M73.6,83.9c-0.5,0-0.9-0.4-0.9-0.9s0.4-0.9,0.9-0.9s0.9,0.4,0.9,0.9S74.1,83.9,73.6,83.9
				L73.6,83.9z M73.6,76.7c-0.5,0-0.9-0.4-0.9-0.9s0.4-0.9,0.9-0.9s0.9,0.4,0.9,0.9S74.1,76.7,73.6,76.7L73.6,76.7z M73.6,69.7
				c-0.5,0-0.9-0.4-0.9-0.9s0.4-0.9,0.9-0.9s0.9,0.4,0.9,0.9C74.5,69.3,74.1,69.7,73.6,69.7L73.6,69.7z"/>
		</g>
		<g>
			<path class="st0" d="M73.7,46c1.8,0,3.5,0.7,4.7,2l2.3-2.5c-1.9-1.9-4.4-2.9-7-3c-2.8,0.1-5.4,1.2-7.3,3.2l2.7,2.1
				C70.4,46.7,72,46,73.7,46z"/>
		</g>
	</g>
</g>
</svg>
