<?xml version="1.0" encoding="utf-8"?>
<!-- Generator: Adobe Illustrator 22.0.1, SVG Export Plug-In . SVG Version: 6.00 Build 0)  -->
<svg version="1.1" id="Layer_1" xmlns="http://www.w3.org/2000/svg" xmlns:xlink="http://www.w3.org/1999/xlink" x="0px" y="0px"
	 viewBox="0 0 101.5 148.1" style="enable-background:new 0 0 101.5 148.1;" xml:space="preserve">
<style type="text/css">
	.st0{fill:#FFFFFF;}
	.st1{fill:#4C9F38;}
	.st2{enable-background:new    ;}
	.st3{opacity:0.5;enable-background:new    ;}
</style>
<title>TARGET 1.5</title>
<g id="WHITE_BG">
	<g>
		<rect y="0" class="st0" width="101.5" height="148.1"/>
	</g>
</g>
<g id="TARGETS">
	<g>
		<g>
			<path class="st1" d="M7.8,132.2h-1v-6.4h2.1c1.6,0,2.2,1,2.2,2c0,1-0.6,2-2.2,2H7.8V132.2z M7.8,129H9c0.6,0.1,1.2-0.4,1.2-1
				c0.1-0.6-0.4-1.2-1-1.2c-0.1,0-0.1,0-0.2,0H7.8V129z"/>
		</g>
		<g>
			<path class="st1" d="M12.7,132.2h-1v-6.4h2.1c1.6,0,2.2,0.7,2.2,1.9c0.1,0.7-0.3,1.4-1,1.7l1.3,2.8h-1.1l-1.2-2.6h-1.3V132.2z
				 M12.7,128.7H14c0.9,0,1-0.5,1-1s-0.1-1-1-1h-1.3V128.7z"/>
		</g>
		<g>
			<path class="st1" d="M20.6,129.3h-2.6v2h2.9v0.9H17v-6.4h3.9v0.9h-3v1.8h2.6V129.3z"/>
		</g>
		<g>
			<path class="st1" d="M26.3,125.8l-2,6.4h-1l-2-6.4h1l1.5,5.2l1.5-5.2L26.3,125.8z"/>
		</g>
		<g>
			<path class="st1" d="M30.4,129.3h-2.6v2h2.9v0.9h-3.9v-6.4h3.9v0.9h-2.9v1.8h2.6V129.3z"/>
		</g>
		<g>
			<path class="st1" d="M35.2,132.2l-2.8-4.5v4.5h-0.9v-6.4h0.9l2.8,4.5v-4.5H36v6.4H35.2z"/>
		</g>
		<g>
			<path class="st1" d="M39.2,126.7v5.5h-1v-5.5h-1.6v-0.9h4.3v0.9L39.2,126.7z"/>
		</g>
		<g>
			<path class="st1" d="M45.8,130.7h-2l-0.5,1.6h-1l2-6.4h1l2,6.4h-1L45.8,130.7z M44.8,127l-0.8,2.8h1.6L44.8,127z"/>
		</g>
		<g>
			<path class="st1" d="M51.5,132.2l-2.8-4.5v4.5h-0.9v-6.4h0.9l2.8,4.5v-4.5h1v6.4H51.5z"/>
		</g>
		<g>
			<path class="st1" d="M53.4,132.2v-6.4h1.9c2.1,0,2.7,1.4,2.7,3.2s-0.6,3.2-2.7,3.2L53.4,132.2z M54.4,131.3h1
				c1.3,0,1.7-0.9,1.7-2.3s-0.4-2.3-1.7-2.3h-1V131.3z"/>
		</g>
		<g>
			<path class="st1" d="M62.2,126.7v5.5h-1v-5.5h-1.7v-0.9h4.3v0.9L62.2,126.7z"/>
		</g>
		<g>
			<path class="st1" d="M65.5,132.2h-1v-6.4h2.1c1.7,0,2.2,0.7,2.2,1.9c0.1,0.7-0.3,1.4-1,1.7l1.3,2.8H68l-1.2-2.6h-1.3V132.2z
				 M65.5,128.7h1.2c0.9,0,1-0.5,1-1s-0.1-1-1-1h-1.2V128.7z"/>
		</g>
		<g>
			<path class="st1" d="M73.3,129.3h-2.7v2h2.9v0.9h-3.9v-6.4h3.9v0.9h-2.9v1.8h2.7V129.3z"/>
		</g>
		<g>
			<path class="st1" d="M77.6,130.7h-2l-0.4,1.6H74l2-6.4h1l2,6.4h-1L77.6,130.7z M76.6,127l-0.8,2.8h1.6L76.6,127z"/>
		</g>
		<g>
			<path class="st1" d="M81.1,126.7v5.5h-1v-5.5h-1.6v-0.9h4.3v0.9L81.1,126.7z"/>
		</g>
		<g>
			<path class="st1" d="M11.1,139.3c0,1.2-0.7,2-2.4,2c-0.6,0-1.3-0.1-1.9-0.3v-1c0.6,0.3,1.2,0.4,1.8,0.4c1.1,0,1.5-0.5,1.5-1.1
				s-0.3-0.9-1.2-1c-1.6-0.2-2.2-0.6-2.2-1.8c0-0.9,0.5-1.8,2.3-1.8c0.6,0,1.2,0.1,1.7,0.3v1c-0.5-0.2-1.1-0.3-1.7-0.3
				c-1,0-1.3,0.4-1.3,1c0,0.7,0.4,0.8,1.2,0.9C10.3,137.7,11.1,138,11.1,139.3z"/>
		</g>
		<g>
			<path class="st1" d="M11.7,139.2v-4.4h1v4.3c-0.1,0.7,0.4,1.3,1.1,1.3c0.1,0,0.2,0,0.3,0c0.6,0.1,1.3-0.3,1.4-1
				c0-0.1,0-0.2,0-0.3v-4.3h0.9v4.4c0,1.1-0.8,2.1-2,2.1c-0.1,0-0.2,0-0.3,0c-1.1,0.1-2.2-0.7-2.3-1.8
				C11.7,139.4,11.7,139.3,11.7,139.2z"/>
		</g>
		<g>
			<path class="st1" d="M17.2,134.8h2.1c1.5,0,2,0.8,2,1.7c0,0.5-0.3,1-0.8,1.3c0.6,0.2,1.1,0.8,1,1.5c0,1.1-0.5,1.9-2.2,1.9h-2.2
				V134.8z M19.4,135.7h-1.2v1.8h1.2c0.4,0.1,0.9-0.2,0.9-0.7c0-0.1,0-0.1,0-0.2C20.4,136.2,20.2,135.7,19.4,135.7L19.4,135.7z
				 M18.2,140.3h1.3c0.9,0,1.1-0.5,1.1-1s-0.3-1-1.1-1h-1.3V140.3z"/>
		</g>
		<g>
			<path class="st1" d="M26.5,139.3c0,1.2-0.7,2-2.4,2c-0.6,0-1.3-0.1-1.9-0.4V140c0.6,0.3,1.2,0.4,1.8,0.4c1.1,0,1.5-0.5,1.5-1.1
				s-0.3-0.9-1.2-1c-1.5-0.2-2.2-0.6-2.2-1.8c0-0.9,0.5-1.8,2.3-1.8c0.6,0,1.2,0.1,1.7,0.3v1c-0.5-0.2-1.1-0.3-1.7-0.3
				c-1,0-1.3,0.4-1.3,1c0,0.7,0.4,0.8,1.2,0.9C25.7,137.7,26.5,138,26.5,139.3z"/>
		</g>
		<g>
			<path class="st1" d="M29.4,135.7v5.5h-1v-5.5h-1.7v-0.9h4.3v0.9H29.4z"/>
		</g>
		<g>
			<path class="st1" d="M34.1,139.7h-2l-0.5,1.6h-1l2-6.4h1l2,6.4h-1L34.1,139.7z M33.1,136l-0.8,2.8h1.6L33.1,136z"/>
		</g>
		<g>
			<path class="st1" d="M39.8,141.2l-2.8-4.5v4.5h-0.9v-6.4H37l2.8,4.5v-4.5h1v6.4H39.8z"/>
		</g>
		<g>
			<path class="st1" d="M44.2,134.7c0.5,0,1,0.1,1.5,0.3v0.9c-0.5-0.2-0.9-0.3-1.4-0.3c-1.2,0-1.7,0.8-1.7,2.4s0.5,2.4,1.7,2.4
				c0.5,0,1-0.1,1.4-0.3v0.9c-0.5,0.2-1,0.3-1.5,0.3c-1.9,0-2.6-1.2-2.6-3.3S42.3,134.7,44.2,134.7z"/>
		</g>
		<g>
			<path class="st1" d="M50,138.3h-2.6v2h2.9v0.9h-3.9v-6.4h3.9v0.9h-2.9v1.8H50V138.3z"/>
		</g>
		<g>
			<path class="st1" d="M55.7,139.7h-2l-0.5,1.6h-1l2-6.4h1l2,6.4h-1L55.7,139.7z M54.7,136l-0.8,2.8h1.6L54.7,136z"/>
		</g>
		<g>
			<path class="st1" d="M57.7,134.8h2.1c1.6,0,2,0.8,2,1.7c0,0.5-0.3,1-0.8,1.3c0.6,0.2,1.1,0.8,1,1.5c0,1.1-0.5,1.9-2.2,1.9h-2.2
				V134.8z M59.9,135.7h-1.2v1.8h1.2c0.8,0,0.9-0.5,0.9-0.9S60.7,135.7,59.9,135.7L59.9,135.7z M58.7,140.3H60c0.9,0,1.1-0.5,1.1-1
				s-0.3-1-1.1-1h-1.3V140.3z"/>
		</g>
		<g>
			<path class="st1" d="M62.8,139.2v-4.4h1v4.3c0,0.8,0.6,1.4,1.4,1.4c0.7,0,1.4-0.6,1.4-1.4v-4.3h0.9v4.4c-0.1,1.3-1.2,2.2-2.5,2.1
				C63.8,141.2,62.9,140.3,62.8,139.2L62.8,139.2z"/>
		</g>
		<g>
			<path class="st1" d="M72.3,139.3c0,1.2-0.7,2-2.4,2c-0.7,0-1.3-0.1-1.9-0.3v-1c0.6,0.3,1.2,0.4,1.8,0.4c1.2,0,1.5-0.5,1.5-1.1
				s-0.3-0.9-1.2-1c-1.6-0.2-2.2-0.6-2.2-1.8c0-0.9,0.5-1.8,2.3-1.8c0.6,0,1.2,0.1,1.7,0.3v1c-0.5-0.2-1.1-0.3-1.7-0.3
				c-1,0-1.3,0.4-1.3,1c0,0.7,0.4,0.8,1.2,0.9C71.6,137.7,72.3,138,72.3,139.3z"/>
		</g>
		<g>
			<path class="st1" d="M76.7,138.3h-2.7v2H77v0.9h-3.9v-6.4H77v0.9h-2.9v1.8h2.7V138.3z"/>
		</g>
	</g>
	<g>
		<rect x="3.3" y="24" class="st1" width="94.8" height="94.8"/>
	</g>
	<g>
		<path class="st1" d="M98.2,20.7H3.3V3.3h94.8V20.7z M4.3,19.7h92.8V4.3H4.3L4.3,19.7z"/>
	</g>
	<g class="st2">
		<path class="st1" d="M6.7,6.9h4.5v1.4H9.9v8.8H8.1V8.3H6.7V6.9z"/>
	</g>
	<g class="st2">
		<path class="st1" d="M11.2,17.1l1.9-10.2h1.9L17,17.1h-1.8l-0.3-1.9h-1.8l-0.3,1.9H11.2z M13.3,13.9h1.4L14,9.8h0L13.3,13.9z"/>
	</g>
	<g class="st2">
		<path class="st1" d="M19.6,12.5v4.7h-1.7V6.9h2.5c1.7,0,2.4,0.9,2.4,2.3v1.3c0,1.1-0.4,1.7-1.4,2l1.6,4.6h-1.8L19.6,12.5z
			 M19.6,8.3v3.2h0.6c0.6,0,0.8-0.3,0.8-0.8V9.2c0-0.6-0.3-0.8-0.8-0.8H19.6z"/>
	</g>
	<g class="st2">
		<path class="st1" d="M26.4,11.7h2.4v5.4h-1.2V16c-0.2,0.8-0.7,1.2-1.6,1.2c-1.5,0-2.1-1.2-2.1-2.7V9.6c0-1.6,0.8-2.7,2.6-2.7
			c1.9,0,2.4,1.1,2.4,2.6v0.9h-1.6v-1c0-0.6-0.2-1-0.9-1c-0.6,0-0.9,0.4-0.9,1v5.5c0,0.6,0.3,1,0.8,1c0.6,0,0.8-0.3,0.8-1V13h-0.8
			V11.7z"/>
	</g>
	<g class="st2">
		<path class="st1" d="M30.2,6.9h4.1v1.4h-2.4v2.9h1.7v1.4h-1.7v3.1h2.4v1.4h-4.1V6.9z"/>
	</g>
	<g class="st2">
		<path class="st1" d="M35.1,6.9h4.5v1.4h-1.4v8.8h-1.7V8.3h-1.4V6.9z"/>
	</g>
	<g class="st2">
		<path class="st1" d="M83.6,9.2V10c0,0.9-0.5,1.4-1.2,1.7c0.9,0.2,1.3,0.8,1.3,1.7v1.5c0,1.4-0.8,2.3-2.5,2.3c-1.7,0-2.4-1-2.4-2.5
			v-1.3h1.6v1.5c0,0.6,0.2,1,0.8,1c0.5,0,0.8-0.4,0.8-0.9v-1.7c0-0.5-0.2-0.8-0.8-0.8h-0.7v-1.3h0.6c0.6,0,0.9-0.3,0.9-0.8V9.2
			c0-0.6-0.2-0.9-0.7-0.9s-0.7,0.4-0.7,1v1H79V9.4c0-1.5,0.6-2.6,2.4-2.6C82.9,6.8,83.6,7.7,83.6,9.2z"/>
	</g>
	<g class="st2">
	</g>
	<g class="st2">
		<path class="st1" d="M86.6,10.8c0.7,0,1.2,0.6,1.2,1.2c0,0.7-0.6,1.2-1.2,1.2c-0.7,0-1.2-0.6-1.2-1.2
			C85.3,11.4,85.9,10.8,86.6,10.8z"/>
	</g>
	<g class="st2">
		<path class="st1" d="M94.3,12.4v2.5c0,1.4-0.7,2.3-2.4,2.3c-1.7,0-2.4-1-2.4-2.5v-1.2h1.6v1.3c0,0.6,0.2,1,0.8,1
			c0.5,0,0.7-0.4,0.7-0.9v-2.5c0-0.6-0.2-0.9-0.7-0.9c-0.5,0-0.8,0.3-0.8,0.9v0.2h-1.6V6.9h4.5v1.4h-2.9v2.5h0
			c0.3-0.5,0.8-0.7,1.4-0.7C93.5,10.2,94.3,10.8,94.3,12.4z"/>
	</g>
	<g>
		<path class="st1" d="M98.2,144.8H3.3v-22.6h94.8V144.8z M4.3,143.8h92.8v-20.6H4.3L4.3,143.8z"/>
	</g>
	<g>
		<g class="st3">
			<rect x="14.7" y="79.1" transform="matrix(0.6628 -0.7488 0.7488 0.6628 -54.5507 44.3991)" width="14.7" height="7.4"/>
		</g>
		<g>
			<g>
				<path d="M42.4,60.3l-0.6-0.5l-1-0.9l-6,6.8c-0.7,0.7-1.6,1.2-2.6,1.5c-1.6,0.3-2.2,0.3-3,0.5c-1.3,0.3-2.4,1.3-4.3,3.4L9.6,88.3
					c0,0-0.7,0.6,0.1,1.7l6.7,5.9c1.1,0.7,1.7-0.1,1.7-0.1s13.3-15,15.2-17.2s2.7-3.3,2.9-4.7c0.1-0.8,0-1.4,0.1-3.1
					c0.1-1,0.5-1.9,1.2-2.7l6-6.8L42.4,60.3z M19.9,90.7l-5.6-4.9l9.8-11l5.5,4.9L19.9,90.7z"/>
			</g>
			<g>
				<g>
					<g>
						<g>
							<path d="M23.9,62.2h-6.1c0.1,1.7,1.5,3,3.2,2.9C22.5,64.9,23.8,63.7,23.9,62.2z"/>
						</g>
						<g>
							<path d="M20.8,58.9c-1.6,0-2.9,1.2-3,2.8h6.1C23.8,60.1,22.4,58.8,20.8,58.9z"/>
						</g>
					</g>
					<g>
						<g>
							<path d="M14,67l-2.8-5.4c-1.4,0.9-1.9,2.7-1,4.2C11,67.1,12.6,67.6,14,67z"/>
						</g>
						<g>
							<path d="M15.5,62.7c-0.7-1.4-2.4-2-3.9-1.4l2.8,5.4C15.8,65.9,16.3,64.2,15.5,62.7z"/>
						</g>
					</g>
					<g>
						<g>
							<path d="M20.4,68L15,70.8c0.9,1.5,2.7,1.9,4.2,1.1C20.5,71.2,21.1,69.5,20.4,68z"/>
						</g>
						<g>
							<path d="M16.2,66.5c-1.4,0.7-2,2.4-1.4,3.9l5.4-2.8C19.4,66.3,17.6,65.8,16.2,66.5z"/>
						</g>
					</g>
				</g>
				<g>
					<g>
						<rect x="22.7" y="102" transform="matrix(0.928 -0.3727 0.3727 0.928 -36.3934 19.4942)" width="19.1" height="3.8"/>
					</g>
					<g>
						<rect x="20.2" y="106.5" transform="matrix(0.928 -0.3725 0.3725 0.928 -38.8979 15.5689)" width="1.2" height="3.8"/>
					</g>
					<g>
						<rect x="21.8" y="105.9" transform="matrix(0.928 -0.3725 0.3725 0.928 -38.5646 16.0893)" width="1.2" height="3.8"/>
					</g>
				</g>
				<g>
					<g>
						<rect x="27.2" y="94.1" transform="matrix(0.973 -0.2307 0.2307 0.973 -21.1694 11.0651)" width="19.1" height="3.8"/>
					</g>
					<g>
						<rect x="24.2" y="97" transform="matrix(0.9729 -0.2312 0.2312 0.9729 -22.192 8.4141)" width="1.2" height="3.8"/>
					</g>
					<g>
						<rect x="25.8" y="96.6" transform="matrix(0.973 -0.2309 0.2309 0.973 -22.034 8.7538)" width="1.2" height="3.8"/>
					</g>
				</g>
				<g>
					<g>
						<path d="M39.5,37.6l-1-1l2.1-2.2l1.2,1.2c0.1,0.1,0.3,0.1,0.4,0c0,0,0,0,0,0l0.2-0.2c0.1-0.1,0.1-0.3,0-0.4l-3.5-3.4
							c-0.1-0.1-0.3-0.1-0.4,0c0,0,0,0,0,0l-0.2,0.2c-0.1,0.1-0.1,0.3,0,0.4c0,0,0,0,0,0l1.2,1.2l-2.1,2.2l-1-0.9
							c-0.3-0.3-0.7-0.3-1,0c0,0,0,0,0,0l-11.8,12c-0.1,0.1-0.2,0.3-0.2,0.5c0,0.2,0.1,0.4,0.2,0.5l0.9,0.8l0,0l-0.9,0.9
							c-0.1,0.1-0.1,0.3,0,0.4L24,50l-2.4,2.4c0,0,0,0.1,0,0.2c0,0,0.1,0,0.2,0c0,0,0,0,0,0l2.4-2.4l0.4,0.4c0.1,0.1,0.3,0.1,0.4,0
							c0,0,0,0,0,0l0.9-0.9l0,0l0.9,0.8c0.3,0.3,0.7,0.3,1,0c0,0,0,0,0,0l11.8-12C39.8,38.3,39.8,37.9,39.5,37.6
							C39.5,37.6,39.5,37.6,39.5,37.6z M26.4,46.6l-1-1c-0.1-0.1,0-0.2,0.1-0.3c0.1-0.1,0.2-0.1,0.3,0l1,1c0.1,0.1,0.1,0.2,0,0.3
							c0,0,0,0,0,0C26.6,46.7,26.5,46.7,26.4,46.6z M28,45l-1-1c-0.1-0.1-0.1-0.2,0-0.3c0.1-0.1,0.2-0.1,0.3,0l1,1
							c0.1,0.1,0.1,0.2,0,0.3C28.2,45.1,28.1,45.1,28,45z M29.6,43.4l-1-1c-0.1-0.1,0-0.2,0.1-0.3c0.1-0.1,0.2-0.1,0.3,0l1,1
							c0.1,0.1,0,0.2-0.1,0.3C29.8,43.4,29.7,43.4,29.6,43.4z M31.2,41.7l-1-1c-0.1-0.1-0.1-0.2,0-0.3c0.1-0.1,0.2-0.1,0.3,0
							c0,0,0,0,0,0l1,1c0.1,0.1,0.1,0.2,0,0.3c0,0,0,0,0,0C31.5,41.8,31.3,41.9,31.2,41.7C31.2,41.8,31.2,41.8,31.2,41.7L31.2,41.7z
							 M32.9,40.1l-1-1c-0.1-0.1-0.1-0.2,0-0.3c0.1-0.1,0.2-0.1,0.3,0l1,1c0.1,0.1,0,0.2-0.1,0.3C33,40.1,32.9,40.1,32.9,40.1
							L32.9,40.1z M36.9,40.7c-0.5-0.5-3-3-3.6-3.5l2.4-2.4c0.1-0.1,0.1-0.1,0.2-0.1c0.1,0,0.2,0,0.2,0.1l3.1,3.1
							c0.1,0.1,0.1,0.3,0,0.5L36.9,40.7z"/>
					</g>
					<g>
						<path d="M21.2,53c0.1-0.2,0.6-0.7,0.4,0.1c0,0.2,0.1,0.4-0.1,0.5c-0.2,0-0.3,0-0.4-0.2C21,53.3,21.1,53.1,21.2,53z"/>
					</g>
				</g>
			</g>
		</g>
	</g>
	<g>
		<g>
			<path class="st0" d="M85.5,58.7c0-3.6-2.3-6.5-5.8-6.5c-1.7,0-3.8,1.9-5,3.1c-1.1-1.2-3.1-3.1-4.8-3.1c-3.5,0-5.9,2.9-5.9,6.5
				c0,1.7,0.7,3.4,1.8,4.6l8.9,9l8.9-9l0,0C84.9,62.1,85.6,60.4,85.5,58.7"/>
		</g>
		<g>
			<g>
				<g>
					<path class="st0" d="M51.5,113.4h-1.7v-4.7h1.7L51.5,113.4z M51.5,104.6h-1.7v-4.7h1.7L51.5,104.6z M51.5,95.8h-1.7V91h1.7
						L51.5,95.8z"/>
				</g>
				<g>
					<path class="st0" d="M51.5,87h-1.7v-4.7h1.7L51.5,87z M51.5,78.2h-1.7v-4.7h1.7L51.5,78.2z"/>
				</g>
			</g>
			<g>
				<g>
					<path class="st0" d="M51.5,69.5h-1.7v-4.7h1.7L51.5,69.5z M51.5,60.6h-1.7v-4.7h1.7L51.5,60.6z M51.5,51.8h-1.7v-4.7h1.7
						L51.5,51.8z"/>
				</g>
				<g>
					<path class="st0" d="M51.5,43.1h-1.7v-4.7h1.7L51.5,43.1z M51.5,34.3h-1.7v-4.7h1.7L51.5,34.3z"/>
				</g>
			</g>
		</g>
		<g>
			<path class="st0" d="M60.9,78.5c0.5,0.2,3.7,2.5,5.3,3.3c1.9,0.9,3.9,1.4,6,1.6c0.9,0,3.9-0.1,4-0.5s-0.3-0.6-0.8-0.6
				s-3.1,0.4-4.6,0.3s-2.5-1-2.3-1.8c0.1-0.6,1.2-0.4,3.2-0.7s4-0.8,7.7-1.4c2.7-0.4,5.4,0.5,7.2,2.4c1.7,1.4,3.6,2.7,5.5,3.8v9.2
				c0,0-6.3-4.8-6.8-5.2c-1.2-1-2.7-1.6-4.3-1.9c-1.4-0.2-3.6,0.7-6.4,1s-3.4,0-6-1.5c-3.1-1.9-6-4.1-8.6-6.6
				c-0.6-0.6-1.3-1.3-0.9-1.8S60.3,78.3,60.9,78.5z"/>
		</g>
	</g>
</g>
</svg>
