<?xml version="1.0" encoding="utf-8"?>
<!-- Generator: Adobe Illustrator 22.0.1, SVG Export Plug-In . SVG Version: 6.00 Build 0)  -->
<svg version="1.1" id="Layer_1" xmlns="http://www.w3.org/2000/svg" xmlns:xlink="http://www.w3.org/1999/xlink" x="0px" y="0px"
	 viewBox="0 0 101.5 166.6" style="enable-background:new 0 0 101.5 166.6;" xml:space="preserve">
<style type="text/css">
	.st0{fill:#FFFFFF;}
	.st1{fill:#4C9F38;}
	.st2{enable-background:new    ;}
	.st3{opacity:0.3;enable-background:new    ;}
	.st4{fill:#1A1818;}
</style>
<title>TARGET 1 B copy 3</title>
<g id="WHITE_BG">
	<g>
		<rect y="0" class="st0" width="101.5" height="166.3"/>
	</g>
</g>
<g id="TARGETS">
	<g>
		<g>
			<path class="st1" d="M7,132.2v-6.4h1v6.4H7z"/>
		</g>
		<g>
			<path class="st1" d="M12.5,131.3h-0.9l-1.6-3.9v4.8H9v-6.4h1.2l1.8,4.3l1.7-4.3H15v6.4h-1v-4.8L12.5,131.3z"/>
		</g>
		<g>
			<path class="st1" d="M16.9,132.2h-1v-6.4H18c1.6,0,2.2,1,2.2,2c0,1-0.6,2-2.2,2h-1.1V132.2z M16.9,128.9H18
				c0.6,0.1,1.2-0.4,1.2-1s-0.4-1.2-1-1.2c-0.1,0-0.1,0-0.2,0h-1.1V128.9z"/>
		</g>
		<g>
			<path class="st1" d="M21.7,131.3h2.8v0.9h-3.7v-6.4h1L21.7,131.3z"/>
		</g>
		<g>
			<path class="st1" d="M28.6,129.3H26v2h2.9v0.9H25v-6.4h3.9v0.9H26v1.8h2.6V129.3z"/>
		</g>
		<g>
			<path class="st1" d="M33.1,131.3h-0.9l-1.6-3.9v4.8h-1v-6.4h1.2l1.7,4.3l1.7-4.3h1.2v6.4h-1v-4.8L33.1,131.3z"/>
		</g>
		<g>
			<path class="st1" d="M40.2,129.3h-2.6v2h2.9v0.9h-3.9v-6.4h3.9v0.9h-2.9v1.8h2.7L40.2,129.3z"/>
		</g>
		<g>
			<path class="st1" d="M45,132.2l-2.8-4.5v4.5h-0.9v-6.4h0.9l2.8,4.5v-4.5h0.9v6.4L45,132.2L45,132.2z"/>
		</g>
		<g>
			<path class="st1" d="M49,126.7v5.5h-1v-5.5h-1.6v-0.9h4.3v0.9H49z"/>
		</g>
		<g>
			<path class="st1" d="M54.5,126.7v5.5h-1v-5.5h-1.7v-0.9h4.3v0.9H54.5z"/>
		</g>
		<g>
			<path class="st1" d="M60.2,132.2v-2.9h-2.6v2.9h-1v-6.4h1v2.6h2.6v-2.6h1v6.4H60.2z"/>
		</g>
		<g>
			<path class="st1" d="M65.7,129.3H63v2h3v0.9h-3.9v-6.4H66v0.9h-2.9v1.8h2.7L65.7,129.3L65.7,129.3z"/>
		</g>
		<g>
			<path class="st1" d="M70.7,125.8h1.2l1.1,5l0.8-5h1l-1.2,6.4h-1.2l-1.2-5.3l-1.2,5.3h-1.2l-1.2-6.4h1l0.8,5L70.7,125.8z"/>
		</g>
		<g>
			<path class="st1" d="M78.9,132.2v-2.9h-2.6v2.9h-1v-6.4h1v2.6h2.6v-2.6h1v6.4H78.9z"/>
		</g>
		<g>
			<path class="st1" d="M80.6,129c0-1.8,0.4-3.3,2.4-3.3s2.5,1.5,2.5,3.3s-0.4,3.3-2.5,3.3S80.6,130.8,80.6,129z M81.6,129
				c0,1.5,0.3,2.4,1.5,2.4s1.5-0.9,1.5-2.4s-0.3-2.4-1.5-2.4S81.5,127.5,81.6,129L81.6,129z"/>
		</g>
		<g>
			<path class="st1" d="M10.4,138.4H7.8v2.8h-1v-6.4h3.9v0.9H7.8v1.8h2.6V138.4z"/>
		</g>
		<g>
			<path class="st1" d="M12.2,141.2h-0.9v-6.4h2.1c1.6,0,2.2,0.7,2.2,1.9c0.1,0.7-0.3,1.4-1,1.7l1.3,2.8h-1.2l-1.1-2.6h-1.3
				L12.2,141.2L12.2,141.2z M12.2,137.7h1.3c0.9,0,1-0.5,1-1s-0.1-1-1-1h-1.3V137.7z"/>
		</g>
		<g>
			<path class="st1" d="M19.6,139.6h-2l-0.5,1.6h-1l2-6.4h1l2,6.4H20L19.6,139.6z M18.6,136l-0.8,2.8h1.6L18.6,136z"/>
		</g>
		<g>
			<path class="st1" d="M25,140.3h-0.9l-1.6-3.9v4.8h-1v-6.4h1.2l1.7,4.3l1.7-4.3h1.2v6.4h-1v-4.8L25,140.3z"/>
		</g>
		<g>
			<path class="st1" d="M32,138.3h-2.6v2h2.9v0.9h-3.9v-6.4h3.9v0.9h-2.9v1.8H32V138.3z"/>
		</g>
		<g>
			<path class="st1" d="M35.7,134.8h1.2l1.1,5l0.8-5h1l-1.2,6.4h-1.2l-1.2-5.3l-1.2,5.3h-1l-1.2-6.4h1l0.8,5L35.7,134.8z"/>
		</g>
		<g>
			<path class="st1" d="M40.2,138c0-1.8,0.4-3.3,2.5-3.3s2.5,1.5,2.5,3.3s-0.4,3.3-2.5,3.3S40.2,139.8,40.2,138z M41.2,138
				c0,1.5,0.3,2.4,1.5,2.4s1.5-0.9,1.5-2.4s-0.3-2.4-1.5-2.4S41.2,136.5,41.2,138L41.2,138z"/>
		</g>
		<g>
			<path class="st1" d="M47,141.2h-1v-6.4h2.1c1.7,0,2.2,0.7,2.2,1.9c0.1,0.7-0.3,1.4-1,1.7l1.3,2.8h-1.2l-1.2-2.6H47V141.2z
				 M47,137.7h1.3c0.9,0,1-0.5,1-1s-0.1-1-1-1H47V137.7z"/>
		</g>
		<g>
			<path class="st1" d="M52.7,138.4l-0.5,0.6v2.2h-1v-6.4h1v3l2.3-3h1.2l-2.3,2.8l2.6,3.6h-1.2L52.7,138.4z"/>
		</g>
		<g>
			<path class="st1" d="M9.4,143.7c0.5,0,1,0.1,1.5,0.3v0.9c-0.5-0.2-0.9-0.3-1.4-0.3c-1.2,0-1.7,0.8-1.7,2.4s0.5,2.4,1.7,2.4
				c0.5,0,1-0.1,1.4-0.3v0.9c-0.5,0.2-1,0.3-1.5,0.3c-1.9,0-2.6-1.2-2.6-3.3S7.5,143.7,9.4,143.7z"/>
		</g>
		<g>
			<path class="st1" d="M11.5,147c0-1.8,0.4-3.3,2.5-3.3s2.5,1.5,2.5,3.3s-0.4,3.3-2.4,3.3S11.5,148.8,11.5,147z M12.5,147
				c0,1.5,0.3,2.4,1.5,2.4s1.5-0.9,1.5-2.4s-0.3-2.4-1.5-2.4S12.5,145.5,12.5,147L12.5,147z"/>
		</g>
		<g>
			<path class="st1" d="M21,150.2l-2.8-4.5v4.5h-1v-6.4h0.9l2.8,4.5v-4.5h0.9v6.4H21z"/>
		</g>
		<g>
			<path class="st1" d="M27.4,143.8l-2,6.4h-1l-2-6.4h1l1.5,5.2l1.5-5.2H27.4z"/>
		</g>
		<g>
			<path class="st1" d="M31.5,147.3h-2.6v2h2.9v0.9h-3.9v-6.4h3.9v0.9h-2.9v1.8h2.6V147.3z"/>
		</g>
		<g>
			<path class="st1" d="M36.3,150.2l-2.8-4.5v4.5h-0.9v-6.4h0.9l2.8,4.5v-4.5h1v6.4H36.3z"/>
		</g>
		<g>
			<path class="st1" d="M40.3,144.7v5.5h-1v-5.5h-1.7v-0.9H42v0.9H40.3z"/>
		</g>
		<g>
			<path class="st1" d="M42.6,150.2v-6.4h1v6.4H42.6z"/>
		</g>
		<g>
			<path class="st1" d="M44.5,147c0-1.8,0.4-3.3,2.5-3.3s2.5,1.5,2.5,3.3s-0.4,3.3-2.5,3.3S44.5,148.8,44.5,147z M45.5,147
				c0,1.5,0.3,2.4,1.5,2.4s1.5-0.9,1.5-2.4s-0.3-2.4-1.5-2.4S45.4,145.5,45.5,147L45.5,147z"/>
		</g>
		<g>
			<path class="st1" d="M53.8,150.2l-2.8-4.5v4.5h-0.9v-6.4H51l2.8,4.5v-4.5h1v6.4H53.8z"/>
		</g>
		<g>
			<path class="st1" d="M56.9,147c0-1.8,0.4-3.3,2.5-3.3s2.5,1.5,2.5,3.3s-0.4,3.3-2.5,3.3S56.9,148.8,56.9,147z M57.9,147
				c0,1.5,0.3,2.4,1.5,2.4s1.5-0.9,1.5-2.4s-0.3-2.4-1.5-2.4S57.9,145.5,57.9,147L57.9,147z"/>
		</g>
		<g>
			<path class="st1" d="M66.2,150.2l-2.8-4.5v4.5h-0.9v-6.4h0.9l2.8,4.5v-4.5h0.9v6.4H66.2z"/>
		</g>
		<g>
			<path class="st1" d="M9.2,153.7v5.5h-1v-5.5H6.6v-0.9h4.3v0.9H9.2z"/>
		</g>
		<g>
			<path class="st1" d="M11.1,156c0-1.8,0.4-3.3,2.5-3.3s2.5,1.5,2.5,3.3s-0.4,3.3-2.4,3.3S11.1,157.8,11.1,156z M12.1,156
				c0,1.5,0.3,2.4,1.5,2.4s1.5-0.9,1.5-2.4s-0.3-2.4-1.5-2.4S12,154.5,12.1,156L12.1,156z"/>
		</g>
		<g>
			<path class="st1" d="M16.7,152.8h2.1c1.5,0,2,0.8,2,1.7c0,0.5-0.3,1-0.8,1.3c0.6,0.2,1.1,0.8,1,1.5c0,1.1-0.5,1.9-2.2,1.9h-2.2
				L16.7,152.8z M18.9,153.7h-1.2v1.8h1.2c0.4,0.1,0.9-0.2,0.9-0.7c0-0.1,0-0.1,0-0.2C19.9,154.2,19.7,153.7,18.9,153.7z
				 M17.7,158.3H19c0.9,0,1.1-0.5,1.1-1s-0.3-1-1.1-1h-1.3V158.3z"/>
		</g>
		<g>
			<path class="st1" d="M24.9,157.6h-2l-0.5,1.6h-1l2-6.4h1l2,6.4h-1L24.9,157.6z M23.9,154l-0.9,2.8h1.6L23.9,154z"/>
		</g>
		<g>
			<path class="st1" d="M29.2,152.7c0.5,0,1,0.1,1.5,0.3v0.9c-0.4-0.2-0.9-0.3-1.4-0.3c-1.2,0-1.7,0.8-1.7,2.4s0.5,2.4,1.7,2.4
				c0.5,0,1-0.1,1.4-0.3v0.9c-0.5,0.2-1,0.3-1.5,0.3c-1.9,0-2.6-1.2-2.6-3.3S27.3,152.7,29.2,152.7z"/>
		</g>
		<g>
			<path class="st1" d="M34,152.7c0.5,0,1,0.1,1.5,0.3v0.9c-0.5-0.2-0.9-0.3-1.4-0.3c-1.2,0-1.7,0.8-1.7,2.4s0.5,2.4,1.7,2.4
				c0.5,0,1-0.1,1.4-0.3v0.9c-0.5,0.2-1,0.3-1.5,0.3c-1.9,0-2.6-1.2-2.6-3.3S32.1,152.7,34,152.7z"/>
		</g>
		<g>
			<path class="st1" d="M36.1,156c0-1.8,0.4-3.3,2.5-3.3s2.4,1.5,2.4,3.3s-0.4,3.3-2.5,3.3S36.1,157.8,36.1,156z M37.1,156
				c0,1.5,0.3,2.4,1.5,2.4s1.5-0.9,1.5-2.4s-0.3-2.4-1.5-2.4S37.1,154.5,37.1,156L37.1,156z"/>
		</g>
		<g>
			<path class="st1" d="M45.8,152.7c0.5,0,1,0.1,1.5,0.3v0.9c-0.5-0.2-0.9-0.3-1.4-0.3c-1.2,0-1.7,0.8-1.7,2.4s0.5,2.4,1.7,2.4
				c0.5,0,1-0.1,1.4-0.3v0.9c-0.5,0.2-1,0.3-1.5,0.3c-1.9,0-2.6-1.2-2.6-3.3S43.9,152.7,45.8,152.7z"/>
		</g>
		<g>
			<path class="st1" d="M47.9,156c0-1.8,0.4-3.3,2.5-3.3s2.5,1.5,2.5,3.3s-0.4,3.3-2.5,3.3S47.9,157.8,47.9,156z M48.9,156
				c0,1.5,0.3,2.4,1.5,2.4s1.5-0.9,1.5-2.4s-0.3-2.4-1.5-2.4S48.9,154.5,48.9,156L48.9,156z"/>
		</g>
		<g>
			<path class="st1" d="M57.3,159.2l-2.8-4.5v4.5h-0.9v-6.4h0.9l2.8,4.5v-4.5h0.9v6.4H57.3z"/>
		</g>
		<g>
			<path class="st1" d="M61.3,153.7v5.5h-1v-5.5h-1.6v-0.9H63v0.9H61.3z"/>
		</g>
		<g>
			<path class="st1" d="M64.4,159.2h-1v-6.4h2.1c1.7,0,2.2,0.7,2.2,1.9c0.1,0.7-0.3,1.4-1,1.7l1.3,2.8h-1.1l-1.2-2.6h-1.3V159.2z
				 M64.4,155.7h1.3c0.9,0,1-0.5,1-1s-0.1-1-1-1h-1.3V155.7z"/>
		</g>
		<g>
			<path class="st1" d="M68.4,156c0-1.8,0.4-3.3,2.4-3.3s2.5,1.5,2.5,3.3s-0.4,3.3-2.5,3.3S68.4,157.8,68.4,156z M69.4,156
				c0,1.5,0.3,2.4,1.5,2.4s1.5-0.9,1.5-2.4s-0.3-2.4-1.5-2.4S69.4,154.5,69.4,156L69.4,156z"/>
		</g>
		<g>
			<path class="st1" d="M75,158.3h2.8v0.9h-3.7v-6.4h1L75,158.3z"/>
		</g>
	</g>
	<g>
		<rect x="3.3" y="24" class="st1" width="94.8" height="94.8"/>
	</g>
	<g>
		<path class="st1" d="M98.2,20.7H3.3V3.3h94.8L98.2,20.7L98.2,20.7z M4.3,19.7h92.8V4.3H4.3V19.7z"/>
	</g>
	<g class="st2">
		<path class="st1" d="M6.7,6.9h4.5v1.4H9.9v8.8H8.1V8.3H6.7V6.9z"/>
	</g>
	<g class="st2">
		<path class="st1" d="M11.2,17.1l1.9-10.2H15l2,10.2h-1.8l-0.3-1.9h-1.8l-0.3,1.9H11.2z M13.3,13.9h1.4L14,9.8l0,0L13.3,13.9z"/>
	</g>
	<g class="st2">
		<path class="st1" d="M19.6,12.4v4.7h-1.7V6.9h2.5c1.7,0,2.4,0.9,2.4,2.3v1.3c0,1.1-0.4,1.7-1.4,2l1.6,4.6h-1.8L19.6,12.4z
			 M19.6,8.3v3.2h0.6c0.6,0,0.8-0.3,0.8-0.8V9.2c0-0.6-0.3-0.8-0.8-0.8L19.6,8.3L19.6,8.3z"/>
	</g>
	<g class="st2">
		<path class="st1" d="M26.4,11.7h2.4v5.4h-1.2V16c-0.2,0.8-0.7,1.2-1.6,1.2c-1.5,0-2.1-1.2-2.1-2.7V9.6c0-1.6,0.8-2.7,2.6-2.7
			c1.9,0,2.4,1.1,2.4,2.6v0.9h-1.6v-1c0-0.6-0.2-1-0.9-1c-0.6,0-0.9,0.4-0.9,1v5.5c0,0.6,0.3,1,0.8,1c0.6,0,0.8-0.3,0.8-1V13h-0.8
			v-1.3H26.4z"/>
	</g>
	<g class="st2">
		<path class="st1" d="M30.2,6.9h4.1v1.4h-2.4v2.9h1.7v1.4h-1.7v3.1h2.4v1.4h-4.1C30.2,17.1,30.2,6.9,30.2,6.9z"/>
	</g>
	<g class="st2">
		<path class="st1" d="M35.1,6.9h4.5v1.4h-1.4v8.8h-1.7V8.3h-1.4C35.1,8.3,35.1,6.9,35.1,6.9z"/>
	</g>
	<g class="st2">
		<path class="st1" d="M88.8,17.1l1.9-10.2h1.9l1.9,10.2h-1.8l-0.3-1.9h-1.8l-0.3,1.9H88.8z M90.9,13.9h1.4l-0.7-4.1l0,0L90.9,13.9z
			"/>
	</g>
	<g class="st2">
		<path class="st1" d="M83.1,9.1V10c0,0.9-0.5,1.4-1.2,1.7c0.9,0.2,1.3,0.8,1.3,1.7v1.5c0,1.4-0.8,2.3-2.5,2.3s-2.4-1-2.4-2.5v-1.3
			h1.6v1.5c0,0.6,0.2,1,0.8,1c0.5,0,0.8-0.4,0.8-0.9v-1.7c0-0.5-0.2-0.8-0.8-0.8H80v-1.3h0.6c0.6,0,0.9-0.3,0.9-0.8V9.1
			c0-0.6-0.2-0.9-0.7-0.9S80,8.6,80,9.2v1h-1.6V9.3c0-1.5,0.6-2.6,2.4-2.6C82.4,6.8,83.1,7.7,83.1,9.1z"/>
	</g>
	<g>
		<polygon class="st1" points="85.4,9.9 85.4,14.1 87.6,12 		"/>
	</g>
	<g>
		<path class="st1" d="M98.2,162.9h-95v-40.7h95V162.9z M4.2,161.9h93v-38.7h-93C4.2,123.2,4.2,161.9,4.2,161.9z"/>
	</g>
	<g>
		<g>
			<rect x="33.3" y="69.4" width="50.5" height="8.9"/>
		</g>
		<g>
			<rect x="24.6" y="69.4" width="7.1" height="8.9"/>
		</g>
		<g>
			<path d="M20,42.2c0,0,5.6,4.3-0.8,14.7c-6,9.8,0.8,16.1,2.9,16.9c-2-5.4-1.4-11.5,1.5-16.4C26.8,51.9,25.8,43.4,20,42.2z"/>
		</g>
	</g>
	<g>
		<g class="st3">
			<path class="st4" d="M67.5,46c0,4.8-3.9,8.6-8.6,8.6s-8.6-3.9-8.6-8.6c0-4.8,3.9-8.6,8.6-8.6l0,0C63.7,37.4,67.5,41.2,67.5,46
				L67.5,46z"/>
		</g>
		<g class="st3">
			<path class="st4" d="M35.8,63.1c0,6.2-4.9,11.2-11.1,11.2s-11.2-4.9-11.2-11.1S18.4,52,24.6,52l0,0C30.8,52,35.8,57,35.8,63.1z"
				/>
		</g>
		<g class="st3">
			<path class="st4" d="M65.9,59.1c0,7.8-6.4,14.2-14.2,14.2s-14.2-6.4-14.2-14.2s6.4-14.2,14.2-14.2S65.9,51.2,65.9,59.1L65.9,59.1
				z"/>
		</g>
		<g class="st3">
			<path class="st4" d="M41.2,92.5c0,5.9-4.8,10.8-10.8,10.7c-5.9,0-10.7-4.8-10.7-10.8c0-5.9,4.8-10.8,10.8-10.8l0,0
				C36.4,81.8,41.2,86.6,41.2,92.5L41.2,92.5z"/>
		</g>
		<g class="st3">
			<path class="st4" d="M55,81.8c0,4.1-3.4,7.5-7.5,7.5S40,85.9,40,81.8s3.4-7.5,7.5-7.5l0,0C51.6,74.3,55,77.6,55,81.8
				C55,81.7,55,81.8,55,81.8z"/>
		</g>
		<g class="st3">
			<path class="st4" d="M43.4,50.1c0,7.8-6.4,14.2-14.2,14.2S15,57.9,15,50.1s6.4-14.2,14.2-14.2l0,0C37,35.9,43.4,42.2,43.4,50.1z"
				/>
		</g>
		<g class="st3">
			<path class="st4" d="M50.3,74.3c0,9.7-7.8,17.5-17.5,17.5S15.3,84,15.3,74.3s7.8-17.5,17.5-17.5l0,0
				C42.4,56.8,50.3,64.7,50.3,74.3z"/>
		</g>
		<g class="st3">
			<path class="st4" d="M44.4,39.6c0,3.6-2.9,6.6-6.6,6.6s-6.6-2.9-6.6-6.6s2.9-6.6,6.6-6.6l0,0C41.4,33,44.4,35.9,44.4,39.6z"/>
		</g>
	</g>
	<g>
		<polygon class="st0" points="73.2,55.9 71,53.8 53.1,71.6 35.3,53.8 33.1,55.9 50.9,73.8 33.1,91.6 35.3,93.8 53.1,76 71,93.8 
			73.2,91.6 55.3,73.8 		"/>
	</g>
</g>
</svg>
