<?xml version="1.0" encoding="utf-8"?>
<!-- Generator: Adobe Illustrator 22.0.1, SVG Export Plug-In . SVG Version: 6.00 Build 0)  -->
<svg version="1.1" id="Layer_1" xmlns="http://www.w3.org/2000/svg" xmlns:xlink="http://www.w3.org/1999/xlink" x="0px" y="0px"
	 viewBox="0 0 101.5 183.7" style="enable-background:new 0 0 101.5 183.7;" xml:space="preserve">
<style type="text/css">
	.st0{fill:#FFFFFF;}
	.st1{fill:#4C9F38;}
	.st2{enable-background:new    ;}
</style>
<title>TARGET 1 B copy 5</title>
<g id="WHITE_BG">
	<g>
		<rect y="0" class="st0" width="101.5" height="183.4"/>
	</g>
</g>
<g id="TARGETS">
	<g>
		<g>
			<path class="st1" d="M7,132.2v-6.4h1v6.4H7z"/>
		</g>
		<g>
			<path class="st1" d="M12.8,132.2l-2.8-4.5v4.5H9.1v-6.4H10l2.8,4.5v-4.5h0.9v6.4L12.8,132.2L12.8,132.2z"/>
		</g>
		<g>
			<path class="st1" d="M17,125.7c0.5,0,1,0.1,1.5,0.3v0.9c-0.4-0.2-0.9-0.3-1.4-0.3c-1.2,0-1.7,0.8-1.7,2.4c0,1.6,0.5,2.4,1.7,2.4
				c0.5,0,1-0.1,1.4-0.3v0.9c-0.5,0.2-1,0.3-1.5,0.3c-1.9,0-2.6-1.2-2.6-3.3S15.1,125.7,17,125.7z"/>
		</g>
		<g>
			<path class="st1" d="M20.3,132.2h-1v-6.4h2.1c1.6,0,2.2,0.7,2.2,1.9c0.1,0.7-0.3,1.4-1,1.7l1.3,2.8h-1.2l-1.1-2.6h-1.3V132.2z
				 M20.3,128.7h1.3c0.9,0,1-0.5,1-1s-0.1-1-1-1h-1.3V128.7z"/>
		</g>
		<g>
			<path class="st1" d="M28.1,129.3h-2.7v2h2.9v0.9h-3.9v-6.4h3.9v0.9h-2.9v1.8h2.7V129.3z"/>
		</g>
		<g>
			<path class="st1" d="M32.3,130.6h-2l-0.5,1.6h-1l2-6.4h1l2,6.4h-1L32.3,130.6z M31.3,127l-0.8,2.8h1.6L31.3,127z"/>
		</g>
		<g>
			<path class="st1" d="M38.4,130.3c0,1.2-0.7,2-2.4,2c-0.6,0-1.3-0.1-1.9-0.4V131c0.6,0.3,1.2,0.4,1.8,0.4c1.2,0,1.5-0.5,1.5-1.1
				s-0.3-0.9-1.2-1c-1.5-0.2-2.2-0.6-2.2-1.8c0-0.9,0.5-1.8,2.3-1.8c0.6,0,1.1,0.1,1.7,0.3v1c-0.5-0.2-1.1-0.3-1.7-0.3
				c-1,0-1.3,0.4-1.3,1c0,0.7,0.4,0.8,1.2,0.9C37.6,128.7,38.4,129,38.4,130.3z"/>
		</g>
		<g>
			<path class="st1" d="M42.6,129.3H40v2h2.9v0.9H39v-6.4h3.9v0.9H40v1.8h2.7L42.6,129.3z"/>
		</g>
		<g>
			<path class="st1" d="M48.7,132.2v-2.9h-2.6v2.9h-1v-6.4h1v2.6h2.6v-2.6h1v6.4H48.7z"/>
		</g>
		<g>
			<path class="st1" d="M54.2,129.3h-2.7v2h2.9v0.9h-3.9v-6.4h3.9v0.9h-2.9v1.8h2.7V129.3z"/>
		</g>
		<g>
			<path class="st1" d="M58.4,130.6h-2l-0.5,1.6h-1l2-6.4h1l2,6.4h-1L58.4,130.6z M57.4,127l-0.8,2.8h1.6L57.4,127z"/>
		</g>
		<g>
			<path class="st1" d="M61.3,131.3h2.8v0.9h-3.7v-6.4h1L61.3,131.3z"/>
		</g>
		<g>
			<path class="st1" d="M66.1,126.7v5.5h-1v-5.5h-1.6v-0.9h4.3v0.9H66.1z"/>
		</g>
		<g>
			<path class="st1" d="M71.8,132.2v-2.9h-2.6v2.9h-1v-6.4h1v2.6h2.6v-2.6h1v6.4H71.8z"/>
		</g>
		<g>
			<path class="st1" d="M10.4,138.4H7.8v2.8h-1v-6.4h3.9v0.9H7.8v1.8h2.6V138.4z"/>
		</g>
		<g>
			<path class="st1" d="M11.4,141.2v-6.4h1v6.4H11.4z"/>
		</g>
		<g>
			<path class="st1" d="M17.2,141.2l-2.8-4.5v4.5h-0.9v-6.4h0.9l2.8,4.5v-4.5H18v6.4H17.2z"/>
		</g>
		<g>
			<path class="st1" d="M22.1,139.6H20l-0.5,1.6h-1l2-6.4h1l2,6.4h-1L22.1,139.6z M21.1,136l-0.8,2.8h1.6L21.1,136z"/>
		</g>
		<g>
			<path class="st1" d="M27.8,141.2l-2.8-4.5v4.5h-1v-6.4h1l2.8,4.5v-4.5h0.9v6.4H27.8z"/>
		</g>
		<g>
			<path class="st1" d="M32,134.7c0.5,0,1,0.1,1.5,0.3v0.9c-0.4-0.2-0.9-0.3-1.4-0.3c-1.2,0-1.7,0.8-1.7,2.4s0.5,2.4,1.7,2.4
				c0.5,0,1-0.1,1.4-0.3v0.9c-0.5,0.2-1,0.3-1.5,0.3c-1.9,0-2.6-1.2-2.6-3.3S30.1,134.7,32,134.7z"/>
		</g>
		<g>
			<path class="st1" d="M34.5,141.2v-6.4h1v6.4H34.5z"/>
		</g>
		<g>
			<path class="st1" d="M40.2,141.2l-2.8-4.5v4.5h-1v-6.4h0.9l2.8,4.5v-4.5H41v6.4H40.2z"/>
		</g>
		<g>
			<path class="st1" d="M41.8,138c0-2,0.7-3.3,2.6-3.3c0.6,0,1.3,0.1,1.8,0.3v1c-0.5-0.2-1.1-0.4-1.7-0.4c-1.3,0-1.8,0.9-1.8,2.4
				s0.5,2.4,1.8,2.4c0.3,0,0.6,0,0.9-0.1v-1.7h-1.1v-0.9h2.1v3.2c-0.6,0.3-1.3,0.4-2,0.4C42.5,141.3,41.8,140,41.8,138z"/>
		</g>
		<g>
			<path class="st1" d="M52,139.6h-2l-0.5,1.6h-1l2-6.4h1l2,6.4h-1L52,139.6z M51,136l-0.8,2.8h1.6L51,136z"/>
		</g>
		<g>
			<path class="st1" d="M57.7,141.2l-2.8-4.5v4.5H54v-6.4h0.9l2.8,4.5v-4.5h1v6.4H57.7z"/>
		</g>
		<g>
			<path class="st1" d="M59.5,141.2v-6.4h1.9c2.1,0,2.7,1.4,2.7,3.2s-0.6,3.2-2.7,3.2H59.5z M60.5,140.3h1c1.3,0,1.7-0.9,1.7-2.3
				s-0.4-2.3-1.7-2.3h-1V140.3z"/>
		</g>
		<g>
			<path class="st1" d="M11.1,148.3c0,1.2-0.7,2-2.4,2c-0.6,0-1.3-0.1-1.9-0.4V149c0.6,0.3,1.2,0.4,1.8,0.4c1.1,0,1.5-0.5,1.5-1.1
				s-0.3-0.9-1.2-1c-1.6-0.2-2.2-0.6-2.2-1.8c0-0.9,0.5-1.8,2.3-1.8c0.6,0,1.2,0.1,1.7,0.3v1c-0.5-0.2-1.1-0.3-1.7-0.3
				c-1,0-1.3,0.4-1.3,1s0.4,0.8,1.2,0.9C10.3,146.7,11.1,147,11.1,148.3z"/>
		</g>
		<g>
			<path class="st1" d="M11.7,148.2v-4.4h1v4.3c-0.1,0.7,0.4,1.3,1.1,1.3c0.1,0,0.2,0,0.3,0c0.6,0.1,1.3-0.3,1.4-1
				c0-0.1,0-0.2,0-0.3v-4.3h0.9v4.4c0.1,1.1-0.8,2.1-1.9,2.1c-0.1,0-0.3,0-0.4,0c-1.1,0.2-2.1-0.6-2.3-1.7
				C11.7,148.5,11.7,148.3,11.7,148.2z"/>
		</g>
		<g>
			<path class="st1" d="M18.2,150.2h-1v-6.4h2c1.6,0,2.2,0.9,2.2,2s-0.6,2-2.2,2h-1V150.2z M18.2,146.9h1.1c0.6,0.1,1.2-0.4,1.2-1
				s-0.4-1.2-1-1.2c-0.1,0-0.1,0-0.2,0h-1.1V146.9z"/>
		</g>
		<g>
			<path class="st1" d="M23,150.2h-1v-6.4h2c1.6,0,2.2,0.9,2.2,2s-0.6,2-2.2,2h-1V150.2z M23,147h1.1c0.6,0.1,1.2-0.4,1.2-1
				s-0.4-1.2-1-1.2c-0.1,0-0.1,0-0.2,0H23V147z"/>
		</g>
		<g>
			<path class="st1" d="M26.8,147c0-1.8,0.4-3.3,2.5-3.3s2.5,1.5,2.5,3.3s-0.4,3.3-2.5,3.3S26.8,148.8,26.8,147z M27.8,147
				c0,1.5,0.3,2.4,1.5,2.4s1.5-0.9,1.5-2.4s-0.3-2.4-1.5-2.4S27.8,145.5,27.8,147L27.8,147z"/>
		</g>
		<g>
			<path class="st1" d="M33.6,150.2h-1v-6.4h2.1c1.7,0,2.2,0.7,2.2,1.9c0.1,0.7-0.3,1.4-1,1.7l1.3,2.8H36l-1.2-2.6h-1.3L33.6,150.2
				L33.6,150.2z M33.6,146.7h1.3c0.9,0,1-0.5,1-1s-0.1-1-1-1h-1.3V146.7z"/>
		</g>
		<g>
			<path class="st1" d="M39.7,144.7v5.5h-1v-5.5H37v-0.9h4.3v0.9H39.7z"/>
		</g>
		<g>
			<path class="st1" d="M46.6,150.2v-2.9H44v2.9h-1v-6.4h1v2.6h2.6v-2.6h1v6.4H46.6z"/>
		</g>
		<g>
			<path class="st1" d="M52.1,147.3h-2.7v2h2.9v0.9h-3.9v-6.4h3.9v0.9h-2.9v1.8h2.7V147.3z"/>
		</g>
		<g>
			<path class="st1" d="M56.3,148.6h-2l-0.5,1.6h-1l2-6.4h1l2,6.4h-1L56.3,148.6z M55.3,145l-0.8,2.8h1.6L55.3,145z"/>
		</g>
		<g>
			<path class="st1" d="M59.3,149.3h2.8v0.9h-3.7v-6.4h1L59.3,149.3L59.3,149.3z"/>
		</g>
		<g>
			<path class="st1" d="M64.1,144.7v5.5h-1v-5.5h-1.7v-0.9h4.3v0.9H64.1z"/>
		</g>
		<g>
			<path class="st1" d="M69.8,150.2v-2.9h-2.6v2.9h-1v-6.4h1v2.6h2.6v-2.6h1v6.4H69.8z"/>
		</g>
		<g>
			<path class="st1" d="M9.5,152.8h1.2l1.1,5l0.8-5h1l-1.2,6.4h-1.1l-1.1-5.3L9,159.3H7.8l-1.2-6.4h1l0.8,5L9.5,152.8z"/>
		</g>
		<g>
			<path class="st1" d="M14.1,156c0-1.8,0.4-3.3,2.5-3.3s2.5,1.5,2.5,3.3s-0.4,3.3-2.5,3.3S14.1,157.8,14.1,156z M15.1,156
				c0,1.5,0.3,2.4,1.5,2.4s1.5-0.9,1.5-2.4s-0.3-2.4-1.5-2.4S15,154.5,15.1,156L15.1,156z"/>
		</g>
		<g>
			<path class="st1" d="M20.7,159.2h-1v-6.4h2.1c1.6,0,2.2,0.7,2.2,1.9c0.1,0.7-0.3,1.4-1,1.7l1.3,2.8h-1.1l-1.1-2.6h-1.3v2.6H20.7z
				 M20.7,155.7H22c0.9,0,1-0.5,1-1s-0.1-1-1-1h-1.3V155.7z"/>
		</g>
		<g>
			<path class="st1" d="M26.4,156.4l-0.5,0.6v2.2h-1v-6.4h1v3l2.3-3h1.2l-2.3,2.8l2.6,3.6h-1.2L26.4,156.4z"/>
		</g>
		<g>
			<path class="st1" d="M33.5,156.4h-2.6v2.8H30v-6.4h3.8v0.9h-2.9v1.8h2.6V156.4z"/>
		</g>
		<g>
			<path class="st1" d="M34.3,156c0-1.8,0.4-3.3,2.5-3.3s2.5,1.5,2.5,3.3s-0.4,3.3-2.5,3.3S34.3,157.8,34.3,156z M35.3,156
				c0,1.5,0.3,2.4,1.5,2.4s1.5-0.9,1.5-2.4s-0.3-2.4-1.5-2.4S35.3,154.5,35.3,156L35.3,156z"/>
		</g>
		<g>
			<path class="st1" d="M40.9,159.2H40v-6.4h2c1.7,0,2.2,0.7,2.2,1.9c0.1,0.7-0.3,1.4-1,1.7l1.3,2.8h-1.1l-1.2-2.6h-1.3V159.2z
				 M40.9,155.7h1.3c0.9,0,1-0.5,1-1s-0.1-1-1-1h-1.3V155.7z"/>
		</g>
		<g>
			<path class="st1" d="M47.6,152.7c0.5,0,1,0.1,1.5,0.3v0.9c-0.4-0.2-0.9-0.3-1.4-0.3c-1.2,0-1.7,0.8-1.7,2.4s0.5,2.4,1.7,2.4
				c0.5,0,1-0.1,1.4-0.3v0.9c-0.5,0.2-1,0.3-1.5,0.3c-1.9,0-2.6-1.2-2.6-3.3S45.7,152.7,47.6,152.7z"/>
		</g>
		<g>
			<path class="st1" d="M53.5,156.3h-2.7v2h2.9v0.9h-3.9v-6.4h3.9v0.9h-2.9v1.8h2.7V156.3z"/>
		</g>
		<g>
			<path class="st1" d="M57.6,159.2v-6.4h1v6.4H57.6z"/>
		</g>
		<g>
			<path class="st1" d="M63.4,159.2l-2.8-4.5v4.5h-1v-6.4h0.9l2.8,4.5v-4.5h0.9v6.4H63.4z"/>
		</g>
		<g>
			<path class="st1" d="M6.9,168.2v-6.4h1.9c2.1,0,2.7,1.4,2.7,3.2s-0.6,3.2-2.7,3.2H6.9z M7.9,167.3h1c1.3,0,1.7-0.9,1.7-2.3
				s-0.4-2.3-1.7-2.3h-1L7.9,167.3z"/>
		</g>
		<g>
			<path class="st1" d="M15.9,165.3h-2.7v2h2.9v0.9h-3.9v-6.4h3.9v0.9h-2.9v1.8h2.7C15.9,164.5,15.9,165.3,15.9,165.3z"/>
		</g>
		<g>
			<path class="st1" d="M21.6,161.8l-2,6.4h-1l-2-6.4h1l1.5,5.2l1.5-5.2H21.6z"/>
		</g>
		<g>
			<path class="st1" d="M25.8,165.3h-2.6v2H26v0.9h-3.9v-6.4H26v0.9h-2.9v1.8h2.6L25.8,165.3L25.8,165.3z"/>
		</g>
		<g>
			<path class="st1" d="M27.8,167.3h2.8v0.9h-3.7v-6.4h1L27.8,167.3z"/>
		</g>
		<g>
			<path class="st1" d="M30.6,165c0-1.8,0.4-3.3,2.4-3.3s2.5,1.5,2.5,3.3s-0.4,3.3-2.5,3.3S30.6,166.8,30.6,165z M31.6,165
				c0,1.5,0.3,2.4,1.5,2.4c1.2,0,1.5-0.9,1.5-2.4s-0.3-2.4-1.5-2.4S31.6,163.5,31.6,165L31.6,165z"/>
		</g>
		<g>
			<path class="st1" d="M37.2,168.2h-1v-6.4h2c1.6,0,2.2,0.9,2.2,2s-0.6,2-2.2,2h-1V168.2z M37.2,164.9h1.1c0.6,0.1,1.2-0.4,1.2-1
				s-0.4-1.2-1-1.2c-0.1,0-0.1,0-0.2,0h-1.1V164.9z"/>
		</g>
		<g>
			<path class="st1" d="M41.2,168.2v-6.4h1v6.4H41.2z"/>
		</g>
		<g>
			<path class="st1" d="M47,168.2l-2.8-4.5v4.5h-0.9v-6.4h0.9l2.8,4.5v-4.5h1v6.4H47z"/>
		</g>
		<g>
			<path class="st1" d="M48.7,165c0-2,0.7-3.3,2.6-3.3c0.6,0,1.3,0.1,1.8,0.3v1c-0.5-0.2-1.1-0.4-1.7-0.4c-1.3,0-1.8,0.9-1.8,2.4
				s0.5,2.4,1.8,2.4c0.3,0,0.6,0,0.9-0.1v-1.7h-1.1v-0.9h2.1v3.2c-0.6,0.3-1.3,0.4-2,0.4C49.4,168.3,48.7,167,48.7,165z"/>
		</g>
		<g>
			<path class="st1" d="M9.4,170.7c0.5,0,1,0.1,1.5,0.3v0.9c-0.5-0.2-0.9-0.3-1.4-0.3c-1.2,0-1.7,0.8-1.7,2.4s0.5,2.4,1.7,2.4
				c0.5,0,1-0.1,1.4-0.3v0.9c-0.5,0.2-1,0.3-1.5,0.3c-1.9,0-2.6-1.2-2.6-3.3S7.5,170.7,9.4,170.7z"/>
		</g>
		<g>
			<path class="st1" d="M11.5,174c0-1.8,0.4-3.3,2.4-3.3s2.5,1.5,2.5,3.3s-0.5,3.3-2.5,3.3S11.5,175.8,11.5,174z M12.5,174
				c0,1.5,0.3,2.4,1.5,2.4s1.5-0.9,1.5-2.4s-0.3-2.4-1.5-2.4S12.5,172.5,12.5,174L12.5,174z"/>
		</g>
		<g>
			<path class="st1" d="M17.1,175.2v-4.4h1v4.3c-0.1,0.7,0.4,1.2,1,1.3c0.1,0,0.2,0,0.3,0c0.6,0.1,1.3-0.3,1.4-1c0-0.1,0-0.2,0-0.3
				v-4.3h1v4.4c0.1,1.1-0.8,2.1-1.9,2.1c-0.1,0-0.3,0-0.4,0c-1.1,0.2-2.1-0.5-2.3-1.6C17.1,175.5,17.1,175.4,17.1,175.2z"/>
		</g>
		<g>
			<path class="st1" d="M26.4,177.2l-2.8-4.5v4.5h-1v-6.4h0.9l2.8,4.5v-4.5h1v6.4H26.4z"/>
		</g>
		<g>
			<path class="st1" d="M30.4,171.7v5.5h-1v-5.5h-1.7v-0.9H32v0.9H30.4z"/>
		</g>
		<g>
			<path class="st1" d="M33.5,177.2h-1v-6.4h2.1c1.7,0,2.2,0.7,2.2,1.9c0.1,0.7-0.3,1.4-1,1.7l1.3,2.8H36l-1.2-2.6h-1.3V177.2z
				 M33.5,173.7h1.3c0.9,0,1-0.5,1-1s-0.1-1-1-1h-1.3V173.7z"/>
		</g>
		<g>
			<path class="st1" d="M37.9,177.2v-6.4h1v6.4H37.9z"/>
		</g>
		<g>
			<path class="st1" d="M43.5,174.3h-2.6v2h2.9v0.9h-3.9v-6.4h3.9v0.9h-2.9v1.8h2.7L43.5,174.3z"/>
		</g>
		<g>
			<path class="st1" d="M48.7,175.3c0,1.2-0.7,2-2.4,2c-0.6,0-1.3-0.1-1.9-0.4V176c0.6,0.3,1.2,0.4,1.8,0.4c1.1,0,1.5-0.5,1.5-1.1
				s-0.3-0.9-1.2-1c-1.6-0.2-2.2-0.6-2.2-1.8c0-0.9,0.5-1.8,2.3-1.8c0.6,0,1.2,0.1,1.7,0.3v1c-0.5-0.2-1.1-0.3-1.7-0.3
				c-1,0-1.3,0.4-1.3,1s0.4,0.8,1.2,0.9C47.9,173.7,48.7,174,48.7,175.3z"/>
		</g>
	</g>
	<g>
		<rect x="3.3" y="24" class="st1" width="94.8" height="94.8"/>
	</g>
	<g>
		<path class="st1" d="M98.2,20.7H3.3V3.3h94.8L98.2,20.7L98.2,20.7z M4.3,19.7h92.8V4.3H4.3V19.7z"/>
	</g>
	<g class="st2">
		<path class="st1" d="M6.7,6.9h4.5v1.4H9.9v8.8H8.1V8.3H6.7V6.9z"/>
	</g>
	<g class="st2">
		<path class="st1" d="M11.2,17.1l1.9-10.2H15l2,10.2h-1.8l-0.3-1.9h-1.8l-0.3,1.9H11.2z M13.3,13.9h1.4L14,9.8l0,0L13.3,13.9z"/>
	</g>
	<g class="st2">
		<path class="st1" d="M19.6,12.4v4.7h-1.7V6.9h2.5c1.7,0,2.4,0.9,2.4,2.3v1.3c0,1.1-0.4,1.7-1.4,2l1.6,4.6h-1.8L19.6,12.4z
			 M19.6,8.3v3.2h0.6c0.6,0,0.8-0.3,0.8-0.8V9.2c0-0.6-0.3-0.8-0.8-0.8L19.6,8.3L19.6,8.3z"/>
	</g>
	<g class="st2">
		<path class="st1" d="M26.4,11.7h2.4v5.4h-1.2V16c-0.2,0.8-0.7,1.2-1.6,1.2c-1.5,0-2.1-1.2-2.1-2.7V9.6c0-1.6,0.8-2.7,2.6-2.7
			c1.9,0,2.4,1.1,2.4,2.6v0.9h-1.6v-1c0-0.6-0.2-1-0.9-1c-0.6,0-0.9,0.4-0.9,1v5.5c0,0.6,0.3,1,0.8,1c0.6,0,0.8-0.3,0.8-1V13h-0.8
			v-1.3H26.4z"/>
	</g>
	<g class="st2">
		<path class="st1" d="M30.2,6.9h4.1v1.4h-2.4v2.9h1.7v1.4h-1.7v3.1h2.4v1.4h-4.1C30.2,17.1,30.2,6.9,30.2,6.9z"/>
	</g>
	<g class="st2">
		<path class="st1" d="M35.1,6.9h4.5v1.4h-1.4v8.8h-1.7V8.3h-1.4C35.1,8.3,35.1,6.9,35.1,6.9z"/>
	</g>
	<g class="st2">
		<path class="st1" d="M89.4,14.5V9.6c0-1.6,0.8-2.7,2.5-2.7c1.9,0,2.4,1.1,2.4,2.6v1.2h-1.6V9.2c0-0.6-0.2-1-0.8-1
			c-0.6,0-0.9,0.4-0.9,1v5.5c0,0.6,0.3,1,0.9,1s0.8-0.4,0.8-1v-1.9h1.6v1.8c0,1.5-0.6,2.5-2.4,2.5C90.2,17.2,89.4,16.1,89.4,14.5z"
			/>
	</g>
	<g class="st2">
		<path class="st1" d="M83.1,9.1V10c0,0.9-0.5,1.4-1.2,1.7c0.9,0.2,1.3,0.8,1.3,1.7v1.5c0,1.4-0.8,2.3-2.5,2.3s-2.4-1-2.4-2.5v-1.3
			h1.6v1.5c0,0.6,0.2,1,0.8,1c0.5,0,0.8-0.4,0.8-0.9v-1.7c0-0.5-0.2-0.8-0.8-0.8H80v-1.3h0.6c0.6,0,0.9-0.3,0.9-0.8V9.1
			c0-0.6-0.2-0.9-0.7-0.9S80,8.6,80,9.2v1h-1.6V9.3c0-1.5,0.6-2.6,2.4-2.6C82.4,6.8,83.1,7.7,83.1,9.1z"/>
	</g>
	<g>
		<polygon class="st1" points="85.4,9.9 85.4,14.1 87.6,12 		"/>
	</g>
	<g>
		<g>
			<g>
				<path class="st0" d="M47.3,53c0-0.4-0.4-0.8-0.8-0.7c-0.4,0-0.8,0-1.2,0s-0.9-0.1-1-0.6c-0.2-0.8-0.5-1.5-0.8-2.3
					c-0.2-0.4-0.1-0.9,0.3-1.2c0.4-0.3,0.7-0.5,1-0.9c0.3-0.2,0.4-0.7,0.2-1c-0.5-0.9-1.1-1.7-1.8-2.5c-0.3-0.3-0.8-0.4-1.1-0.1
					c-0.4,0.2-0.6,0.4-1,0.7s-0.8,0.4-1.1,0.1c-0.7-0.5-1.5-1.1-2-1.4c-0.4-0.3-0.5-0.7-0.4-1.1c0.1-0.5,0.2-0.8,0.3-1.3
					c0.1-0.4-0.1-0.8-0.5-1c-0.9-0.4-1.9-0.7-2.9-0.9c-0.4-0.1-0.8,0.1-1,0.6c-0.2,0.4-0.3,0.7-0.4,1.1s-0.4,0.8-0.9,0.8
					c-1,0-1.8,0-2.4,0c-0.4,0-0.8-0.2-1-0.6c-0.2-0.4-0.3-0.8-0.5-1.2c-0.1-0.4-0.5-0.6-0.9-0.5c-1,0.2-2,0.5-2.9,1
					c-0.4,0.1-0.6,0.6-0.5,1c0,0,0,0.1,0.1,0.1c0.1,0.4,0.2,0.7,0.3,1.2s0.1,0.9-0.3,1.1s-1.4,1-1.9,1.4c-0.3,0.3-0.8,0.3-1.2,0.1
					c-0.4-0.2-0.7-0.5-1.1-0.7c-0.3-0.2-0.8-0.2-1,0.1C18,45,17.5,45.8,17,46.8c-0.2,0.4-0.1,0.8,0.2,1.1l0,0c0.4,0.3,0.6,0.5,1,0.7
					s0.6,0.6,0.4,1.1S18,51.5,17.9,52c-0.1,0.4-0.5,0.7-0.9,0.8c-0.5,0-0.9,0.1-1.3,0.1c-0.4,0-0.7,0.3-0.8,0.7
					c-0.1,1-0.1,2.1,0.1,3.1c0,0.4,0.4,0.8,0.8,0.7H17c0.5,0,0.9,0.1,1,0.6c0.2,0.8,0.5,1.6,0.8,2.3c0.2,0.4,0.1,0.9-0.3,1.2
					s-0.6,0.5-1,0.8c-0.3,0.2-0.4,0.7-0.2,1c0.5,0.9,1.1,1.8,1.8,2.5c0.3,0.3,0.8,0.4,1.1,0.1c0.4-0.2,0.6-0.4,1-0.7
					s0.8-0.4,1.1-0.1s1.5,1.1,2,1.4c0.4,0.2,0.6,0.7,0.5,1.1s-0.2,0.8-0.3,1.3c-0.1,0.4,0.1,0.8,0.5,1c0.9,0.4,1.9,0.7,2.9,0.9
					c0.4,0.1,0.9-0.1,1-0.5l0,0c0.2-0.4,0.3-0.7,0.4-1.1s0.4-0.8,0.9-0.8c0.9,0,1.6,0,2.4,0c0.4,0,0.8,0.2,1,0.6s0.3,0.8,0.5,1.2
					c0.1,0.4,0.5,0.6,0.9,0.5c1-0.2,2-0.5,2.9-1c0.4-0.2,0.6-0.6,0.4-1c-0.1-0.4-0.2-0.7-0.3-1.2s-0.2-0.8,0.3-1.1s1.5-1.2,1.9-1.5
					c0.3-0.3,0.8-0.3,1.2-0.1c0.4,0.3,0.7,0.4,1.1,0.7c0.3,0.2,0.7,0.1,1-0.1c0.7-0.8,1.3-1.6,1.8-2.5c0.3-0.3,0.2-0.8-0.2-1.1l0,0
					c-0.3-0.3-0.6-0.5-0.9-0.7s-0.6-0.6-0.5-1.1s0.6-1.7,0.7-2.3c0.1-0.4,0.5-0.8,0.9-0.8c0.5,0,0.8-0.1,1.3-0.1
					c0.4,0,0.7-0.3,0.8-0.7C47.5,55.1,47.5,54,47.3,53z M31.1,65c-5.6,0-10-4.5-10-10.1s4.5-10,10.1-10s10,4.5,10,10.1l0,0
					C41.2,60.5,36.7,65,31.1,65z"/>
			</g>
			<g>
				<path class="st0" d="M23.7,52.1c0.2,0.2,0.4,0,0.5-0.1s0.1-0.3,0-0.4c0-0.1,0.1-0.2,0.2-0.2c0.2-0.1,0.5-0.2,0.7-0.4
					c0.4-0.1,0.9-0.1,1.4,0c0.3,0.2,0.7,0.1,0.9-0.2c0.2-0.2,0.4-0.4,0.6-0.5c0.1-0.1-0.3-0.5-0.7,0s-0.6,0.5-0.7,0.5
					s-1.2-0.3-1.3-0.6s0.3-0.6,0.7-0.8c0.6-0.1,1.1-0.2,1.7-0.2c0.5-0.1,1.2-0.4,1.6-0.2s-1.5,0.6-0.9,1c0.2,0.1,1.2-0.5,1.5-0.7
					c0.8-0.4-0.7-0.5-0.5-1.3s-1.8-0.6-2.8-0.5c-0.5,0.3-1,0.7-1.4,1.1c0.1,0,0.3,0.1,0.3,0.2c0,0.2,0,0.4-0.1,0.6
					c-0.3,0.3-0.6,0.4-1,0.4c-0.1,0-0.1,0-0.2-0.1c-0.2,0.2-0.3,0.4-0.5,0.6c0.2-0.1,0.4-0.2,0.7-0.2c0.2,0,0.5,0.1,0.5,0.2
					s-0.5,0.4-0.7,0.5c-0.3,0.3-0.8,0.9-1.1,0.9c-0.1,0-0.1,0-0.2,0c-0.1,0.2-0.1,0.4-0.2,0.6C23,52,23.4,52,23.7,52.1z"/>
			</g>
			<g>
				<path class="st0" d="M38.3,54.5c-0.3,0.2-0.6,0.3-0.9,0.4c-0.3,0.3-0.5,0.7-0.5,1.1c0.1,0.3,0.9,1.3,0.3,1.2
					c-0.6-0.3-1-0.7-1.4-1.2c-0.2-0.5-0.4-1-0.5-1.3s-0.4-0.4-0.7-0.3c-0.1,0-0.1,0.1-0.2,0.1c-0.3,0.2,0.1,0.4-0.1,0.9
					s-0.4,0.9-0.7,0.5c-0.9-1-2.1-0.5-2.3-1.6c-0.1-0.6-0.6-0.5-1-0.9s-0.7-0.5-0.8-0.3s1.4,1.3,1.5,1.6s-0.4,0.8-0.9,0.9
					s-0.6-0.2-1-0.7s-0.6-0.7-0.6-0.4c0,0.6,0.3,1.1,0.8,1.5c0.4,0.2,0.8,0.3,0.6,0.7s0,0.2-0.4,0.5c-0.3,0.2-0.5,0.6-0.5,1
					c0,0.6-0.1,0.6-0.2,1s-0.3,0.1-0.5,0.7c-0.1,0.4-0.3,0.8-0.5,1.1c-0.3,0.3-0.8,0.5-1.2,0.5c-0.4,0-0.5-1.1-0.5-1.7
					c0-0.2-0.3,0.4-0.4-0.8c-0.1-0.7-0.6,0.1-0.6-0.4s-0.3-0.4-0.5-0.7s-0.6,0-0.9,0.2s-0.2,0.2-0.7,0.1l0,0c1,2.5,3.1,4.3,5.7,5.1
					c-0.1-0.1-0.2-0.3-0.1-0.4c0.4-0.6,1-1,1.7-1c1.4-0.1,3.3,0.9,3.6,0.8s0.9-1,1.8-0.9c0.3,0,0.6,0,0.8,0.2
					c0.3-0.2,0.6-0.5,0.9-0.8c-0.1,0-0.2-0.1-0.3-0.1c-0.5-0.2-0.4,0.2-0.7,0.1s0.3-0.6-0.4-0.2s-0.5-0.1-0.8-0.9
					c-0.2-0.8,0.2-1.6,0.9-1.9c0.5-0.2,1.1-0.3,1.6-0.4c1.1-0.3,1.3-0.9,1.5-0.5l0.1,0.2c0.1,0.2,0.1,0.3,0.1,0.5
					c0.2-0.4,0.3-0.9,0.4-1.3c-0.2-0.1-1.2-1.5-0.4-2.3c0.1-0.2-0.3-0.6-0.2-0.6c0.3,0,0.7,0.2,0.7,0.5c0-0.5-0.1-0.9-0.2-1.4
					c0,0.1,0,0.2,0,0.3c-0.1,0.3-0.5,0.4-0.8,0.3c-0.1,0-0.2-0.1-0.2-0.2c-0.1-0.1-0.5-0.5-0.5,0.1S38.9,54.1,38.3,54.5z M30,58
					c-0.1,0.2-0.5,1.7-0.7,1.5s0.1-1.7,0.2-1.8C29.8,57,30.5,57,30,58z M33.6,56.2c-0.3,0.1-0.6,0.1-0.8-0.1
					c-0.2-0.2,0.1-0.5,0.3-0.5C33.3,55.7,33.8,56.1,33.6,56.2L33.6,56.2z M37.3,55.9c-0.1-0.2,0.1-0.3,0.3-0.3S38,56,38,56.2
					s-0.4,0.1-0.5,0.1S37.3,56.1,37.3,55.9L37.3,55.9z M38.5,57.1c-0.3,0.1-0.6,0.1-0.8-0.1c-0.2-0.2,0.2-0.5,0.3-0.5
					C38.2,56.5,38.6,56.9,38.5,57.1L38.5,57.1z"/>
			</g>
			<g>
				<path class="st0" d="M23.4,53c0.5,0.1,1,0.2,1.5,0.4s1.3,0.6,1.8,0.5s0.6-0.3,0.6-0.6s-0.3-0.4-0.7-0.2
					c-0.1,0.1-0.4-0.5-0.6-0.5s0.3,0.7,0.1,0.8s-0.5-0.7-0.6-0.8s-0.3-0.4-0.6-0.2C24.4,52.9,23.5,52.9,23.4,53
					c-0.1,0-0.1,0.1-0.2,0.1c-0.3,0.1-0.5-0.2-0.5-0.5c-0.2,0.5-0.3,1-0.3,1.5c0,0,0,0,0-0.1c0.3-0.5,0.4-0.6,0.4-0.7l0.4-0.1
					L23.4,53z"/>
			</g>
		</g>
		<g>
			<g>
				<path class="st0" d="M71.3,38.3c-3.3,0-6,2.7-6,6s2.7,6,6,6s6-2.7,6-6S74.6,38.3,71.3,38.3z"/>
			</g>
			<g>
				<path class="st0" d="M71.4,37.1c2,0.1,3.8,0.9,5.2,2.3l2.5-2.7c-2.1-2-4.8-3.2-7.7-3.3c-3,0.1-5.9,1.3-8,3.5l3,2.3
					C67.8,38,69.6,37.2,71.4,37.1z"/>
			</g>
			<g>
				<path class="st0" d="M88.3,73.9l-5-16.2c0,0-1.8-4.7-5.7-4.7H65c-3.9,0-5.7,4.7-5.7,4.7l-5,16.2c0,0-0.9,3,1.6,3.7
					s3.2-2.2,3.2-2.2l4-13.5c0,0,0.2-1,1-0.8c0.8,0.2,0.5,1.3,0.5,1.3l-7,25.3h6.5v18.1c0.1,1.7,1.6,3,3.3,2.9
					c1.6-0.1,2.8-1.4,2.9-2.9v-18h1.8v18.1c0,1.7,1.4,3.1,3.1,3.1s3.1-1.4,3.1-3.1V87.8h6.5l-7-25.3c0,0-0.3-1.1,0.5-1.3
					s1,0.8,1,0.8l4,13.5c0,0,0.8,2.9,3.3,2.2S88.3,73.9,88.3,73.9z M71.3,78.8c-0.6,0-1-0.4-1-1s0.4-1,1-1s1,0.4,1,1
					S71.8,78.8,71.3,78.8z M71.3,70.8c-0.6,0-1-0.4-1-1s0.4-1,1-1s1,0.4,1,1S71.8,70.8,71.3,70.8z M71.3,63.1c-0.6,0-1-0.4-1-1
					s0.4-1,1-1s1,0.4,1,1S71.8,63.1,71.3,63.1z"/>
			</g>
		</g>
		<g>
			<g>
				<path class="st0" d="M29.7,105.3c-0.6,0.4-1.2,0.6-1.8,0.8c-1.9,0.5-3.8,0.8-5.7,0.7c-0.9,0-1.9-0.1-2.8-0.2
					c-0.6-0.1-1.1-0.2-1.7-0.3c-0.3-0.1-0.6-0.1-0.8-0.2c-0.8-0.2-1.5-0.6-2.2-1c-0.2-0.2-0.5-0.4-0.6-0.7v0.7c0,0.2,0,1.1,0,1.1
					c0,0.5,0.3,0.9,0.7,1.2c1.3,0.9,2.9,1.5,4.5,1.7c1.1,0.2,2.2,0.2,3.2,0.2c1.6,0,3.1-0.2,4.7-0.5l0,0c0.8-0.2,1.6-0.5,2.4-0.9
					l0,0c0.8-0.5,1.2-1,1.2-1.6c0,0,0.1-1.7,0-1.8C30.4,104.7,30.1,105,29.7,105.3z"/>
			</g>
			<g>
				<path class="st0" d="M21.5,99.6c4.6,0,8.3-1.4,8.3-3.1c0,0,0.1-1.6,0.1-1.9c0-0.2-0.1-0.5-0.1-0.7c0.5-0.3,0.9-0.8,1-1.4
					c0,0,0.1-1.8,0-2.1c-0.2-2.1-4.4-3.2-8.4-3.2S14,88.4,14,90.6c0,0.1,0.1,1.9,0.1,1.9c0,0.1,0,0.3,0.1,0.4c-0.6,0.4-1,1-1,1.7
					c0,0.1,0.1,1.9,0.1,1.9c0,0.5,0.3,0.9,0.7,1.2c1.3,0.9,2.8,1.5,4.4,1.6C19.3,99.5,20.4,99.6,21.5,99.6z M22.4,88.1
					c4.4,0,7.6,1.3,7.6,2.5s-3.1,2.5-7.5,2.5S15,91.8,15,90.6S17.9,88.1,22.4,88.1z M13.9,94.6c0.1-0.4,0.3-0.7,0.7-0.9
					c0.2,0.2,0.5,0.5,0.8,0.6c2.2,1,4.5,1.4,6.9,1.4c2,0,4-0.3,5.9-0.9c0.3-0.1,0.5-0.2,0.7-0.3c0,0.1,0,0.1,0,0.2
					c0,1.2-3.1,2.5-7.5,2.5S13.9,95.8,13.9,94.6z"/>
			</g>
			<g>
				<path class="st0" d="M19,106c1.1,0.2,2.2,0.2,3.2,0.2c1.6,0,3.1-0.2,4.7-0.5l0,0c0.8-0.2,1.6-0.5,2.4-0.9l0,0
					c0.2-0.1,0.4-0.2,0.5-0.4c0.3-0.2,0.5-0.5,0.6-0.8c0.1-0.1,0.1-0.3,0.1-0.4c0,0,0-1.7,0-1.8c-0.3,0.3-1,1.4-4.3,2.1
					c-1.4,0.2-2.8,0.4-4.2,0.4c-2.7,0-5.4-0.5-6.7-1.3c-0.4-0.2-0.7-0.4-1-0.7c-0.2-0.2-0.4-0.4-0.5-0.6v0.8v1.2
					c0,0.5,0.3,0.9,0.7,1.2C15.8,105.3,17.4,105.9,19,106z"/>
			</g>
			<g>
				<path class="st0" d="M30.5,97.6c-0.1-0.1-0.1-0.1-0.2-0.2s-0.2-0.1-0.4-0.2c-0.1,0.2-0.2,0.3-0.4,0.5c0.1,0,0.2,0.1,0.3,0.2
					c0.2,0.1,0.4,0.4,0.4,0.6s-0.1,0.4-0.3,0.6l-0.3,0.2l-0.5,0.3c0,0-0.5,0.2-0.7,0.3c0,0-0.5,0.2-0.7,0.2c-0.1,0-0.7,0.2-1,0.2
					c-0.1,0-0.9,0.2-1.3,0.2l-1.3,0.1c-0.1,0-1.4,0.1-1.9,0.1c-0.9,0-1.8-0.1-2.7-0.2c-0.6-0.1-1.3-0.2-1.9-0.3
					c-0.7-0.2-1.4-0.4-2-0.6c-0.4-0.2-0.7-0.4-1-0.7c-0.3-0.3-0.5-0.6-0.7-0.9v1.1v1c0,0.5,0.3,0.9,0.7,1.2c1.3,0.9,2.8,1.5,4.4,1.7
					c1.1,0.2,2.2,0.2,3.2,0.2c1.6,0,3.1-0.2,4.7-0.5l0,0c0.8-0.2,1.6-0.5,2.4-0.9l0,0c0.2-0.1,0.4-0.2,0.5-0.4
					c0.3-0.2,0.5-0.5,0.6-0.8c0.1-0.1,0.1-0.3,0.1-0.4l0.1-1.8c0-0.1,0-0.3-0.1-0.4C30.6,97.8,30.6,97.7,30.5,97.6z"/>
			</g>
			<g>
				<path class="st0" d="M40.7,93.6c4.6,0,8.3-1.4,8.3-3.1c0,0,0.1-1.6,0.1-1.9c0-0.2-0.1-0.5-0.2-0.7c0.5-0.3,0.9-0.8,1-1.4
					c0,0,0.1-1.8,0-2.1c-0.2-2.1-4.4-3.2-8.4-3.2s-8.4,1.2-8.4,3.4c0,0.1,0.1,1.9,0.1,1.9c0,0.1,0,0.3,0.1,0.4c-0.6,0.4-1,1-1,1.7
					c0,0.1,0.1,1.9,0.1,1.9c0,0.5,0.3,0.9,0.7,1.2c1.3,0.9,2.8,1.5,4.4,1.7C38.5,93.5,39.6,93.6,40.7,93.6z M41.6,82.1
					c4.5,0,7.5,1.3,7.5,2.5s-3.1,2.5-7.5,2.5S34,85.8,34,84.6S37.1,82.1,41.6,82.1z M33.2,88.6c0-0.4,0.3-0.8,0.7-1
					c0.3,0.2,0.5,0.4,0.8,0.6c2.2,1,4.5,1.5,6.9,1.4c2,0,4-0.3,5.9-0.9c0.3-0.1,0.5-0.2,0.7-0.3c0,0.1,0,0.1,0,0.2
					c0,1.2-3.1,2.5-7.5,2.5S33.2,89.8,33.2,88.6z"/>
			</g>
			<g>
				<path class="st0" d="M49.9,91.9c0-0.1-0.1-0.2-0.2-0.3c-0.1-0.1-0.1-0.1-0.2-0.2c-0.1-0.1-0.2-0.1-0.3-0.2
					c-0.1,0.2-0.2,0.3-0.4,0.5c0.1,0,0.2,0.1,0.3,0.2c0.2,0.1,0.4,0.4,0.4,0.6s-0.1,0.4-0.3,0.6c-0.1,0.1-0.2,0.2-0.3,0.2l-0.5,0.3
					l-0.7,0.3L47,94.1l-1,0.2c-0.1,0-0.9,0.2-1.3,0.2c-0.1,0-1,0.1-1.3,0.1c-0.1,0-1.4,0.1-1.9,0.1c-0.9,0-1.8-0.1-2.7-0.2
					c-0.6-0.1-1.3-0.2-1.9-0.3c-0.7-0.2-1.4-0.4-2-0.6c-0.4-0.2-0.7-0.4-1-0.7c-0.3-0.3-0.5-0.5-0.7-0.9v1.1v1
					c0,0.5,0.3,0.9,0.7,1.2c1.3,0.9,2.8,1.5,4.4,1.7c1.1,0.2,2.2,0.3,3.2,0.2c1.6,0,3.1-0.2,4.7-0.5h0.1c0.8-0.2,1.6-0.5,2.3-0.9
					l0,0c0.2-0.1,0.4-0.2,0.5-0.4c0.3-0.2,0.5-0.5,0.6-0.8c0.1-0.1,0.1-0.3,0.1-0.4l0.1-1.8C50,92.2,50,92.1,49.9,91.9z"/>
			</g>
			<g>
				<path class="st0" d="M48.9,99.3c-0.6,0.4-1.2,0.6-1.8,0.8c-1.9,0.5-3.8,0.8-5.7,0.7c-0.9,0-1.9-0.1-2.8-0.2
					c-0.6-0.1-1.1-0.2-1.7-0.3c-0.3-0.1-0.6-0.2-0.8-0.2c-0.8-0.2-1.6-0.6-2.2-1.1c-0.2-0.2-0.5-0.4-0.6-0.7V99c0,0.2,0,1.1,0,1.1
					c0,0.5,0.3,0.9,0.7,1.2c1.3,0.9,2.9,1.5,4.5,1.7c1.1,0.2,2.2,0.2,3.2,0.2c1.6,0,3.1-0.2,4.7-0.5l0,0c0.8-0.2,1.6-0.5,2.4-0.9
					l0,0c0.8-0.5,1.2-1,1.2-1.6c0,0,0.1-1.7,0-1.8C49.7,98.7,49.3,99,48.9,99.3z"/>
			</g>
			<g>
				<path class="st0" d="M33.8,98.3c1.3,0.9,2.8,1.5,4.4,1.7c1.1,0.2,2.2,0.3,3.2,0.2c1.6,0,3.1-0.2,4.7-0.5h0.1
					c0.8-0.2,1.6-0.5,2.3-0.9l0,0c0.2-0.1,0.4-0.2,0.5-0.4c0.3-0.2,0.5-0.5,0.6-0.8c0.1-0.1,0.1-0.3,0.1-0.4c0,0,0-1.7,0-1.8
					c-0.3,0.4-1,1.4-4.3,2.1c-1.4,0.2-2.8,0.4-4.2,0.4c-2.7-0.1-5.4-0.5-6.7-1.3c-0.4-0.2-0.7-0.4-1-0.7c-0.2-0.2-0.4-0.4-0.5-0.6
					v0.8v1.2C33.2,97.7,33.4,98.1,33.8,98.3z"/>
			</g>
			<g>
				<path class="st0" d="M50,104.3c-0.3,0.4-0.6,0.7-1,1c-0.6,0.4-1.2,0.6-1.8,0.8c-1.9,0.5-3.8,0.8-5.7,0.7c-0.9,0-1.9-0.1-2.8-0.2
					c-0.6-0.1-1.1-0.2-1.7-0.3c-0.3-0.1-0.6-0.2-0.8-0.2c-0.8-0.2-1.5-0.6-2.2-1.1c-0.2-0.2-0.5-0.4-0.6-0.7v0.7c0,0.2,0,1.1,0,1.1
					c0,0.5,0.3,0.9,0.7,1.2c1.3,0.9,2.9,1.5,4.5,1.7c1.1,0.2,2.2,0.3,3.2,0.2c1.6,0,3.1-0.2,4.7-0.5l0,0c0.8-0.2,1.6-0.5,2.3-0.9
					l0,0c0.8-0.5,1.2-1,1.2-1.6C49.9,106.1,50,104.4,50,104.3z"/>
			</g>
			<g>
				<path class="st0" d="M38.3,106c1.1,0.2,2.2,0.2,3.2,0.2c1.6,0,3.1-0.2,4.7-0.5l0,0c0.8-0.2,1.6-0.5,2.4-0.9l0,0
					c0.2-0.1,0.4-0.2,0.5-0.4c0.3-0.2,0.5-0.5,0.6-0.8c0.1-0.1,0.1-0.3,0.1-0.4c0,0,0-1.7,0-1.8c-0.3,0.3-1,1.4-4.3,2.1
					c-1.4,0.2-2.8,0.4-4.2,0.4c-2.7-0.1-5.4-0.5-6.7-1.3c-0.4-0.2-0.7-0.4-1-0.7c-0.2-0.2-0.4-0.4-0.5-0.6v0.8v1.2
					c0,0.5,0.3,0.9,0.7,1.2C35.1,105.3,36.7,105.9,38.3,106z"/>
			</g>
		</g>
	</g>
	<g>
		<path class="st1" d="M98.2,181h-95v-58.8h95V181z M4.2,180h93v-56.8h-93C4.2,123.2,4.2,180,4.2,180z"/>
	</g>
</g>
</svg>
