<?xml version="1.0" encoding="utf-8"?>
<!-- Generator: Adobe Illustrator 22.0.1, SVG Export Plug-In . SVG Version: 6.00 Build 0)  -->
<svg version="1.1" id="Layer_1" xmlns="http://www.w3.org/2000/svg" xmlns:xlink="http://www.w3.org/1999/xlink" x="0px" y="0px"
	 viewBox="0 0 101.5 175.2" style="enable-background:new 0 0 101.5 175.2;" xml:space="preserve">
<style type="text/css">
	.st0{fill:#FFFFFF;}
	.st1{fill:#4C9F38;}
	.st2{enable-background:new    ;}
</style>
<title>TARGET 1 B copy 4</title>
<g id="WHITE_BG">
	<g>
		<rect y="0" class="st0" width="101.5" height="175.2"/>
	</g>
</g>
<g id="TARGETS">
	<g>
		<g>
			<path class="st1" d="M11.1,130.3c0,1.2-0.7,2-2.4,2c-0.6,0-1.3-0.1-1.9-0.4V131c0.6,0.3,1.2,0.4,1.8,0.4c1.1,0,1.5-0.5,1.5-1.1
				s-0.3-0.9-1.2-1c-1.6-0.2-2.2-0.6-2.2-1.8c0-0.9,0.5-1.8,2.3-1.8c0.6,0,1.2,0.1,1.7,0.3v1c-0.5-0.2-1.1-0.3-1.7-0.3
				c-1,0-1.3,0.4-1.3,1c0,0.7,0.4,0.8,1.2,0.9C10.3,128.7,11.1,129,11.1,130.3z"/>
		</g>
		<g>
			<path class="st1" d="M11.7,130.2v-4.4h1v4.3c-0.1,0.7,0.4,1.3,1.1,1.3c0.1,0,0.2,0,0.3,0c0.6,0.1,1.3-0.3,1.4-1
				c0-0.1,0-0.2,0-0.3v-4.3h0.9v4.4c0.1,1.1-0.8,2.1-1.9,2.1c-0.1,0-0.3,0-0.4,0c-1.1,0.2-2.1-0.6-2.3-1.7
				C11.7,130.5,11.7,130.3,11.7,130.2z"/>
		</g>
		<g>
			<path class="st1" d="M18.2,132.2h-1v-6.4h2c1.6,0,2.2,1,2.2,2c0,1-0.6,2-2.2,2h-1V132.2z M18.2,128.9h1.1c0.6,0.1,1.2-0.4,1.2-1
				s-0.4-1.2-1-1.2c-0.1,0-0.1,0-0.2,0h-1.1V128.9z"/>
		</g>
		<g>
			<path class="st1" d="M23,132.2h-1v-6.4h2c1.6,0,2.2,1,2.2,2c0,1-0.6,2-2.2,2H23V132.2z M23,129h1.1c0.6,0.1,1.2-0.4,1.2-1
				s-0.4-1.2-1-1.2c-0.1,0-0.1,0-0.2,0H23V129z"/>
		</g>
		<g>
			<path class="st1" d="M26.8,129c0-1.8,0.4-3.3,2.5-3.3s2.5,1.5,2.5,3.3s-0.4,3.3-2.5,3.3S26.8,130.8,26.8,129z M27.8,129
				c0,1.5,0.3,2.4,1.5,2.4s1.5-0.9,1.5-2.4s-0.3-2.4-1.5-2.4S27.8,127.5,27.8,129L27.8,129z"/>
		</g>
		<g>
			<path class="st1" d="M33.4,132.2h-1v-6.4h2.1c1.7,0,2.2,0.7,2.2,1.9c0.1,0.7-0.3,1.4-1,1.7l1.3,2.8h-1.1l-1.2-2.6h-1.3V132.2z
				 M33.4,128.7h1.3c0.9,0,1-0.5,1-1s-0.1-1-1-1h-1.3V128.7z"/>
		</g>
		<g>
			<path class="st1" d="M39.8,126.7v5.5h-1v-5.5h-1.6v-0.9h4.3v0.9H39.8z"/>
		</g>
		<g>
			<path class="st1" d="M44.2,132.2h-1v-6.4h2.1c1.6,0,2.2,0.7,2.2,1.9c0.1,0.7-0.3,1.4-1,1.7l1.3,2.8h-1.1l-1.2-2.6h-1.3V132.2z
				 M44.2,128.7h1.3c0.9,0,1-0.5,1-1s-0.1-1-1-1h-1.3V128.7z"/>
		</g>
		<g>
			<path class="st1" d="M52,129.3h-2.6v2h2.9v0.9h-3.9v-6.4h3.9v0.9h-2.9v1.8h2.7L52,129.3z"/>
		</g>
		<g>
			<path class="st1" d="M57.3,130.3c0,1.2-0.7,2-2.4,2c-0.6,0-1.3-0.1-1.9-0.4V131c0.6,0.3,1.2,0.4,1.8,0.4c1.2,0,1.5-0.5,1.5-1.1
				s-0.3-0.9-1.2-1c-1.5-0.2-2.2-0.6-2.2-1.8c0-0.9,0.5-1.8,2.3-1.8c0.6,0,1.2,0.1,1.7,0.3v1c-0.5-0.2-1.1-0.3-1.7-0.3
				c-1,0-1.3,0.4-1.3,1c0,0.7,0.4,0.8,1.2,0.9C56.6,128.7,57.3,129,57.3,130.3z"/>
		</g>
		<g>
			<path class="st1" d="M61.7,129.3h-2.7v2H62v0.9h-3.9v-6.4H62v0.9h-2.9v1.8h2.7V129.3z"/>
		</g>
		<g>
			<path class="st1" d="M66,130.6h-2l-0.5,1.6h-1l2-6.4h1l2,6.4h-1L66,130.6z M65,127l-0.8,2.8h1.6L65,127z"/>
		</g>
		<g>
			<path class="st1" d="M68.9,132.2H68v-6.4h2c1.7,0,2.2,0.7,2.2,1.9c0.1,0.7-0.3,1.4-1,1.7l1.3,2.8h-1.1l-1.2-2.6h-1.3V132.2z
				 M68.9,128.7h1.2c0.9,0,1-0.5,1-1s-0.1-1-1-1h-1.2V128.7z"/>
		</g>
		<g>
			<path class="st1" d="M75.5,125.7c0.5,0,1,0.1,1.5,0.3v0.9c-0.4-0.2-0.9-0.3-1.4-0.3c-1.2,0-1.7,0.8-1.7,2.4s0.5,2.4,1.7,2.4
				c0.5,0,1-0.1,1.4-0.3v0.9c-0.5,0.2-1,0.3-1.5,0.3c-1.9,0-2.6-1.2-2.6-3.3S73.6,125.7,75.5,125.7z"/>
		</g>
		<g>
			<path class="st1" d="M81.4,132.2v-2.9h-2.6v2.9h-1v-6.4h1v2.6h2.6v-2.6h1v6.4H81.4z"/>
		</g>
		<g>
			<path class="st1" d="M84.2,131.3l-0.7,2h-0.7l0.2-2H84.2z"/>
		</g>
		<g>
			<path class="st1" d="M6.9,141.2v-6.4h1.9c2.1,0,2.7,1.4,2.7,3.2s-0.6,3.2-2.7,3.2H6.9z M7.9,140.3h1c1.3,0,1.7-0.9,1.7-2.3
				s-0.4-2.3-1.7-2.3h-1L7.9,140.3z"/>
		</g>
		<g>
			<path class="st1" d="M15.9,138.3h-2.7v2h2.9v0.9h-3.9v-6.4h3.9v0.9h-2.9v1.8h2.7V138.3z"/>
		</g>
		<g>
			<path class="st1" d="M21.6,134.8l-2,6.4h-1l-2-6.4h1l1.5,5.2l1.5-5.2L21.6,134.8z"/>
		</g>
		<g>
			<path class="st1" d="M25.8,138.3h-2.6v2H26v0.9h-3.9v-6.4H26v0.9h-2.9v1.8h2.6V138.3z"/>
		</g>
		<g>
			<path class="st1" d="M27.8,140.3h2.8v0.9h-3.7v-6.4h1L27.8,140.3z"/>
		</g>
		<g>
			<path class="st1" d="M30.6,138c0-1.8,0.4-3.3,2.4-3.3s2.5,1.5,2.5,3.3s-0.4,3.3-2.5,3.3S30.6,139.8,30.6,138z M31.6,138
				c0,1.5,0.3,2.4,1.5,2.4s1.5-0.9,1.5-2.4s-0.3-2.4-1.5-2.4S31.6,136.5,31.6,138L31.6,138z"/>
		</g>
		<g>
			<path class="st1" d="M37.3,141.2h-1v-6.4h2c1.6,0,2.2,0.9,2.2,2s-0.6,2-2.2,2h-1.1L37.3,141.2z M37.3,137.9h1.1
				c0.6,0.1,1.2-0.4,1.2-1s-0.4-1.2-1-1.2c-0.1,0-0.1,0-0.2,0h-1.1V137.9z"/>
		</g>
		<g>
			<path class="st1" d="M44.6,140.3h-0.9l-1.6-3.9v4.8h-1v-6.4h1.2l1.7,4.3l1.7-4.3H47v6.4h-1v-4.8L44.6,140.3z"/>
		</g>
		<g>
			<path class="st1" d="M51.7,138.3H49v2h3v0.9h-3.9v-6.4H52v0.9h-3v1.8h2.7L51.7,138.3z"/>
		</g>
		<g>
			<path class="st1" d="M56.5,141.2l-2.8-4.5v4.5h-0.9v-6.4h0.9l2.8,4.5v-4.5h1v6.4H56.5z"/>
		</g>
		<g>
			<path class="st1" d="M60.5,135.7v5.5h-1v-5.5h-1.6v-0.9h4.3v0.9H60.5z"/>
		</g>
		<g>
			<path class="st1" d="M67.1,139.6h-2l-0.4,1.6h-1l2-6.4h1l2,6.4h-1L67.1,139.6z M66.1,136l-0.8,2.8h1.6L66.1,136z"/>
		</g>
		<g>
			<path class="st1" d="M72.8,141.2l-2.8-4.5v4.5h-1v-6.4H70l2.8,4.5v-4.5h0.9v6.4H72.8z"/>
		</g>
		<g>
			<path class="st1" d="M74.7,141.2v-6.4h1.9c2.1,0,2.7,1.4,2.7,3.2s-0.6,3.2-2.7,3.2H74.7z M75.6,140.3h1c1.3,0,1.7-0.9,1.7-2.3
				s-0.4-2.3-1.7-2.3h-1V140.3z"/>
		</g>
		<g>
			<path class="st1" d="M6.8,148.2v-4.4h1v4.3c-0.1,0.7,0.4,1.2,1,1.3c0.1,0,0.2,0,0.3,0c0.7,0.1,1.3-0.4,1.4-1c0-0.1,0-0.2,0-0.3
				v-4.3h1v4.4c0.1,1.1-0.8,2.1-1.9,2.1c-0.1,0-0.3,0-0.4,0c-1.1,0.2-2.1-0.5-2.4-1.5C6.8,148.6,6.8,148.4,6.8,148.2z"/>
		</g>
		<g>
			<path class="st1" d="M16.1,150.2l-2.8-4.5v4.5h-0.9v-6.4h0.9l2.8,4.5v-4.5h1v6.4H16.1z"/>
		</g>
		<g>
			<path class="st1" d="M18,150.2v-6.4h1v6.4H18z"/>
		</g>
		<g>
			<path class="st1" d="M24.6,143.8l-2,6.4h-1l-2-6.4h1l1.5,5.2l1.5-5.2L24.6,143.8z"/>
		</g>
		<g>
			<path class="st1" d="M28.8,147.3h-2.6v2H29v0.9h-3.8v-6.4H29v0.9h-2.9v1.8h2.6V147.3z"/>
		</g>
		<g>
			<path class="st1" d="M30.8,150.2h-1v-6.4H32c1.6,0,2.2,0.7,2.2,1.9c0.1,0.7-0.3,1.4-1,1.7l1.3,2.8h-1.2l-1.2-2.6h-1.3V150.2z
				 M30.8,146.7h1.3c0.9,0,1-0.5,1-1s-0.1-1-1-1h-1.3V146.7z"/>
		</g>
		<g>
			<path class="st1" d="M39.2,148.3c0,1.2-0.7,2-2.4,2c-0.6,0-1.3-0.1-1.9-0.4V149c0.6,0.3,1.2,0.4,1.8,0.4c1.1,0,1.5-0.5,1.5-1.1
				s-0.3-0.9-1.2-1c-1.6-0.2-2.2-0.6-2.2-1.8c0-0.9,0.5-1.8,2.3-1.8c0.6,0,1.2,0.1,1.7,0.3v1c-0.5-0.2-1.1-0.3-1.7-0.3
				c-1,0-1.3,0.4-1.3,1s0.4,0.8,1.2,0.9C38.5,146.7,39.2,147,39.2,148.3z"/>
		</g>
		<g>
			<path class="st1" d="M43,148.6h-2l-0.5,1.6h-1l2-6.4h1l2,6.4h-1L43,148.6z M42,145l-0.8,2.8h1.6L42,145z"/>
		</g>
		<g>
			<path class="st1" d="M46.1,149.3h2.8v0.9h-3.7v-6.4h1L46.1,149.3z"/>
		</g>
		<g>
			<path class="st1" d="M54.1,148.6H52l-0.5,1.6h-1l2-6.4h1l2,6.4h-1L54.1,148.6z M53,145l-0.8,2.8h1.6L53,145z"/>
		</g>
		<g>
			<path class="st1" d="M58.4,143.7c0.5,0,1,0.1,1.5,0.3v0.9c-0.5-0.2-0.9-0.3-1.4-0.3c-1.2,0-1.7,0.8-1.7,2.4s0.5,2.4,1.7,2.4
				c0.5,0,1-0.1,1.4-0.3v0.9c-0.5,0.2-1,0.3-1.5,0.3c-1.9,0-2.6-1.2-2.6-3.3S56.5,143.7,58.4,143.7z"/>
		</g>
		<g>
			<path class="st1" d="M63.1,143.7c0.5,0,1,0.1,1.5,0.3v0.9c-0.4-0.2-0.9-0.3-1.4-0.3c-1.2,0-1.7,0.8-1.7,2.4s0.5,2.4,1.7,2.4
				c0.5,0,1-0.1,1.4-0.3v0.9c-0.5,0.2-1,0.3-1.5,0.3c-1.9,0-2.6-1.2-2.6-3.3S61.2,143.7,63.1,143.7z"/>
		</g>
		<g>
			<path class="st1" d="M69.1,147.3h-2.6v2h2.9v0.9h-3.9v-6.4h3.9v0.9h-2.9v1.8h2.7L69.1,147.3z"/>
		</g>
		<g>
			<path class="st1" d="M74.2,148.3c0,1.2-0.7,2-2.4,2c-0.6,0-1.3-0.1-1.9-0.4V149c0.6,0.3,1.2,0.4,1.8,0.4c1.2,0,1.5-0.5,1.5-1.1
				s-0.3-0.9-1.2-1c-1.6-0.2-2.2-0.6-2.2-1.8c0-0.9,0.5-1.8,2.3-1.8c0.6,0,1.2,0.1,1.7,0.3v1c-0.5-0.2-1.1-0.3-1.7-0.3
				c-1,0-1.3,0.4-1.3,1s0.4,0.8,1.2,0.9C73.5,146.7,74.2,147,74.2,148.3z"/>
		</g>
		<g>
			<path class="st1" d="M79.1,148.3c0,1.2-0.7,2-2.4,2c-0.6,0-1.3-0.1-1.9-0.4V149c0.6,0.3,1.2,0.4,1.8,0.4c1.1,0,1.5-0.5,1.5-1.1
				s-0.3-0.9-1.2-1c-1.6-0.2-2.2-0.6-2.2-1.8c0-0.9,0.5-1.8,2.3-1.8c0.6,0,1.2,0.1,1.7,0.3v1c-0.5-0.2-1.1-0.3-1.7-0.3
				c-1,0-1.3,0.4-1.3,1s0.4,0.8,1.2,0.9C78.3,146.7,79.1,147,79.1,148.3z"/>
		</g>
		<g>
			<path class="st1" d="M83.3,144.7v5.5h-0.9v-5.5h-1.7v-0.9H85v0.9H83.3z"/>
		</g>
		<g>
			<path class="st1" d="M85.2,147c0-1.8,0.4-3.3,2.4-3.3s2.5,1.5,2.5,3.3s-0.4,3.3-2.5,3.3S85.2,148.8,85.2,147z M86.2,147
				c0,1.5,0.3,2.4,1.5,2.4s1.5-0.9,1.5-2.4s-0.3-2.4-1.5-2.4S86.2,145.5,86.2,147L86.2,147z"/>
		</g>
		<g>
			<path class="st1" d="M10.1,157.6h-2l-0.4,1.6h-1l2-6.4h1l2,6.4h-1L10.1,157.6z M9.1,154l-0.8,2.8h1.6L9.1,154z"/>
		</g>
		<g>
			<path class="st1" d="M15.6,156.4h-2.6v2.8h-1v-6.4h3.8v0.9h-2.8v1.8h2.6V156.4z"/>
		</g>
		<g>
			<path class="st1" d="M20.1,156.4h-2.6v2.8h-1v-6.4h3.8v0.9h-2.9v1.8h2.6V156.4z"/>
		</g>
		<g>
			<path class="st1" d="M20.8,156c0-1.8,0.4-3.3,2.5-3.3s2.5,1.5,2.5,3.3s-0.4,3.3-2.5,3.3S20.8,157.8,20.8,156z M21.8,156
				c0,1.5,0.3,2.4,1.5,2.4s1.5-0.9,1.5-2.4s-0.3-2.4-1.5-2.4S21.8,154.5,21.8,156L21.8,156z"/>
		</g>
		<g>
			<path class="st1" d="M27.4,159.2h-1v-6.4h2.1c1.6,0,2.2,0.7,2.2,1.9c0.1,0.7-0.3,1.4-1,1.7l1.3,2.8h-1.1l-1.2-2.6h-1.3V159.2z
				 M27.4,155.7h1.3c0.9,0,1-0.5,1-1s-0.1-1-1-1h-1.3V155.7z"/>
		</g>
		<g>
			<path class="st1" d="M31.7,159.2v-6.4h1.9c2.1,0,2.7,1.4,2.7,3.2s-0.6,3.2-2.7,3.2H31.7z M32.6,158.3h1c1.3,0,1.7-0.9,1.7-2.3
				s-0.4-2.3-1.7-2.3h-1V158.3z"/>
		</g>
		<g>
			<path class="st1" d="M39.9,157.6h-2l-0.5,1.6h-1l2-6.4h1l2,6.4h-1L39.9,157.6z M38.9,154l-0.8,2.8h1.6L38.9,154z"/>
		</g>
		<g>
			<path class="st1" d="M41.9,152.8h2.2c1.5,0,2,0.8,2,1.7c0,0.5-0.3,1-0.8,1.3c0.6,0.2,1.1,0.8,1,1.5c0,1.1-0.5,1.9-2.2,1.9H42
				L41.9,152.8z M44.1,153.7h-1.2v1.8h1.2c0.4,0.1,0.9-0.2,0.9-0.7c0-0.1,0-0.1,0-0.2C45.1,154.2,44.9,153.7,44.1,153.7z
				 M42.9,158.3h1.3c0.9,0,1.1-0.5,1.1-1s-0.3-1-1.1-1h-1.3V158.3z"/>
		</g>
		<g>
			<path class="st1" d="M48,158.3h2.8v0.9H47v-6.4h1V158.3z"/>
		</g>
		<g>
			<path class="st1" d="M54.9,156.3h-2.6v2h2.9v0.9h-3.9v-6.4h3.9v0.9h-2.9v1.8h2.7L54.9,156.3z"/>
		</g>
		<g>
			<path class="st1" d="M61.9,152.8l-2,6.4h-1l-2-6.4h1l1.5,5.2l1.5-5.2L61.9,152.8z"/>
		</g>
		<g>
			<path class="st1" d="M64.8,157.6h-2l-0.5,1.6h-1l2-6.4h1l2,6.4h-1L64.8,157.6z M63.8,154l-0.8,2.8h1.6L63.8,154z"/>
		</g>
		<g>
			<path class="st1" d="M69.2,152.7c0.5,0,1,0.1,1.5,0.3v0.9c-0.4-0.2-0.9-0.3-1.4-0.3c-1.2,0-1.7,0.8-1.7,2.4s0.5,2.4,1.7,2.4
				c0.5,0,1-0.1,1.4-0.3v0.9c-0.5,0.2-1,0.3-1.5,0.3c-1.9,0-2.6-1.2-2.6-3.3S67.3,152.7,69.2,152.7z"/>
		</g>
		<g>
			<path class="st1" d="M73.9,152.7c0.5,0,1,0.1,1.5,0.3v0.9c-0.5-0.2-0.9-0.3-1.4-0.3c-1.2,0-1.7,0.8-1.7,2.4s0.5,2.4,1.7,2.4
				c0.5,0,1-0.1,1.4-0.3v0.9c-0.5,0.2-1,0.3-1.5,0.3c-1.9,0-2.6-1.2-2.6-3.3S72,152.7,73.9,152.7z"/>
		</g>
		<g>
			<path class="st1" d="M76.3,159.2v-6.4h1v6.4H76.3z"/>
		</g>
		<g>
			<path class="st1" d="M82,159.2l-2.8-4.5v4.5h-1v-6.4h0.9l2.9,4.5v-4.5h0.9v6.4H82z"/>
		</g>
		<g>
			<path class="st1" d="M87.4,156.3h-2.6v2h2.9v0.9h-3.9v-6.4h3.9v0.9h-2.9v1.8h2.7L87.4,156.3z"/>
		</g>
		<g>
			<path class="st1" d="M92.6,157.3c0,1.2-0.7,2-2.4,2c-0.6,0-1.3-0.1-1.9-0.4V158c0.6,0.3,1.2,0.4,1.8,0.4c1.2,0,1.5-0.5,1.5-1.1
				s-0.3-0.9-1.2-1c-1.6-0.2-2.2-0.6-2.2-1.8c0-0.9,0.5-1.8,2.3-1.8c0.6,0,1.2,0.1,1.7,0.3v1c-0.5-0.2-1.1-0.3-1.7-0.3
				c-1,0-1.3,0.4-1.3,1s0.4,0.8,1.2,0.9C91.8,155.7,92.6,156,92.6,157.3z"/>
		</g>
		<g>
			<path class="st1" d="M10.1,166.6h-2l-0.4,1.6h-1l2-6.4h1l2,6.4h-1L10.1,166.6z M9.1,163l-0.8,2.8h1.6L9.1,163z"/>
		</g>
		<g>
			<path class="st1" d="M15.8,168.2l-2.8-4.5v4.5h-0.9v-6.4H13l2.8,4.5v-4.5h0.9v6.4H15.8z"/>
		</g>
		<g>
			<path class="st1" d="M17.6,168.2v-6.4h1.9c2.1,0,2.7,1.4,2.7,3.2s-0.6,3.2-2.7,3.2H17.6z M18.6,167.3h1c1.3,0,1.7-0.9,1.7-2.3
				s-0.4-2.3-1.7-2.3h-1V167.3z"/>
		</g>
		<g>
			<path class="st1" d="M27.8,167.3h-0.9l-1.6-3.9l0,4.8h-1v-6.4h1.2l1.7,4.3l1.7-4.3h1.2v6.4h-1v-4.8L27.8,167.3z"/>
		</g>
		<g>
			<path class="st1" d="M34.9,165.3h-2.7v2h2.9v0.9h-3.9v-6.4h3.9v0.9h-2.9v1.8h2.7V165.3z"/>
		</g>
		<g>
			<path class="st1" d="M35.9,168.2v-6.4h1.9c2.1,0,2.7,1.4,2.7,3.2s-0.6,3.2-2.7,3.2H35.9z M36.9,167.3h1c1.3,0,1.7-0.9,1.7-2.3
				s-0.4-2.3-1.7-2.3h-1V167.3z"/>
		</g>
		<g>
			<path class="st1" d="M41.3,168.2v-6.4h1v6.4H41.3z"/>
		</g>
		<g>
			<path class="st1" d="M45.8,161.7c0.5,0,1,0.1,1.5,0.3v0.9c-0.4-0.2-0.9-0.3-1.4-0.3c-1.2,0-1.7,0.8-1.7,2.4s0.5,2.4,1.7,2.4
				c0.5,0,1-0.1,1.4-0.3v0.9c-0.5,0.2-1,0.3-1.5,0.3c-1.9,0-2.6-1.2-2.6-3.3S43.9,161.7,45.8,161.7z"/>
		</g>
		<g>
			<path class="st1" d="M48.3,168.2v-6.4h1v6.4H48.3z"/>
		</g>
		<g>
			<path class="st1" d="M53.9,168.2l-2.8-4.5v4.5h-0.9v-6.4H51l2.8,4.5v-4.5h1v6.4H53.9z"/>
		</g>
		<g>
			<path class="st1" d="M59.3,165.3h-2.7v2h2.9v0.9h-3.9v-6.4h3.9v0.9h-2.9v1.8h2.7V165.3z"/>
		</g>
		<g>
			<path class="st1" d="M64.4,166.3c0,1.2-0.7,2-2.4,2c-0.6,0-1.3-0.1-1.9-0.4V167c0.6,0.3,1.2,0.4,1.8,0.4c1.2,0,1.5-0.5,1.5-1.1
				s-0.3-0.9-1.2-1c-1.5-0.2-2.2-0.6-2.2-1.8c0-0.9,0.5-1.8,2.3-1.8c0.6,0,1.2,0.1,1.7,0.3v1c-0.5-0.2-1.1-0.3-1.7-0.3
				c-1,0-1.3,0.4-1.3,1s0.4,0.8,1.2,0.9C63.7,164.7,64.4,165,64.4,166.3z"/>
		</g>
	</g>
	<g>
		<rect x="3.3" y="24" class="st1" width="94.8" height="94.8"/>
	</g>
	<g>
		<path class="st1" d="M98.2,20.7H3.3V3.3h94.8V20.7z M4.3,19.7h92.8V4.3H4.3L4.3,19.7z"/>
	</g>
	<g class="st2">
		<path class="st1" d="M6.7,6.9h4.5v1.4H9.9v8.8H8.1V8.3H6.7V6.9z"/>
	</g>
	<g class="st2">
		<path class="st1" d="M11.2,17.1l1.9-10.2h1.9L17,17.1h-1.8l-0.3-1.9h-1.8l-0.3,1.9H11.2z M13.3,13.9h1.4L14,9.8h0L13.3,13.9z"/>
	</g>
	<g class="st2">
		<path class="st1" d="M19.6,12.4v4.7h-1.7V6.9h2.5c1.7,0,2.4,0.9,2.4,2.3v1.3c0,1.1-0.4,1.7-1.4,2l1.6,4.6h-1.8L19.6,12.4z
			 M19.6,8.3v3.2h0.6c0.6,0,0.8-0.3,0.8-0.8V9.2c0-0.6-0.3-0.8-0.8-0.8H19.6z"/>
	</g>
	<g class="st2">
		<path class="st1" d="M26.4,11.7h2.4v5.4h-1.2V16c-0.2,0.8-0.7,1.2-1.6,1.2c-1.5,0-2.1-1.2-2.1-2.7V9.6c0-1.6,0.8-2.7,2.6-2.7
			c1.9,0,2.4,1.1,2.4,2.6v0.9h-1.6v-1c0-0.6-0.2-1-0.9-1c-0.6,0-0.9,0.4-0.9,1v5.5c0,0.6,0.3,1,0.8,1c0.6,0,0.8-0.3,0.8-1V13h-0.8
			V11.7z"/>
	</g>
	<g class="st2">
		<path class="st1" d="M30.2,6.9h4.1v1.4h-2.4v2.9h1.7v1.4h-1.7v3.1h2.4v1.4h-4.1V6.9z"/>
	</g>
	<g class="st2">
		<path class="st1" d="M35.1,6.9h4.5v1.4h-1.4v8.8h-1.7V8.3h-1.4V6.9z"/>
	</g>
	<g class="st2">
		<path class="st1" d="M89.4,6.9h2.5c1.7,0,2.3,0.8,2.3,2.2v1c0,0.9-0.3,1.4-1,1.6c0.9,0.2,1.3,0.8,1.3,1.7v1.3
			c0,1.4-0.6,2.2-2.4,2.2h-2.7V6.9z M91.1,11.2h0.6c0.6,0,0.8-0.3,0.8-0.8V9.2c0-0.6-0.3-0.8-0.8-0.8h-0.6V11.2z M91.1,12.5v3.2h0.8
			c0.6,0,0.8-0.3,0.8-0.8v-1.5c0-0.5-0.3-0.8-0.9-0.8H91.1z"/>
	</g>
	<g class="st2">
		<path class="st1" d="M83.1,9.1V10c0,0.9-0.5,1.4-1.2,1.7c0.9,0.2,1.3,0.8,1.3,1.7v1.5c0,1.4-0.8,2.3-2.5,2.3c-1.7,0-2.4-1-2.4-2.5
			v-1.3h1.6v1.5c0,0.6,0.2,1,0.8,1c0.5,0,0.8-0.4,0.8-0.9v-1.7c0-0.5-0.2-0.8-0.8-0.8h-0.7v-1.3h0.6c0.6,0,0.9-0.3,0.9-0.8V9.1
			c0-0.6-0.2-0.9-0.7-0.9S80,8.6,80,9.2v1h-1.6V9.3c0-1.5,0.6-2.6,2.4-2.6C82.4,6.8,83.1,7.7,83.1,9.1z"/>
	</g>
	<g>
		<polygon class="st1" points="85.4,9.9 85.4,14.1 87.6,12 		"/>
	</g>
	<g>
		<path class="st1" d="M98.2,171.9h-95v-49.7h95V171.9z M4.2,170.9h93v-47.7h-93V170.9z"/>
	</g>
	<g>
		<g>
			<path class="st0" d="M27.7,47.3c0,0.8,0.7,1.5,1.5,1.5h36.2c0.8,0,1.5-0.7,1.5-1.5v-2.6h2.6c0.3,0,0.6-0.2,0.6-0.5c0,0,0,0,0,0
				v-1.3h7.3c0.1,0,0.3-0.1,0.3-0.2c0-0.1-0.1-0.3-0.2-0.3c0,0,0,0,0,0h-7.3v-1.4c0-0.3-0.2-0.5-0.6-0.5l0,0h-2.7v-2.6
				c0-0.4-0.2-0.7-0.4-1c-0.3-0.3-0.7-0.4-1.1-0.4H29.2c-0.8,0-1.5,0.7-1.5,1.5l0,0v2.9h-6.6v-3.5c0-0.3-0.2-0.5-0.5-0.5
				c0,0,0,0,0,0h-0.7c-0.3,0-0.6,0.2-0.6,0.5c0,0,0,0,0,0v10.5c0,0.3,0.2,0.5,0.5,0.5h0.7c0.3,0,0.6-0.2,0.6-0.5c0,0,0,0,0,0v-3.7
				h6.6V47.3z M60.5,38c0-0.3,0.2-0.5,0.5-0.5c0,0,0,0,0,0c0.3,0,0.5,0.2,0.5,0.5c0,0,0,0,0,0v3c0,0.3-0.2,0.5-0.5,0.5h0
				c-0.3,0-0.5-0.2-0.5-0.5c0,0,0,0,0,0V38z M55.7,38c0-0.3,0.2-0.5,0.5-0.5s0.5,0.2,0.5,0.5v3c0,0.3-0.2,0.5-0.5,0.5
				c-0.3,0-0.5-0.2-0.5-0.5v0L55.7,38z M50.7,38c0-0.3,0.2-0.5,0.5-0.5c0,0,0,0,0,0c0.3,0,0.5,0.2,0.5,0.5v0v3
				c0,0.3-0.2,0.5-0.5,0.5h0c-0.3,0-0.5-0.2-0.5-0.5c0,0,0,0,0,0L50.7,38z M45.7,38c0-0.3,0.2-0.5,0.5-0.5s0.5,0.2,0.5,0.5v3
				c0,0.3-0.2,0.5-0.5,0.5s-0.5-0.2-0.5-0.5V38z M40.7,38c0-0.3,0.2-0.5,0.5-0.5s0.5,0.2,0.5,0.5v3c0,0.3-0.2,0.5-0.4,0.5
				c0,0,0,0,0,0c-0.3,0-0.5-0.2-0.5-0.5c0,0,0,0,0,0L40.7,38z M28.4,37.9c0-0.2,0.1-0.4,0.2-0.5c0.1-0.1,0.3-0.2,0.5-0.2h7.3
				c0,1.9,0,9.2,0,10.9h-7.2c-0.4,0-0.7-0.3-0.7-0.7c0,0,0,0,0,0L28.4,37.9z"/>
		</g>
		<g>
			<g>
				<path class="st0" d="M85.5,65l-11.4,5c1.6,3,5.4,4.2,8.4,2.6C85.3,71.2,86.5,67.9,85.5,65z"/>
			</g>
			<g>
				<path class="st0" d="M77.1,61.3c-3,1.3-4.5,4.7-3.4,7.8l11.4-5C83.6,61.2,80.1,60,77.1,61.3z"/>
			</g>
		</g>
		<g>
			<g>
				<path class="st0" d="M62.6,82.6c2.5,2,6.2,1.8,8.4-0.6l-9.7-7.8C59.5,76.9,60,80.5,62.6,82.6z"/>
			</g>
			<g>
				<path class="st0" d="M70.4,72.9c-2.5-2.1-6.2-1.8-8.5,0.6l9.7,7.8C73.5,78.6,73,74.9,70.4,72.9z"/>
			</g>
		</g>
		<g>
			<g>
				<path class="st0" d="M83.9,78.8l-7.8,9.7c2.9,1.9,6.7,1.2,8.7-1.7C86.5,84.3,86.1,80.9,83.9,78.8z"/>
			</g>
			<g>
				<path class="st0" d="M74.8,79.4c-2.1,2.5-1.8,6.2,0.6,8.5l7.8-9.7C80.5,76.4,76.8,76.9,74.8,79.4z"/>
			</g>
		</g>
		<g>
			<g>
				<polygon class="st0" points="15.6,98.7 17.9,106.5 20.1,98.7 				"/>
			</g>
			<g>
				<path class="st0" d="M20.1,63c0.1-1.2-0.8-2.3-2.1-2.4s-2.3,0.8-2.4,2.1c0,0.1,0,0.2,0,0.3v34.6h4.4V63z"/>
			</g>
		</g>
		<g>
			<g>
				<path class="st0" d="M36.5,63.9h11.3c0.5,0,0.8-0.4,0.8-0.8v-1c0-0.5-0.4-0.8-0.8-0.8H36.5c-0.5,0-0.8,0.4-0.8,0.8v1
					C35.6,63.5,36,63.9,36.5,63.9z"/>
			</g>
			<g>
				<path class="st0" d="M59.3,102.6l-13-22.1V63.9h-1v16.9l4.1,7c-1.1,1.4-4.9,5.9-7.6,6.4c-3.2,0.6-8.4-0.6-10-1.1L39,80.8V63.9
					h-1v16.6l-13,22.1c-0.4,0.7-0.4,1.7,0,2.4c0.4,0.8,1.2,1.2,2.1,1.2h30.1c1.3,0,2.4-1.1,2.4-2.4C59.6,103.4,59.5,103,59.3,102.6z
					 M50,94.3c0.7,0,1.3,0.6,1.3,1.4S50.7,97,50,97c-0.7,0-1.3-0.6-1.3-1.4c0,0,0,0,0,0C48.6,94.9,49.2,94.3,50,94.3
					C50,94.3,50,94.3,50,94.3z M46.4,97.9c1.2,0,2.2,1,2.2,2.2c0,1.2-1,2.2-2.2,2.2c-1.2,0-2.2-1-2.2-2.2l0,0
					C44.2,98.9,45.2,97.9,46.4,97.9L46.4,97.9z"/>
			</g>
		</g>
	</g>
</g>
</svg>
