<?xml version="1.0" encoding="utf-8"?>
<!-- Generator: Adobe Illustrator 22.0.1, SVG Export Plug-In . SVG Version: 6.00 Build 0)  -->
<svg version="1.1" id="Layer_1" xmlns="http://www.w3.org/2000/svg" xmlns:xlink="http://www.w3.org/1999/xlink" x="0px" y="0px"
	 viewBox="0 0 101.5 148.1" style="enable-background:new 0 0 101.5 148.1;" xml:space="preserve">
<style type="text/css">
	.st0{fill:#FFFFFF;}
	.st1{fill:#4C9F38;}
	.st2{enable-background:new    ;}
</style>
<title>TARGET 1 B copy</title>
<g id="WHITE_BG">
	<g>
		<rect y="0" class="st0" width="101.5" height="148.1"/>
	</g>
</g>
<g id="TARGETS">
	<g>
		<g>
			<path class="st1" d="M10.1,130.6h-2l-0.4,1.6h-1l2-6.4h1l2,6.4h-1L10.1,130.6z M9.1,127l-0.8,2.8h1.6L9.1,127z"/>
		</g>
		<g>
			<path class="st1" d="M14.5,125.7c0.5,0,1,0.1,1.5,0.3v0.9c-0.4-0.2-0.9-0.3-1.4-0.3c-1.2,0-1.7,0.8-1.7,2.4s0.5,2.4,1.7,2.4
				c0.5,0,1-0.1,1.4-0.3v0.9c-0.5,0.2-1,0.3-1.5,0.3c-1.9,0-2.6-1.2-2.6-3.3S12.6,125.7,14.5,125.7z"/>
		</g>
		<g>
			<path class="st1" d="M20.3,132.2v-2.9h-2.6v2.9h-1v-6.4h1v2.6h2.6v-2.6h1v6.4H20.3z"/>
		</g>
		<g>
			<path class="st1" d="M22.3,132.2v-6.4h1v6.4H22.3z"/>
		</g>
		<g>
			<path class="st1" d="M27.9,129.3h-2.6v2h2.9v0.9h-3.9v-6.4h3.9v0.9h-2.9v1.8h2.6V129.3z"/>
		</g>
		<g>
			<path class="st1" d="M33.6,125.8l-2,6.4h-1l-2-6.4h1l1.5,5.2l1.5-5.2L33.6,125.8z"/>
		</g>
		<g>
			<path class="st1" d="M37.8,129.3h-2.6v2H38v0.9h-3.8v-6.4H38v0.9h-2.9v1.8h2.7L37.8,129.3z"/>
		</g>
		<g>
			<path class="st1" d="M40.2,130.2v-4.4h1v4.3c0,0.8,0.6,1.4,1.4,1.4s1.4-0.6,1.4-1.4v-4.3h1v4.4c0,1.1-0.8,2.1-2,2.1
				c-0.1,0-0.2,0-0.3,0c-1.1,0.2-2.1-0.5-2.4-1.6C40.2,130.6,40.2,130.4,40.2,130.2z"/>
		</g>
		<g>
			<path class="st1" d="M49.4,132.2l-2.8-4.5v4.5h-0.9v-6.4h0.9l2.8,4.5v-4.5h0.9v6.4H49.4z"/>
		</g>
		<g>
			<path class="st1" d="M51.4,132.2v-6.4h1v6.4H51.4z"/>
		</g>
		<g>
			<path class="st1" d="M58,125.8l-2,6.4h-1l-2-6.4h1l1.5,5.2l1.5-5.2H58z"/>
		</g>
		<g>
			<path class="st1" d="M62.1,129.3h-2.7v2h2.9v0.9h-3.9v-6.4h3.9v0.9h-2.9v1.8h2.7V129.3z"/>
		</g>
		<g>
			<path class="st1" d="M64.2,132.2h-1v-6.4h2.1c1.7,0,2.2,0.7,2.2,1.9c0.1,0.7-0.3,1.4-1,1.7l1.3,2.8h-1.2l-1.2-2.6h-1.3V132.2z
				 M64.2,128.7h1.3c0.9,0,1-0.5,1-1s-0.1-1-1-1h-1.3V128.7z"/>
		</g>
		<g>
			<path class="st1" d="M72.5,130.3c0,1.2-0.7,2-2.4,2c-0.6,0-1.3-0.1-1.9-0.4V131c0.6,0.3,1.2,0.4,1.8,0.4c1.1,0,1.5-0.5,1.5-1.1
				s-0.3-0.9-1.2-1c-1.6-0.2-2.2-0.6-2.2-1.8c0-0.9,0.5-1.8,2.3-1.8c0.6,0,1.2,0.1,1.7,0.3v1c-0.5-0.2-1.1-0.3-1.7-0.3
				c-1,0-1.3,0.4-1.3,1c0,0.7,0.4,0.8,1.2,0.9C71.7,128.7,72.5,129,72.5,130.3z"/>
		</g>
		<g>
			<path class="st1" d="M76.2,130.6h-2l-0.4,1.6h-1l2-6.4h1l2,6.4h-1L76.2,130.6z M75.2,127l-0.8,2.8H76L75.2,127z"/>
		</g>
		<g>
			<path class="st1" d="M79.2,131.3h2.8v0.9h-3.7v-6.4h1L79.2,131.3z"/>
		</g>
		<g>
			<path class="st1" d="M10.4,141.2v-2.9H7.8v2.9h-1v-6.4h1v2.6h2.6v-2.6h1v6.4H10.4z"/>
		</g>
		<g>
			<path class="st1" d="M15.9,138.3h-2.7v2h2.9v0.9h-3.9v-6.4h3.9v0.9h-2.9v1.8h2.7V138.3z"/>
		</g>
		<g>
			<path class="st1" d="M20.1,139.6h-2l-0.5,1.6h-1l2-6.4h1l2,6.4h-1L20.1,139.6z M19.1,136l-0.8,2.8H20L19.1,136z"/>
		</g>
		<g>
			<path class="st1" d="M23.1,140.3h2.8v0.9h-3.7v-6.4h1L23.1,140.3z"/>
		</g>
		<g>
			<path class="st1" d="M27.8,135.7v5.5h-1v-5.5h-1.7v-0.9h4.3v0.9H27.8z"/>
		</g>
		<g>
			<path class="st1" d="M33.5,141.2v-2.9H31v2.9h-1v-6.4h1v2.6h2.6v-2.6h1v6.4H33.5z"/>
		</g>
		<g>
			<path class="st1" d="M39.3,134.7c0.5,0,1,0.1,1.5,0.3v0.9c-0.5-0.2-0.9-0.3-1.4-0.3c-1.2,0-1.7,0.8-1.7,2.4s0.5,2.4,1.7,2.4
				c0.5,0,1-0.1,1.4-0.3v0.9c-0.5,0.2-1,0.3-1.5,0.3c-1.9,0-2.6-1.2-2.6-3.3S37.5,134.7,39.3,134.7z"/>
		</g>
		<g>
			<path class="st1" d="M41.5,138c0-1.8,0.4-3.3,2.5-3.3s2.5,1.5,2.5,3.3s-0.4,3.3-2.5,3.3S41.5,139.8,41.5,138z M42.5,138
				c0,1.5,0.3,2.4,1.5,2.4s1.5-0.9,1.5-2.4s-0.3-2.4-1.5-2.4S42.4,136.5,42.5,138L42.5,138z"/>
		</g>
		<g>
			<path class="st1" d="M51.6,134.8l-2,6.4h-1l-2-6.4h1l1.5,5.2l1.5-5.2L51.6,134.8z"/>
		</g>
		<g>
			<path class="st1" d="M55.7,138.3H53v2h3v0.9h-3.9v-6.4H56v0.9h-3v1.8h2.7L55.7,138.3z"/>
		</g>
		<g>
			<path class="st1" d="M57.8,141.2h-1v-6.4h2.1c1.7,0,2.2,0.7,2.2,1.9c0.1,0.7-0.3,1.4-1,1.7l1.3,2.8h-1.1l-1.2-2.6h-1.3V141.2z
				 M57.8,137.7H59c0.9,0,1-0.5,1-1s-0.1-1-1-1h-1.2V137.7z"/>
		</g>
		<g>
			<path class="st1" d="M65,139.6h-2l-0.5,1.6h-1l2-6.4h1l2,6.4h-1L65,139.6z M64,136l-0.8,2.8h1.6L64,136z"/>
		</g>
		<g>
			<path class="st1" d="M66.8,138c0-2,0.7-3.3,2.6-3.3c0.6,0,1.3,0.1,1.8,0.3v1c-0.5-0.2-1.1-0.4-1.7-0.4c-1.3,0-1.8,0.9-1.8,2.4
				s0.5,2.4,1.8,2.4c0.3,0,0.6,0,0.9-0.1v-1.7h-1.1v-0.9h2.1v3.2c-0.6,0.3-1.3,0.4-2,0.4C67.4,141.3,66.8,140,66.8,138z"/>
		</g>
		<g>
			<path class="st1" d="M75.9,138.3h-2.7v2h2.9v0.9h-3.9v-6.4h3.9v0.9h-2.9v1.8h2.7V138.3z"/>
		</g>
	</g>
	<g>
		<rect x="3.3" y="24" class="st1" width="94.8" height="94.8"/>
	</g>
	<g>
		<path class="st1" d="M98.2,20.7H3.3V3.3h94.8V20.7z M4.3,19.7h92.8V4.3H4.3L4.3,19.7z"/>
	</g>
	<g class="st2">
		<path class="st1" d="M83.4,9.2V10c0,0.9-0.5,1.4-1.2,1.7c0.9,0.2,1.3,0.8,1.3,1.7v1.5c0,1.4-0.8,2.3-2.5,2.3c-1.7,0-2.4-1-2.4-2.5
			v-1.3h1.6v1.5c0,0.6,0.2,1,0.8,1c0.5,0,0.8-0.4,0.8-0.9v-1.7c0-0.5-0.2-0.8-0.8-0.8h-0.7v-1.3h0.6c0.6,0,0.9-0.3,0.9-0.8V9.2
			c0-0.6-0.2-0.9-0.7-0.9s-0.7,0.4-0.7,1v1h-1.6V9.4c0-1.5,0.6-2.6,2.4-2.6C82.7,6.8,83.4,7.7,83.4,9.2z"/>
	</g>
	<g class="st2">
	</g>
	<g class="st2">
		<path class="st1" d="M86.3,10.8c0.7,0,1.2,0.6,1.2,1.2c0,0.7-0.6,1.2-1.2,1.2c-0.7,0-1.2-0.6-1.2-1.2
			C85.1,11.4,85.6,10.8,86.3,10.8z"/>
	</g>
	<g class="st2">
		<path class="st1" d="M89.2,14.6v-1.1c0-1,0.3-1.7,1.1-2c-0.7-0.3-1-0.9-1-1.8V9.3c0-1.6,0.8-2.4,2.4-2.4c1.6,0,2.4,0.9,2.4,2.4
			v0.4c0,0.8-0.3,1.4-1,1.8c0.8,0.4,1.1,1.1,1.1,2v1.1c0,1.5-0.7,2.6-2.5,2.6C90,17.2,89.2,16.2,89.2,14.6z M92.6,14.8v-1.6
			c0-0.6-0.2-1-0.8-1c-0.6,0-0.8,0.4-0.8,1v1.6c0,0.6,0.2,1,0.8,1C92.4,15.8,92.6,15.4,92.6,14.8z M92.6,9.9V9.2c0-0.6-0.2-1-0.8-1
			c-0.6,0-0.8,0.4-0.8,1v0.7c0,0.6,0.2,1,0.8,1C92.4,10.8,92.6,10.5,92.6,9.9z"/>
	</g>
	<g class="st2">
		<path class="st1" d="M6.7,6.9h4.5v1.4H9.9v8.8H8.1V8.3H6.7V6.9z"/>
	</g>
	<g class="st2">
		<path class="st1" d="M11.2,17.1l1.9-10.2h1.9L17,17.1h-1.8l-0.3-1.9h-1.8l-0.3,1.9H11.2z M13.3,13.9h1.4L14,9.8h0L13.3,13.9z"/>
	</g>
	<g class="st2">
		<path class="st1" d="M19.6,12.4v4.7h-1.7V6.9h2.5c1.7,0,2.4,0.9,2.4,2.3v1.3c0,1.1-0.4,1.7-1.4,2l1.6,4.6h-1.8L19.6,12.4z
			 M19.6,8.3v3.2h0.6c0.6,0,0.8-0.3,0.8-0.8V9.2c0-0.6-0.3-0.8-0.8-0.8H19.6z"/>
	</g>
	<g class="st2">
		<path class="st1" d="M26.4,11.7h2.4v5.4h-1.2V16c-0.2,0.8-0.7,1.2-1.6,1.2c-1.5,0-2.1-1.2-2.1-2.7V9.6c0-1.6,0.8-2.7,2.6-2.7
			c1.9,0,2.4,1.1,2.4,2.6v0.9h-1.6v-1c0-0.6-0.2-1-0.9-1c-0.6,0-0.9,0.4-0.9,1v5.5c0,0.6,0.3,1,0.8,1c0.6,0,0.8-0.3,0.8-1V13h-0.8
			V11.7z"/>
	</g>
	<g class="st2">
		<path class="st1" d="M30.2,6.9h4.1v1.4h-2.4v2.9h1.7v1.4h-1.7v3.1h2.4v1.4h-4.1V6.9z"/>
	</g>
	<g class="st2">
		<path class="st1" d="M35.1,6.9h4.5v1.4h-1.4v8.8h-1.7V8.3h-1.4V6.9z"/>
	</g>
	<g>
		<path class="st1" d="M98.2,144.8H3.3v-22.6h94.8V144.8z M4.3,143.8h92.8v-20.6H4.3L4.3,143.8z"/>
	</g>
	<g>
		<g>
			<path class="st0" d="M79.7,79.2c1.8,0,3.2-1.4,3.2-3.2s-1.4-3.2-3.2-3.2c-1.8,0-3.2,1.4-3.2,3.2C76.4,77.8,77.9,79.2,79.7,79.2
				C79.6,79.2,79.6,79.2,79.7,79.2z"/>
		</g>
		<g>
			<path class="st0" d="M83.4,80.5h-0.2h-7h-0.2c-2.2,0.2-3.9,2-3.9,4.3v8.9c0.1,0.7,0.7,1.2,1.4,1.1c0.6-0.1,1.1-0.5,1.1-1.1V86
				c0-0.3,0.1-0.7,0.6-0.7c0.4,0,0.4,0.4,0.4,0.6v22.9c-0.1,1,0.7,1.8,1.7,1.9c1,0.1,1.8-0.7,1.9-1.7c0-0.1,0-0.2,0-0.3V95.7
				c0-0.3,0.2-0.5,0.5-0.5c0,0,0,0,0.1,0l0,0c0.3,0,0.5,0.2,0.5,0.4c0,0,0,0.1,0,0.1v13.2c0,1,0.8,1.8,1.8,1.8s1.8-0.8,1.8-1.8V86
				c0-0.2,0.1-0.6,0.4-0.6c0.5,0,0.6,0.4,0.6,0.7v7.7c0.1,0.7,0.7,1.2,1.4,1.1c0.6-0.1,1.1-0.5,1.1-1.1v-8.9
				C87.3,82.6,85.6,80.7,83.4,80.5z"/>
		</g>
		<g>
			<path class="st0" d="M51.5,80.8c1.7,0,3-1.3,3-3s-1.3-3-3-3s-3,1.3-3,3S49.8,80.8,51.5,80.8z"/>
		</g>
		<g>
			<path class="st0" d="M60.1,92.8l-2.5-8.2c0,0-0.9-2.4-2.9-2.4h-6.4c-2,0-2.9,2.4-2.9,2.4l-2.5,8.2c0,0.2-0.1,0.3-0.1,0.5
				c-0.1-0.1-0.2-0.2-0.3-0.2c-0.5-0.2-1-0.1-1.3,0.4c0,0,0,0,0,0c-0.5,0.9-1,1.7-1.6,2.5c-0.2,0.2-0.5,0.4-0.8,0.4h-3.1
				c-0.3,0-0.6-0.1-0.7-0.4c-0.4-0.4-1.6-2.5-1.6-2.6c-0.3-0.4-0.8-0.5-1.3-0.3c-0.1,0.1-0.2,0.2-0.3,0.3v-8.7
				c0-2.2-1.7-4.1-3.9-4.3h-0.2h-7h-0.2c-2.2,0.2-3.9,2.1-3.9,4.3v8.9c0,0.4,0.2,0.8,0.6,1l-3,15.3c-0.1,0.3,0.1,0.6,0.4,0.7
				c0,0,0,0,0,0h0.1c0.3,0,0.5-0.2,0.6-0.5l2.9-15.4c0.5-0.2,0.8-0.6,0.8-1.2V86c0-0.3,0.1-0.7,0.6-0.7c0.4,0,0.4,0.4,0.5,0.6v22.9
				c0,1,0.8,1.8,1.8,1.8c1,0,1.8-0.8,1.8-1.8V95.7c-0.1-0.3,0.1-0.5,0.4-0.6s0.5,0.1,0.6,0.4c0,0.1,0,0.1,0,0.2v13.2
				c0,1,0.8,1.8,1.8,1.8c1,0,1.8-0.8,1.8-1.8V86c0-0.2,0.1-0.6,0.5-0.6c0.5,0,0.6,0.4,0.6,0.7v7.7c0,0.7,0.6,1.2,1.2,1.2
				c0.5,0,0.9-0.3,1.1-0.7v0.1l2.6,4.6c0.1,0.2,0.1,0.4,0.2,0.6v0.7l0,0c0,0.3,0,0.5-0.1,0.8l-1.2,4.8h1.4v3.6l0,0
				c-0.1,0.7,0.4,1.3,1.1,1.4c0.7,0.1,1.3-0.4,1.4-1.1c0-0.1,0-0.1,0-0.2v-3.6h0.8c0,0,0,0.1,0,0.2v3.4c0,0.7,0.6,1.2,1.2,1.2
				s1.2-0.6,1.2-1.2v-3.6h1.3l-1.2-4.9c-0.1-0.2-0.1-0.4-0.1-0.6v-0.2l0,0v-0.7c0-0.2,0.1-0.4,0.2-0.6l2.4-4.3l0.2-0.4
				c0,0,0-0.1,0-0.1c0.1,0.3,0.4,0.5,0.8,0.6c1.3,0.4,1.7-1.1,1.7-1.1l2-6.9c0,0,0.1-0.5,0.5-0.4S48,87,48,87l-3.5,12.9h3.3v9.2
				c0.1,0.9,0.8,1.5,1.7,1.5c0.8-0.1,1.4-0.7,1.5-1.5v-9.2h0.9v9.2c0.1,0.9,0.8,1.5,1.7,1.5c0.8-0.1,1.4-0.7,1.5-1.5v-9.2h3.3
				L54.8,87c0,0-0.2-0.6,0.2-0.7s0.5,0.4,0.5,0.4l2,6.9c0,0,0.4,1.5,1.7,1.1S60.1,92.8,60.1,92.8z"/>
		</g>
		<g>
			<path class="st0" d="M24.1,79.2c1.8,0,3.2-1.4,3.2-3.2c0-1.8-1.4-3.2-3.2-3.2c-1.8,0-3.2,1.4-3.2,3.2
				C20.9,77.8,22.3,79.2,24.1,79.2C24.1,79.2,24.1,79.2,24.1,79.2z"/>
		</g>
		<g>
			<path class="st0" d="M66,94.8c1.4,0,2.6-1.1,2.6-2.6c0-1.4-1.1-2.5-2.6-2.5s-2.5,1.1-2.5,2.5C63.4,93.6,64.6,94.8,66,94.8
				C66,94.8,66,94.8,66,94.8z"/>
		</g>
		<g>
			<path class="st0" d="M71.1,99.7c-1.5-4-1.8-3.9-3.2-4H64c-1.4,0-1.7,0-3.2,4c-0.2,0.6-1.1,2.8-1.2,2.9s-0.4,0.9,0.5,1.2
				s1.1-0.7,1.1-0.7l1.6-3.9c0,0,0-0.1,0.1-0.1s0.1,0.1,0.1,0.1v10l0,0c0,0.7,0.5,1.3,1.3,1.4c0,0,0,0,0.1,0c0.7,0,1.3-0.6,1.3-1.3
				c0,0,0,0,0-0.1v-4c0,0,0-0.6,0.4-0.6s0.4,0.6,0.4,0.6v4c0,0.7,0.5,1.3,1.3,1.4c0,0,0,0,0,0c0.7,0,1.3-0.5,1.3-1.2
				c0,0,0-0.1,0-0.1l0,0V99.3c0-0.1,0-0.1,0-0.1s0.1,0.1,0.1,0.1l1.4,3.5c0,0,0.4,0.9,1.2,0.6c0.4-0.2,0.6-0.7,0.4-1.2
				C72.1,102.1,71.3,100.3,71.1,99.7z"/>
		</g>
		<g>
			<path class="st0" d="M37.3,94.7c1.4,0,2.5-1.1,2.5-2.5c0-1.4-1.1-2.5-2.5-2.5c-1.4,0-2.5,1.1-2.5,2.5c0,0,0,0,0,0
				C34.7,93.6,35.9,94.7,37.3,94.7z"/>
		</g>
		<g>
			<g>
				<polygon class="st0" points="39.8,36 38.1,36 38.1,68.1 61.1,68.1 61.1,66.2 39.8,66.2 				"/>
			</g>
			<g>
				<path class="st0" d="M41.5,32.1v32.1h23V32.1H41.5z M44.4,43.6h4.4l1.3-3c0.1-0.2,0.3-0.4,0.6-0.3c0.3,0,0.5,0.2,0.5,0.4l1.6,5
					l3.1-8.4c0.1-0.2,0.3-0.4,0.5-0.4c0.2,0,0.5,0.1,0.6,0.4l1.2,2.8c0.1,0.3,0,0.7-0.3,0.8c-0.3,0.1-0.7,0-0.8-0.3l-0.6-1.5
					l-3.2,8.6c-0.1,0.2-0.3,0.4-0.6,0.4l0,0c-0.3,0-0.5-0.2-0.6-0.4l-1.6-5.2l-0.8,1.9c-0.1,0.2-0.3,0.4-0.5,0.4h-4.8V43.6z
					 M61.7,59.9c0,0.1-0.1,0.1-0.1,0.2H44.5c-0.1,0-0.1-0.1-0.1-0.2v-2.7c0-0.1,0.1-0.1,0.1-0.1h17.1c0.1,0,0.1,0.1,0.1,0.1V59.9z
					 M61.7,55.2c0,0.1-0.1,0.1-0.1,0.1H44.5c-0.1,0-0.1-0.1-0.1-0.1v-2.7c0-0.1,0.1-0.1,0.1-0.1h17.1c0.1,0,0.1,0.1,0.1,0.1V55.2z
					 M61.4,44L61.4,44l-2,2.1L57.3,44c-0.3-0.3-0.4-0.6-0.4-1c-0.1-0.8,0.5-1.4,1.3-1.5c0,0,0,0,0.1,0c0.4,0,0.8,0.4,1.1,0.7
					c0.3-0.3,0.7-0.7,1.1-0.7c0.8,0,1.4,0.7,1.3,1.4c0,0,0,0.1,0,0.1C61.8,43.4,61.6,43.7,61.4,44z"/>
			</g>
		</g>
	</g>
</g>
</svg>
