<?xml version="1.0" encoding="utf-8"?>
<!-- Generator: Adobe Illustrator 22.0.1, SVG Export Plug-In . SVG Version: 6.00 Build 0)  -->
<svg version="1.1" id="Layer_1" xmlns="http://www.w3.org/2000/svg" xmlns:xlink="http://www.w3.org/1999/xlink" x="0px" y="0px"
	 viewBox="0 0 101.5 148.1" style="enable-background:new 0 0 101.5 148.1;" xml:space="preserve">
<style type="text/css">
	.st0{fill:#FFFFFF;}
	.st1{fill:#4C9F38;}
	.st2{enable-background:new    ;}
</style>
<title>TARGET 1.3</title>
<g id="WHITE_BG">
	<g>
		<rect y="0" class="st0" width="101.5" height="148.1"/>
	</g>
</g>
<g id="TARGETS">
	<g>
		<g>
			<path class="st1" d="M10.4,129.4H7.8v2.8h-1v-6.4h3.9v0.9H7.8v1.8h2.6V129.4z"/>
		</g>
		<g>
			<path class="st1" d="M11.4,132.2v-6.4h1v6.4H11.4z"/>
		</g>
		<g>
			<path class="st1" d="M13.4,129c0-2,0.7-3.3,2.6-3.3c0.6,0,1.3,0.1,1.8,0.3v1c-0.5-0.2-1.1-0.4-1.7-0.4c-1.3,0-1.8,0.9-1.8,2.4
				c0,1.5,0.5,2.4,1.8,2.4c0.3,0,0.6,0,0.9-0.1v-1.7h-1.1v-0.9H18v3.2c-0.6,0.3-1.3,0.4-2,0.4C14.1,132.3,13.4,131,13.4,129z"/>
		</g>
		<g>
			<path class="st1" d="M22.5,132.2v-2.9h-2.6v2.9h-1v-6.4h1v2.6h2.6v-2.6h1v6.4L22.5,132.2z"/>
		</g>
		<g>
			<path class="st1" d="M26.6,126.7v5.5h-1v-5.5H24v-0.9h4.3v0.9L26.6,126.7z"/>
		</g>
		<g>
			<path class="st1" d="M32.5,125.7c0.5,0,1,0.1,1.5,0.3v0.9c-0.5-0.2-0.9-0.3-1.4-0.3c-1.2,0-1.7,0.8-1.7,2.4
				c0,1.6,0.5,2.4,1.7,2.4c0.5,0,1-0.1,1.4-0.3v0.9c-0.5,0.2-1,0.3-1.5,0.3c-1.9,0-2.6-1.2-2.6-3.3S30.6,125.7,32.5,125.7z"/>
		</g>
		<g>
			<path class="st1" d="M34.7,129c0-1.8,0.4-3.3,2.5-3.3s2.5,1.5,2.5,3.3s-0.4,3.3-2.5,3.3S34.7,130.8,34.7,129z M35.7,129
				c0,1.5,0.3,2.4,1.5,2.4s1.5-0.9,1.5-2.4s-0.3-2.4-1.5-2.4S35.7,127.5,35.7,129L35.7,129z"/>
		</g>
		<g>
			<path class="st1" d="M43.7,131.3h-0.9l-1.6-3.9v4.8h-1v-6.4h1.2l1.7,4.3l1.8-4.3h1.2v6.4h-1v-4.8L43.7,131.3z"/>
		</g>
		<g>
			<path class="st1" d="M50.6,131.3h-0.9l-1.6-3.9v4.8h-1v-6.4h1.3l1.7,4.3l1.7-4.3h1.2v6.4h-1l0-4.8L50.6,131.3z"/>
		</g>
		<g>
			<path class="st1" d="M54,130.2v-4.4h1v4.3c0,0.8,0.6,1.4,1.4,1.4s1.4-0.6,1.4-1.4v-4.3h1v4.4c-0.1,1.3-1.2,2.2-2.5,2.1
				C55,132.2,54.2,131.3,54,130.2L54,130.2z"/>
		</g>
		<g>
			<path class="st1" d="M63.2,132.2l-2.8-4.5v4.5h-0.9v-6.4h0.9l2.8,4.5v-4.5h0.9v6.4H63.2z"/>
		</g>
		<g>
			<path class="st1" d="M65.2,132.2v-6.4h1v6.4H65.2z"/>
		</g>
		<g>
			<path class="st1" d="M69.6,125.7c0.5,0,1,0.1,1.5,0.3v0.9c-0.5-0.2-0.9-0.3-1.4-0.3c-1.2,0-1.7,0.8-1.7,2.4
				c0,1.6,0.5,2.4,1.7,2.4c0.5,0,1-0.1,1.4-0.3v0.9c-0.5,0.2-1,0.3-1.5,0.3c-1.9,0-2.6-1.2-2.6-3.3S67.7,125.7,69.6,125.7z"/>
		</g>
		<g>
			<path class="st1" d="M75.1,130.6h-2l-0.4,1.6h-1l2-6.4h1l2,6.4h-1L75.1,130.6z M74.1,127l-0.8,2.8h1.6L74.1,127z"/>
		</g>
		<g>
			<path class="st1" d="M77.1,125.8h2.2c1.6,0,2,0.8,2,1.8c0,0.5-0.3,1-0.8,1.3c0.6,0.2,1.1,0.8,1,1.5c0,1-0.5,1.9-2.2,1.9h-2.2
				L77.1,125.8z M79.3,126.7h-1.2v1.8h1.2c0.8,0,1-0.5,1-0.9S80.1,126.7,79.3,126.7z M78.1,131.3h1.3c0.9,0,1.1-0.5,1.1-1
				s-0.3-1-1.1-1h-1.3V131.3z"/>
		</g>
		<g>
			<path class="st1" d="M83.2,131.3h2.8v0.9h-3.7v-6.4h1L83.2,131.3z"/>
		</g>
		<g>
			<path class="st1" d="M90.1,129.3h-2.7v2h2.9v0.9h-3.9v-6.4h3.9v0.9h-2.9v1.8h2.7V129.3z"/>
		</g>
		<g>
			<path class="st1" d="M6.9,141.2v-6.4h1.9c2.1,0,2.7,1.4,2.7,3.2s-0.6,3.2-2.7,3.2H6.9z M7.9,140.3h1c1.3,0,1.7-0.9,1.7-2.3
				s-0.4-2.3-1.7-2.3h-1L7.9,140.3z"/>
		</g>
		<g>
			<path class="st1" d="M12.3,141.2v-6.4h0.9v6.4H12.3z"/>
		</g>
		<g>
			<path class="st1" d="M18.5,139.3c0,1.2-0.7,2-2.4,2c-0.6,0-1.3-0.1-1.9-0.4v-1c0.6,0.3,1.2,0.4,1.8,0.4c1.1,0,1.5-0.5,1.5-1.1
				s-0.3-0.9-1.2-1c-1.6-0.2-2.2-0.6-2.2-1.8c0-0.9,0.5-1.9,2.3-1.9c0.6,0,1.2,0.1,1.7,0.3v1c-0.5-0.2-1.1-0.3-1.7-0.3
				c-1,0-1.3,0.4-1.3,1s0.4,0.8,1.2,0.9C17.8,137.7,18.5,138,18.5,139.3z"/>
		</g>
		<g>
			<path class="st1" d="M23,138.3h-2.7v2h2.9v0.9h-3.9v-6.4h3.9v0.9h-2.9v1.8H23V138.3z"/>
		</g>
		<g>
			<path class="st1" d="M27.2,139.6h-2l-0.5,1.6h-1l2-6.4h1l2,6.4h-1L27.2,139.6z M26.2,136l-0.8,2.8H27L26.2,136z"/>
		</g>
		<g>
			<path class="st1" d="M33.3,139.3c0,1.2-0.7,2-2.4,2c-0.6,0-1.3-0.1-1.9-0.3v-1c0.6,0.3,1.2,0.4,1.8,0.4c1.1,0,1.5-0.5,1.5-1.1
				s-0.3-0.9-1.2-1c-1.6-0.2-2.2-0.6-2.2-1.8c0-0.9,0.5-1.9,2.3-1.9c0.6,0,1.2,0.1,1.7,0.3v1c-0.5-0.2-1.1-0.3-1.7-0.3
				c-1,0-1.3,0.4-1.3,1s0.4,0.8,1.2,0.9C32.5,137.7,33.3,138,33.3,139.3z"/>
		</g>
		<g>
			<path class="st1" d="M37.7,138.3H35v2h3v0.9h-3.9v-6.4H38v0.9h-3v1.8h2.7V138.3z"/>
		</g>
		<g>
			<path class="st1" d="M42.9,139.3c0,1.2-0.7,2-2.4,2c-0.6,0-1.3-0.1-1.9-0.4v-1c0.6,0.3,1.2,0.4,1.8,0.4c1.2,0,1.5-0.5,1.5-1.1
				s-0.3-0.9-1.2-1c-1.5-0.2-2.2-0.6-2.2-1.8c0-0.9,0.5-1.9,2.3-1.9c0.6,0,1.2,0.1,1.7,0.3v1c-0.5-0.2-1.1-0.3-1.7-0.3
				c-1,0-1.3,0.4-1.3,1s0.4,0.8,1.2,0.9C42.1,137.7,42.9,138,42.9,139.3z"/>
		</g>
	</g>
	<g>
		<rect x="3.3" y="24" class="st1" width="94.8" height="94.8"/>
	</g>
	<g>
		<path class="st1" d="M98.2,20.7H3.3V3.3h94.8V20.7z M4.3,19.7h92.8V4.3H4.3L4.3,19.7z"/>
	</g>
	<g class="st2">
		<path class="st1" d="M6.7,6.9h4.5v1.4H9.9v8.8H8.1V8.3H6.7V6.9z"/>
	</g>
	<g class="st2">
		<path class="st1" d="M11.2,17.1l1.9-10.2h1.9L17,17.1h-1.8l-0.3-1.9h-1.8l-0.3,1.9H11.2z M13.3,13.9h1.4L14,9.8h0L13.3,13.9z"/>
	</g>
	<g class="st2">
		<path class="st1" d="M19.6,12.4v4.7h-1.7V6.9h2.5c1.7,0,2.4,0.9,2.4,2.3v1.3c0,1.1-0.4,1.7-1.4,2l1.6,4.6h-1.8L19.6,12.4z
			 M19.6,8.3v3.2h0.6c0.6,0,0.8-0.3,0.8-0.8V9.2c0-0.6-0.3-0.8-0.8-0.8H19.6z"/>
	</g>
	<g class="st2">
		<path class="st1" d="M26.4,11.7h2.4v5.4h-1.2V16c-0.2,0.8-0.7,1.2-1.6,1.2c-1.5,0-2.1-1.2-2.1-2.7V9.6c0-1.6,0.8-2.7,2.6-2.7
			c1.9,0,2.4,1.1,2.4,2.6v0.9h-1.6v-1c0-0.6-0.2-1-0.9-1c-0.6,0-0.9,0.4-0.9,1v5.5c0,0.6,0.3,1,0.8,1c0.6,0,0.8-0.3,0.8-1V13h-0.8
			V11.7z"/>
	</g>
	<g class="st2">
		<path class="st1" d="M30.2,6.9h4.1v1.4h-2.4v2.9h1.7v1.4h-1.7v3.1h2.4v1.4h-4.1V6.9z"/>
	</g>
	<g class="st2">
		<path class="st1" d="M35.1,6.9h4.5v1.4h-1.4v8.8h-1.7V8.3h-1.4V6.9z"/>
	</g>
	<g class="st2">
		<path class="st1" d="M83.9,9.1V10c0,0.9-0.5,1.4-1.2,1.7c0.9,0.2,1.3,0.8,1.3,1.7v1.5c0,1.4-0.8,2.3-2.5,2.3c-1.7,0-2.4-1-2.4-2.5
			v-1.3h1.6v1.5c0,0.6,0.2,1,0.8,1c0.5,0,0.8-0.4,0.8-0.9v-1.7c0-0.5-0.2-0.8-0.8-0.8h-0.7v-1.3h0.6c0.6,0,0.9-0.3,0.9-0.8V9.2
			c0-0.6-0.2-0.9-0.7-0.9s-0.7,0.4-0.7,1v1h-1.6V9.4c0-1.5,0.6-2.6,2.4-2.6C83.2,6.8,83.9,7.7,83.9,9.1z"/>
	</g>
	<g class="st2">
	</g>
	<g class="st2">
		<path class="st1" d="M86.8,10.8c0.7,0,1.2,0.6,1.2,1.2c0,0.7-0.6,1.2-1.2,1.2c-0.7,0-1.2-0.6-1.2-1.2
			C85.6,11.4,86.1,10.8,86.8,10.8z"/>
	</g>
	<g class="st2">
		<path class="st1" d="M94.3,9.1V10c0,0.9-0.5,1.4-1.2,1.7c0.9,0.2,1.3,0.8,1.3,1.7v1.5c0,1.4-0.8,2.3-2.5,2.3c-1.7,0-2.4-1-2.4-2.5
			v-1.3h1.6v1.5c0,0.6,0.2,1,0.8,1c0.5,0,0.8-0.4,0.8-0.9v-1.7c0-0.5-0.2-0.8-0.8-0.8h-0.7v-1.3h0.6c0.6,0,0.9-0.3,0.9-0.8V9.2
			c0-0.6-0.2-0.9-0.7-0.9s-0.7,0.4-0.7,1v1h-1.6V9.4c0-1.5,0.6-2.6,2.4-2.6C93.6,6.8,94.3,7.7,94.3,9.1z"/>
	</g>
	<g>
		<path class="st1" d="M98.2,144.8H3.3v-22.6h94.8V144.8z M4.3,143.8h92.8v-20.6H4.3L4.3,143.8z"/>
	</g>
	<g>
		<g>
			<g>
				<path class="st0" d="M51.5,71.7h-1.7V67h1.7V71.7z M51.5,62.9h-1.7v-4.7h1.7V62.9z M51.5,54.1h-1.7v-4.7h1.7V54.1z"/>
			</g>
			<g>
				<path class="st0" d="M51.5,45.4h-1.7v-4.7h1.7V45.4z M51.5,36.5h-1.7v-4.7h1.7V36.5z"/>
			</g>
		</g>
		<g>
			<g>
				<path class="st0" d="M72.6,77.7c4.6,0,8.4-3.7,8.4-8.4c0-4.6-3.7-8.4-8.4-8.4c-4.6,0-8.4,3.7-8.4,8.4c0,0,0,0,0,0
					C64.2,73.9,68,77.7,72.6,77.7z"/>
			</g>
			<g>
				<path class="st0" d="M59.2,95.3c0-0.8,0.2-1.8,1.6-1.8c0.9,0,1.1,1,1.2,1.7v15.9h21.4V95.2c0-0.6,0.2-1.7,1.2-1.7
					c1.4,0,1.6,1,1.6,1.8v15.8h6.5v-19c0-5.8-4.4-10.6-10.1-11.2c-0.2,0-0.4,0-0.6-0.1H63.5c-0.2,0-0.4,0-0.6,0.1
					c-5.8,0.5-10.2,5.4-10.2,11.1v19h6.5V95.3z M76.5,91.6c0.6,0,1.2,0.6,1.6,1c0.4-0.5,1-0.9,1.6-1c1.1,0,1.9,0.9,1.9,2
					c0,0,0,0.1,0,0.1c0,0.5-0.2,1.1-0.6,1.5l0,0L78.1,98l-2.8-2.8c-0.4-0.4-0.6-0.9-0.6-1.5C74.6,92.6,75.4,91.7,76.5,91.6
					C76.5,91.6,76.5,91.6,76.5,91.6z"/>
			</g>
		</g>
		<g>
			<g>
				<path class="st0" d="M21.1,66.3l4.7-4.7C23.6,62.4,21.9,64.1,21.1,66.3z"/>
			</g>
			<g>
				<path class="st0" d="M25.1,76.8l11.2-11.2c-0.3-0.5-0.6-1.1-1-1.6L23.6,75.8C24.1,76.2,24.6,76.6,25.1,76.8z"/>
			</g>
			<g>
				<path class="st0" d="M28.9,77.7h0.2l8.1-8.1c0-0.1,0-0.2,0-0.3c0-0.7-0.1-1.3-0.3-2L26.8,77.4C27.5,77.6,28.2,77.7,28.9,77.7z"
					/>
			</g>
			<g>
				<path class="st0" d="M36.6,72.5l-4.5,4.5C34.1,76.2,35.8,74.6,36.6,72.5z"/>
			</g>
			<g>
				<path class="st0" d="M31,61.2c-0.7-0.2-1.4-0.2-2.1-0.2h-0.2l-8.2,8.2c0,0.1,0,0.1,0,0.2c0,0.7,0.1,1.4,0.3,2.1L31,61.2z"/>
			</g>
			<g>
				<path class="st0" d="M22.4,74.7l11.8-11.8c-0.5-0.4-1-0.7-1.5-1L21.4,73.1C21.7,73.7,22,74.2,22.4,74.7z"/>
			</g>
			<g>
				<path class="st0" d="M18.2,108.1l25.4-25.4c-0.5-0.3-1.1-0.6-1.6-0.9l-23.8,23.8V108.1z"/>
			</g>
			<g>
				<polygon class="st0" points="15.4,98.6 8.9,105.1 8.9,107.6 15.4,101.1 				"/>
			</g>
			<g>
				<path class="st0" d="M18.2,103.2l22-22c-0.5-0.1-1-0.2-1.5-0.3c-0.2,0-0.4,0-0.6,0l0,0l-19.8,19.8L18.2,103.2z"/>
			</g>
			<g>
				<polygon class="st0" points="15.4,110.9 15.4,108.3 12.6,111.1 15.2,111.1 				"/>
			</g>
			<g>
				<path class="st0" d="M15.4,95.3c0-0.7,0.2-1.8,1.6-1.8c0.3,0,0.6,0.1,0.8,0.3l13-13h-2.5L8.9,100.2v2.5l6.5-6.5L15.4,95.3z"/>
			</g>
			<g>
				<path class="st0" d="M19.7,80.9c-0.2,0-0.4,0-0.6,0L18.4,81l-9.3,9.3c-0.1,0.6-0.1,1.2-0.1,1.8V93L21,80.9H19.7z"/>
			</g>
			<g>
				<polygon class="st0" points="23.4,80.9 8.9,95.3 8.9,96.1 8.9,97.9 25.9,80.9 				"/>
			</g>
			<g>
				<polygon class="st0" points="15.4,106 15.4,103.4 8.9,109.9 8.9,111.1 10.3,111.1 				"/>
			</g>
			<g>
				<path class="st0" d="M46.2,84.9c-0.4-0.5-0.8-0.9-1.2-1.3l-26.8,26.8v0.7h1.9L46.2,84.9z"/>
			</g>
			<g>
				<polygon class="st0" points="48.8,108.9 46.6,111.1 48.8,111.1 				"/>
			</g>
			<g>
				<path class="st0" d="M39.5,96.5v-1.2c0-0.7,0.2-1.7,1.2-1.7c0.5,0,0.9,0.2,1.2,0.5L48,88c-0.2-0.6-0.5-1.2-0.8-1.7l-24.8,24.8
					h2.5L39.5,96.5z"/>
			</g>
			<g>
				<polygon class="st0" points="39.5,101.4 39.5,98.8 27.2,111.1 29.8,111.1 				"/>
			</g>
			<g>
				<path class="st0" d="M10.2,86.8l4.6-4.6C12.9,83.3,11.3,84.9,10.2,86.8z"/>
			</g>
			<g>
				<polygon class="st0" points="18.2,98.4 35.7,80.9 33.1,80.9 18.2,95.8 				"/>
			</g>
			<g>
				<polygon class="st0" points="39.5,111.1 39.5,108.6 37,111.1 39.5,111.1 				"/>
			</g>
			<g>
				<path class="st0" d="M42.3,98.6l6.5-6.5l0,0c0-0.8-0.1-1.5-0.2-2.3l-6.3,6.2V98.6z"/>
			</g>
			<g>
				<polygon class="st0" points="39.5,106.2 39.5,103.7 32.1,111.1 34.7,111.1 				"/>
			</g>
			<g>
				<polygon class="st0" points="42.3,108.3 48.8,101.8 48.8,99.3 42.3,105.8 				"/>
			</g>
			<g>
				<polygon class="st0" points="48.8,106.6 48.8,104.2 42.3,110.7 42.3,111.1 44.3,111.1 				"/>
			</g>
			<g>
				<polygon class="st0" points="48.8,96.1 48.8,94.9 48.8,94.4 42.3,100.9 42.3,103.5 48.8,97 				"/>
			</g>
			<g>
				<path class="st0" d="M12,63.3c0,0.7-0.6,1.4-1.3,1.4c-0.7,0-1.4-0.6-1.4-1.3c0-0.7,0.6-1.4,1.3-1.4c0,0,0,0,0,0
					C11.4,62,12,62.6,12,63.3z"/>
			</g>
			<g>
				<path class="st0" d="M13.4,70.5c0,0.7-0.6,1.3-1.3,1.3s-1.3-0.6-1.3-1.3c0-0.7,0.6-1.3,1.3-1.3C12.8,69.2,13.4,69.8,13.4,70.5
					L13.4,70.5z"/>
			</g>
			<g>
				<path class="st0" d="M10.8,75.4c0,0.5-0.4,0.9-0.9,0.9S9,75.9,9,75.4c0-0.5,0.4-0.9,0.9-0.9C10.4,74.4,10.8,74.9,10.8,75.4
					L10.8,75.4z"/>
			</g>
			<g>
				<path class="st0" d="M19,69.6c0,0.5-0.4,0.9-0.9,0.9s-0.9-0.4-0.9-0.9c0-0.5,0.4-0.9,0.9-0.9S19,69.2,19,69.6L19,69.6z"/>
			</g>
			<g>
				<path class="st0" d="M14.9,67c0,0.3-0.3,0.6-0.6,0.6s-0.6-0.3-0.6-0.6s0.3-0.6,0.6-0.6S14.9,66.7,14.9,67z"/>
			</g>
			<g>
				<path class="st0" d="M15.5,72.7c0,0.3-0.3,0.6-0.6,0.6c-0.3,0-0.6-0.3-0.6-0.6c0-0.3,0.3-0.6,0.6-0.6S15.5,72.4,15.5,72.7
					C15.5,72.7,15.5,72.7,15.5,72.7z"/>
			</g>
			<g>
				<path class="st0" d="M19.3,75.2c0,0.3-0.2,0.6-0.6,0.6c0,0,0,0,0,0c-0.3,0-0.6-0.3-0.6-0.6c0-0.3,0.3-0.6,0.6-0.6
					C19,74.6,19.3,74.9,19.3,75.2z"/>
			</g>
			<g>
				<path class="st0" d="M19.3,63.9c0,0.3-0.3,0.6-0.6,0.6l0,0c-0.3,0-0.6-0.3-0.6-0.6c0-0.3,0.3-0.6,0.6-0.6l0,0
					C19,63.3,19.3,63.6,19.3,63.9C19.3,63.9,19.3,63.9,19.3,63.9z"/>
			</g>
			<g>
				<path class="st0" d="M44,67.9c0-0.7,0.6-1.3,1.3-1.3c0.7,0,1.3,0.6,1.3,1.3s-0.6,1.3-1.3,1.3c0,0,0,0,0,0
					C44.6,69.2,44,68.6,44,67.9z"/>
			</g>
			<g>
				<path class="st0" d="M39.4,68.7c0-0.5,0.4-0.9,0.9-0.9s0.9,0.4,0.9,0.9c0,0.5-0.4,0.9-0.9,0.9S39.4,69.2,39.4,68.7L39.4,68.7z"
					/>
			</g>
			<g>
				<path class="st0" d="M43.3,61c0-0.4,0.3-0.8,0.8-0.8c0,0,0,0,0,0c0.4,0,0.8,0.3,0.9,0.7s-0.3,0.8-0.7,0.9c-0.1,0-0.1,0-0.2,0
					C43.6,61.8,43.3,61.4,43.3,61L43.3,61z"/>
			</g>
			<g>
				<path class="st0" d="M42.1,71.3c0-0.3,0.3-0.6,0.6-0.6c0,0,0,0,0,0c0.3,0,0.6,0.3,0.5,0.7c0,0.3-0.2,0.5-0.5,0.5
					C42.4,71.9,42.1,71.7,42.1,71.3C42.1,71.3,42.1,71.3,42.1,71.3z"/>
			</g>
			<g>
				<path class="st0" d="M42.1,65c0-0.3,0.3-0.6,0.6-0.6c0.3,0,0.6,0.3,0.6,0.6c0,0.3-0.3,0.6-0.6,0.6S42.1,65.4,42.1,65
					C42.1,65,42.1,65,42.1,65z"/>
			</g>
			<g>
				<path class="st0" d="M39.2,64.1c0-0.3,0.3-0.6,0.6-0.6l0,0c0.3,0,0.6,0.3,0.6,0.6c0,0.3-0.3,0.6-0.6,0.6c0,0,0,0,0,0
					C39.5,64.7,39.2,64.4,39.2,64.1C39.2,64.1,39.2,64.1,39.2,64.1z"/>
			</g>
			<g>
				<path class="st0" d="M39.9,73.1c0-0.3,0.3-0.6,0.6-0.6s0.6,0.3,0.6,0.6c0,0.3-0.3,0.6-0.6,0.6C40.1,73.7,39.9,73.5,39.9,73.1
					C39.9,73.1,39.9,73.1,39.9,73.1z"/>
			</g>
			<g>
				<path class="st0" d="M46.8,63.9c0-0.3,0.3-0.6,0.6-0.6s0.6,0.3,0.6,0.6c0,0.3-0.3,0.6-0.6,0.6S46.8,64.2,46.8,63.9z"/>
			</g>
			<g>
				<path class="st0" d="M46.3,74.6c0-0.3,0.2-0.6,0.6-0.6c0,0,0,0,0,0c0.3,0,0.6,0.3,0.6,0.6c0,0.3-0.3,0.6-0.6,0.6
					C46.5,75.2,46.3,74.9,46.3,74.6z"/>
			</g>
			<g>
				<path class="st0" d="M45.2,71.3c0-0.4,0.4-0.8,0.8-0.8s0.8,0.4,0.8,0.8c0,0.4-0.4,0.8-0.8,0.8C45.5,72.1,45.2,71.8,45.2,71.3
					L45.2,71.3z"/>
			</g>
		</g>
		<g>
			<g>
				<polygon class="st0" points="21.4,41.9 14.4,49 16.9,49 24,41.9 				"/>
			</g>
			<g>
				<polygon class="st0" points="26.3,41.9 19.2,49 21.8,49 28.8,41.9 				"/>
			</g>
			<g>
				<polygon class="st0" points="38.5,39.5 29,49 31.5,49 39.9,40.6 				"/>
			</g>
			<g>
				<polygon class="st0" points="31.2,41.9 24.1,49 26.6,49 33.7,41.9 				"/>
			</g>
			<g>
				<polygon class="st0" points="35.6,49.8 42.7,42.7 41.2,41.7 33.9,49 35.6,49 				"/>
			</g>
			<g>
				<path class="st0" d="M37.1,38.5l-0.8-0.6c-0.1-0.1-0.3-0.1-0.4-0.1c-0.2,0.1-0.3,0.2-0.3,0.5V40L37.1,38.5z"/>
			</g>
			<g>
				<path class="st0" d="M16.6,41.9l-4.9,4.9v1.8c0,0.2,0.1,0.3,0.3,0.4l7.1-7.1L16.6,41.9z"/>
			</g>
			<g>
				<path class="st0" d="M12,41.9c-0.2,0-0.3,0.2-0.3,0.4v2.1l2.5-2.5H12z"/>
			</g>
			<g>
				<path class="st0" d="M45.5,44.9L45.5,44.9L44,43.8l-8.3,8.4v0.6c0,0.3,0.1,0.4,0.3,0.5c0.1,0,0.3,0,0.4-0.1l4.3-3.4l5-3.9
					c0.1-0.1,0.2-0.2,0.2-0.4C45.8,45.2,45.7,45,45.5,44.9z"/>
			</g>
		</g>
	</g>
</g>
</svg>
