<?xml version="1.0" encoding="utf-8"?>
<!-- Generator: Adobe Illustrator 22.0.1, SVG Export Plug-In . SVG Version: 6.00 Build 0)  -->
<svg version="1.1" id="Layer_1" xmlns="http://www.w3.org/2000/svg" xmlns:xlink="http://www.w3.org/1999/xlink" x="0px" y="0px"
	 viewBox="0 0 101.5 175.2" style="enable-background:new 0 0 101.5 175.2;" xml:space="preserve">
<style type="text/css">
	.st0{fill:#FFFFFF;}
	.st1{fill:#4C9F38;}
	.st2{enable-background:new    ;}
</style>
<title>TARGET 1 B copy 2</title>
<g id="WHITE_BG">
	<g>
		<rect y="0" class="st0" width="101.5" height="175.2"/>
	</g>
</g>
<g id="TARGETS">
	<g>
		<g>
			<path class="st1" d="M7.8,132.2h-1v-6.4H9c1.6,0,2.2,0.7,2.2,1.9c0.1,0.7-0.3,1.4-1,1.7l1.3,2.8h-1.2l-1.1-2.6H7.8V132.2z
				 M7.8,128.7h1.3c0.9,0,1-0.5,1-1s-0.1-1-1-1H7.8V128.7z"/>
		</g>
		<g>
			<path class="st1" d="M15.7,129.3H13v2h3v0.9h-3.9v-6.4H16v0.9h-3v1.8h2.6L15.7,129.3z"/>
		</g>
		<g>
			<path class="st1" d="M16.8,132.2v-6.4h1.9c2.1,0,2.7,1.4,2.7,3.2s-0.6,3.2-2.7,3.2L16.8,132.2z M17.8,131.3h1
				c1.3,0,1.7-0.9,1.7-2.3s-0.4-2.3-1.7-2.3h-1V131.3z"/>
		</g>
		<g>
			<path class="st1" d="M22.1,130.2v-4.4H23v4.3c-0.1,0.7,0.4,1.3,1,1.3c0.1,0,0.2,0,0.3,0c0.6,0.1,1.3-0.3,1.4-1c0-0.1,0-0.2,0-0.3
				v-4.3h1v4.4c0.1,1.1-0.8,2.1-1.9,2.1c-0.1,0-0.3,0-0.4,0c-1.1,0.2-2.1-0.5-2.3-1.6C22.1,130.5,22.1,130.4,22.1,130.2z"/>
		</g>
		<g>
			<path class="st1" d="M30.1,125.7c0.5,0,1,0.1,1.5,0.3v0.9c-0.5-0.2-0.9-0.3-1.4-0.3c-1.2,0-1.7,0.8-1.7,2.4s0.5,2.4,1.7,2.4
				c0.5,0,1-0.1,1.4-0.3v0.9c-0.5,0.2-1,0.3-1.5,0.3c-1.9,0-2.6-1.2-2.6-3.3S28.2,125.7,30.1,125.7z"/>
		</g>
		<g>
			<path class="st1" d="M36.1,129.3h-2.7v2h2.9v0.9h-3.9v-6.4h3.9v0.9h-2.9v1.8h2.7V129.3z"/>
		</g>
		<g>
			<path class="st1" d="M38.7,132.2v-6.4h1v6.4H38.7z"/>
		</g>
		<g>
			<path class="st1" d="M41.7,131.3h2.8v0.9h-3.7v-6.4h1L41.7,131.3z"/>
		</g>
		<g>
			<path class="st1" d="M45.9,131.3h2.8v0.9H45v-6.4h1L45.9,131.3z"/>
		</g>
		<g>
			<path class="st1" d="M52.9,132.2l-2.8-4.5v4.5h-0.9v-6.4h0.9l2.8,4.5v-4.5h0.9v6.4H52.9z"/>
		</g>
		<g>
			<path class="st1" d="M58.3,129.3h-2.7v2h2.9v0.9h-3.9v-6.4h3.9v0.9h-2.9v1.8h2.7V129.3z"/>
		</g>
		<g>
			<path class="st1" d="M63.6,130.3c0,1.2-0.7,2-2.4,2c-0.6,0-1.3-0.1-1.9-0.4V131c0.6,0.3,1.2,0.4,1.8,0.4c1.2,0,1.5-0.5,1.5-1.1
				s-0.3-0.9-1.2-1c-1.5-0.2-2.2-0.6-2.2-1.8c0-0.9,0.5-1.8,2.3-1.8c0.6,0,1.2,0.1,1.7,0.3v1c-0.5-0.2-1.1-0.3-1.7-0.3
				c-1,0-1.3,0.4-1.3,1c0,0.7,0.4,0.8,1.2,0.9C62.8,128.7,63.6,129,63.6,130.3z"/>
		</g>
		<g>
			<path class="st1" d="M68.4,130.3c0,1.2-0.7,2-2.4,2c-0.6,0-1.3-0.1-1.9-0.4V131c0.6,0.3,1.2,0.4,1.8,0.4c1.1,0,1.5-0.5,1.5-1.1
				s-0.3-0.9-1.2-1c-1.6-0.2-2.2-0.6-2.2-1.8c0-0.9,0.5-1.8,2.3-1.8c0.6,0,1.2,0.1,1.7,0.3v1c-0.5-0.2-1.1-0.3-1.7-0.3
				c-1,0-1.3,0.4-1.3,1c0,0.7,0.4,0.8,1.2,0.9C67.7,128.7,68.4,129,68.4,130.3z"/>
		</g>
		<g>
			<path class="st1" d="M72.7,129.3h-2.7v2H73v0.9h-3.9v-6.4H73v0.9h-2.9v1.8h2.7V129.3z"/>
		</g>
		<g>
			<path class="st1" d="M77.9,130.3c0,1.2-0.7,2-2.4,2c-0.6,0-1.3-0.1-1.9-0.4V131c0.6,0.3,1.2,0.4,1.8,0.4c1.2,0,1.5-0.5,1.5-1.1
				s-0.3-0.9-1.2-1c-1.6-0.2-2.2-0.6-2.2-1.8c0-0.9,0.5-1.8,2.3-1.8c0.6,0,1.2,0.1,1.7,0.3v1c-0.5-0.2-1.1-0.3-1.7-0.3
				c-1,0-1.3,0.4-1.3,1c0,0.7,0.4,0.8,1.2,0.9C77.1,128.7,77.9,129,77.9,130.3z"/>
		</g>
		<g>
			<path class="st1" d="M10.1,139.6h-2l-0.4,1.6h-1l2-6.4h1l2,6.4h-1L10.1,139.6z M9.1,136l-0.8,2.8h1.6L9.1,136z"/>
		</g>
		<g>
			<path class="st1" d="M15.8,141.2l-2.8-4.5v4.5h-0.9v-6.4H13l2.8,4.5v-4.5h0.9v6.4H15.8z"/>
		</g>
		<g>
			<path class="st1" d="M17.6,141.2v-6.4h1.9c2.1,0,2.7,1.4,2.7,3.2s-0.6,3.2-2.7,3.2H17.6z M18.6,140.3h1c1.3,0,1.7-0.9,1.7-2.3
				s-0.4-2.3-1.7-2.3h-1V140.3z"/>
		</g>
		<g>
			<path class="st1" d="M24.4,141.2v-6.4h1.9c2.1,0,2.7,1.4,2.7,3.2s-0.6,3.2-2.7,3.2H24.4z M25.4,140.3h1c1.3,0,1.7-0.9,1.7-2.3
				s-0.4-2.3-1.7-2.3h-1V140.3z"/>
		</g>
		<g>
			<path class="st1" d="M33.3,138.3h-2.6v2h2.9v0.9h-3.9v-6.4h3.9v0.9h-2.9v1.8h2.6V138.3z"/>
		</g>
		<g>
			<path class="st1" d="M37.5,139.6h-2l-0.5,1.6H34l2-6.4h1l2,6.4h-1L37.5,139.6z M36.5,136l-0.8,2.8h1.6L36.5,136z"/>
		</g>
		<g>
			<path class="st1" d="M41.1,135.7v5.5h-1v-5.5h-1.6v-0.9h4.3v0.9H41.1z"/>
		</g>
		<g>
			<path class="st1" d="M46.8,141.2v-2.9h-2.6v2.9h-1v-6.4h1v2.6h2.6v-2.6h1v6.4H46.8z"/>
		</g>
		<g>
			<path class="st1" d="M53.6,138.4H51v2.8h-1v-6.4h3.8v0.9H51v1.8h2.6V138.4z"/>
		</g>
		<g>
			<path class="st1" d="M55.5,141.2h-1v-6.4h2.1c1.7,0,2.2,0.7,2.2,1.9c0.1,0.7-0.3,1.4-1,1.7l1.3,2.8H58l-1.2-2.6h-1.4V141.2z
				 M55.5,137.7h1.3c0.9,0,1-0.5,1-1s-0.1-1-1-1h-1.3V137.7z"/>
		</g>
		<g>
			<path class="st1" d="M59.5,138c0-1.8,0.4-3.3,2.5-3.3s2.5,1.5,2.5,3.3s-0.4,3.3-2.4,3.3S59.5,139.8,59.5,138z M60.5,138
				c0,1.5,0.3,2.4,1.5,2.4s1.5-0.9,1.5-2.4s-0.3-2.4-1.5-2.4S60.5,136.5,60.5,138L60.5,138z"/>
		</g>
		<g>
			<path class="st1" d="M68.7,140.3h-0.9l-1.6-3.9v4.8h-1v-6.4h1.3l1.7,4.3l1.8-4.3h1.2v6.4h-1v-4.8L68.7,140.3z"/>
		</g>
		<g>
			<path class="st1" d="M10.4,150.2v-2.9H7.8v2.9h-1v-6.4h1v2.6h2.6v-2.6h1v6.4H10.4z"/>
		</g>
		<g>
			<path class="st1" d="M15.4,148.6h-2l-0.4,1.6h-1l2-6.4h1l2,6.4h-1L15.4,148.6z M14.4,145l-0.8,2.8h1.6L14.4,145z"/>
		</g>
		<g>
			<path class="st1" d="M17.2,150.2v-0.6l3.3-4.8h-3v-0.9h4.3v0.6l-3.3,4.8h3.4v0.9L17.2,150.2z"/>
		</g>
		<g>
			<path class="st1" d="M25.6,148.6h-2l-0.5,1.6h-1l2-6.4h1l2,6.4h-1L25.6,148.6z M24.6,145l-0.8,2.8h1.6L24.6,145z"/>
		</g>
		<g>
			<path class="st1" d="M28.6,150.2h-1v-6.4h2.1c1.6,0,2.2,0.7,2.2,1.9c0.1,0.7-0.3,1.4-1,1.7l1.3,2.8h-1.2l-1.1-2.6h-1.3V150.2z
				 M28.6,146.7h1.3c0.9,0,1-0.5,1-1s-0.1-1-1-1h-1.3V146.7z"/>
		</g>
		<g>
			<path class="st1" d="M32.8,150.2v-6.4h1.9c2.1,0,2.7,1.4,2.7,3.2s-0.6,3.2-2.7,3.2H32.8z M33.8,149.3h1c1.3,0,1.7-0.9,1.7-2.3
				s-0.4-2.3-1.7-2.3h-1V149.3z"/>
		</g>
		<g>
			<path class="st1" d="M38,147c0-1.8,0.4-3.3,2.5-3.3s2.5,1.5,2.5,3.3s-0.4,3.3-2.5,3.3S38,148.8,38,147z M39,147
				c0,1.5,0.3,2.4,1.5,2.4s1.5-0.9,1.5-2.4s-0.3-2.4-1.5-2.4S39,145.5,39,147L39,147z"/>
		</g>
		<g>
			<path class="st1" d="M43.8,148.2v-4.4h1v4.3c0,0.8,0.6,1.4,1.4,1.4s1.4-0.6,1.4-1.4v-4.3h1v4.4c0.1,1.1-0.8,2.1-1.9,2.1
				c-0.1,0-0.3,0-0.4,0c-1.1,0.2-2.1-0.5-2.3-1.6C43.8,148.5,43.8,148.4,43.8,148.2z"/>
		</g>
		<g>
			<path class="st1" d="M53.4,148.3c0,1.2-0.7,2-2.4,2c-0.6,0-1.3-0.1-1.9-0.4V149c0.6,0.3,1.2,0.4,1.8,0.4c1.1,0,1.5-0.5,1.5-1.1
				s-0.3-0.9-1.2-1c-1.6-0.2-2.2-0.6-2.2-1.8c0-0.9,0.5-1.8,2.3-1.8c0.6,0,1.1,0.1,1.7,0.3v1c-0.5-0.2-1.1-0.3-1.7-0.3
				c-1,0-1.3,0.4-1.3,1s0.4,0.8,1.2,0.9C52.6,146.7,53.4,147,53.4,148.3z"/>
		</g>
		<g>
			<path class="st1" d="M9.4,152.7c0.5,0,1,0.1,1.5,0.3v0.9c-0.5-0.2-0.9-0.3-1.4-0.3c-1.2,0-1.7,0.8-1.7,2.4s0.5,2.4,1.7,2.4
				c0.5,0,1-0.1,1.4-0.3v0.9c-0.5,0.2-1,0.3-1.5,0.3c-1.9,0-2.6-1.2-2.6-3.3S7.5,152.7,9.4,152.7z"/>
		</g>
		<g>
			<path class="st1" d="M15.3,159.2v-2.9h-2.6v2.9h-1v-6.4h1v2.6h2.6v-2.6h1v6.4H15.3z"/>
		</g>
		<g>
			<path class="st1" d="M20.8,156.3h-2.6v2h2.9v0.9h-3.9v-6.4h3.9v0.9h-2.9v1.8h2.6V156.3z"/>
		</g>
		<g>
			<path class="st1" d="M25.4,158.3h-0.9l-1.6-3.9v4.8H22v-6.4h1.2l1.7,4.3l1.7-4.3h1.2v6.4h-1v-4.8L25.4,158.3z"/>
		</g>
		<g>
			<path class="st1" d="M28.9,159.2v-6.4h1v6.4H28.9z"/>
		</g>
		<g>
			<path class="st1" d="M33.4,152.7c0.5,0,1,0.1,1.5,0.3v0.9c-0.5-0.2-0.9-0.3-1.4-0.3c-1.2,0-1.7,0.8-1.7,2.4s0.5,2.4,1.7,2.4
				c0.5,0,1-0.1,1.4-0.3v0.9c-0.5,0.2-1,0.3-1.5,0.3c-1.9,0-2.6-1.2-2.6-3.3S31.5,152.7,33.4,152.7z"/>
		</g>
		<g>
			<path class="st1" d="M38.8,157.6h-2l-0.5,1.6h-1l2-6.4h1l2,6.4h-1L38.8,157.6z M37.8,154l-0.8,2.8h1.6L37.8,154z"/>
		</g>
		<g>
			<path class="st1" d="M41.8,158.3h2.8v0.9h-3.7v-6.4h1L41.8,158.3z"/>
		</g>
		<g>
			<path class="st1" d="M49.3,157.3c0,1.2-0.7,2-2.4,2c-0.6,0-1.3-0.1-1.9-0.4V158c0.6,0.3,1.2,0.4,1.8,0.4c1.2,0,1.5-0.5,1.5-1.1
				s-0.3-0.9-1.2-1c-1.5-0.2-2.2-0.6-2.2-1.8c0-0.9,0.5-1.8,2.3-1.8c0.6,0,1.2,0.1,1.7,0.3v1c-0.5-0.2-1.1-0.3-1.7-0.3
				c-1,0-1.3,0.4-1.3,1s0.4,0.8,1.2,0.9C48.5,155.7,49.3,156,49.3,157.3z"/>
		</g>
		<g>
			<path class="st1" d="M54.7,157.6h-2l-0.5,1.6h-1l2-6.4h1l2,6.4h-1L54.7,157.6z M53.7,154l-0.8,2.8h1.6L53.7,154z"/>
		</g>
		<g>
			<path class="st1" d="M60.4,159.2l-2.8-4.5v4.5h-0.9v-6.4h0.9l2.8,4.5v-4.5h1v6.4H60.4z"/>
		</g>
		<g>
			<path class="st1" d="M62.2,159.2v-6.4h1.9c2.1,0,2.7,1.4,2.7,3.2s-0.6,3.2-2.7,3.2H62.2z M63.2,158.3h1c1.3,0,1.7-0.9,1.7-2.3
				s-0.4-2.3-1.7-2.3h-1L63.2,158.3z"/>
		</g>
		<g>
			<path class="st1" d="M7.8,168.2h-1v-6.4h2.1c1.6,0,2.2,0.9,2.2,2s-0.6,2-2.2,2H7.8V168.2z M7.8,164.9H9c0.6,0.1,1.2-0.4,1.2-1
				c0.1-0.6-0.4-1.2-1-1.2c-0.1,0-0.1,0-0.2,0H7.8V164.9z"/>
		</g>
		<g>
			<path class="st1" d="M11.5,165c0-1.8,0.4-3.3,2.5-3.3s2.4,1.5,2.4,3.3s-0.4,3.3-2.4,3.3S11.5,166.8,11.5,165z M12.5,165
				c0,1.5,0.3,2.4,1.5,2.4s1.5-0.9,1.5-2.4s-0.3-2.4-1.5-2.4S12.5,163.5,12.5,165L12.5,165z"/>
		</g>
		<g>
			<path class="st1" d="M18.1,167.3h2.8v0.9h-3.7v-6.4h1L18.1,167.3z"/>
		</g>
		<g>
			<path class="st1" d="M22.4,167.3h2.8v0.9h-3.7v-6.4h1V167.3z"/>
		</g>
		<g>
			<path class="st1" d="M25.6,166.2v-4.4h1v4.3c-0.1,0.7,0.4,1.2,1,1.3c0.1,0,0.2,0,0.3,0c0.7,0.1,1.3-0.4,1.4-1c0-0.1,0-0.2,0-0.3
				v-4.3h1v4.4c0.1,1.1-0.8,2.1-1.9,2.1c-0.1,0-0.3,0-0.4,0c-1.1,0.2-2.1-0.6-2.3-1.7C25.6,166.5,25.6,166.3,25.6,166.2z"/>
		</g>
		<g>
			<path class="st1" d="M33.3,162.7v5.5h-1v-5.5h-1.6v-0.9H35v0.9H33.3z"/>
		</g>
		<g>
			<path class="st1" d="M35.7,168.2v-6.4h1v6.4H35.7z"/>
		</g>
		<g>
			<path class="st1" d="M37.5,165c0-1.8,0.4-3.3,2.5-3.3s2.5,1.5,2.5,3.3s-0.4,3.3-2.4,3.3S37.5,166.8,37.5,165z M38.5,165
				c0,1.5,0.3,2.4,1.5,2.4s1.5-0.9,1.5-2.4s-0.3-2.4-1.5-2.4S38.5,163.5,38.5,165L38.5,165z"/>
		</g>
		<g>
			<path class="st1" d="M46.8,168.2l-2.8-4.5v4.5h-0.9v-6.4H44l2.8,4.5v-4.5h1v6.4H46.8z"/>
		</g>
	</g>
	<g>
		<rect x="3.3" y="24" class="st1" width="94.8" height="94.8"/>
	</g>
	<g>
		<path class="st1" d="M98.2,20.7H3.3V3.3h94.8V20.7z M4.3,19.7h92.8V4.3H4.3L4.3,19.7z"/>
	</g>
	<g class="st2">
		<path class="st1" d="M83.5,9.2V10c0,0.9-0.5,1.4-1.2,1.7c0.9,0.2,1.3,0.8,1.3,1.7v1.5c0,1.4-0.8,2.3-2.5,2.3c-1.7,0-2.4-1-2.4-2.5
			v-1.3h1.6v1.5c0,0.6,0.2,1,0.8,1c0.5,0,0.8-0.4,0.8-0.9v-1.7c0-0.5-0.2-0.8-0.8-0.8h-0.7v-1.3h0.6c0.6,0,0.9-0.3,0.9-0.8V9.2
			c0-0.6-0.2-0.9-0.7-0.9s-0.7,0.4-0.7,1v1h-1.6V9.4c0-1.5,0.6-2.6,2.4-2.6C82.8,6.8,83.5,7.7,83.5,9.2z"/>
	</g>
	<g class="st2">
	</g>
	<g class="st2">
		<path class="st1" d="M86.4,10.8c0.7,0,1.2,0.6,1.2,1.2c0,0.7-0.6,1.2-1.2,1.2c-0.7,0-1.2-0.6-1.2-1.2
			C85.2,11.4,85.7,10.8,86.4,10.8z"/>
	</g>
	<g class="st2">
		<path class="st1" d="M94.3,9.5v4.9c0,1.6-0.7,2.7-2.5,2.7c-1.9,0-2.4-1-2.4-2.5v-0.5h1.6v0.7c0,0.6,0.2,1,0.8,1
			c0.6,0,0.9-0.4,0.9-1v-2.2h0c-0.3,0.5-0.7,0.8-1.4,0.8c-1.2,0-1.9-0.8-1.9-2.5V9.4c0-1.6,0.7-2.6,2.5-2.6
			C93.6,6.8,94.3,8,94.3,9.5z M91,9.2V11c0,0.7,0.2,1,0.8,1c0.5,0,0.8-0.4,0.8-0.9V9.2c0-0.6-0.2-1-0.8-1C91.2,8.2,91,8.6,91,9.2z"
			/>
	</g>
	<g class="st2">
		<path class="st1" d="M6.7,6.9h4.5v1.4H9.9v8.8H8.1V8.3H6.7V6.9z"/>
	</g>
	<g class="st2">
		<path class="st1" d="M11.2,17.1l1.9-10.2h1.9L17,17.1h-1.8l-0.3-1.9h-1.8l-0.3,1.9H11.2z M13.3,13.9h1.4L14,9.8h0L13.3,13.9z"/>
	</g>
	<g class="st2">
		<path class="st1" d="M19.6,12.4v4.7h-1.7V6.9h2.5c1.7,0,2.4,0.9,2.4,2.3v1.3c0,1.1-0.4,1.7-1.4,2l1.6,4.6h-1.8L19.6,12.4z
			 M19.6,8.3v3.2h0.6c0.6,0,0.8-0.3,0.8-0.8V9.2c0-0.6-0.3-0.8-0.8-0.8H19.6z"/>
	</g>
	<g class="st2">
		<path class="st1" d="M26.4,11.7h2.4v5.4h-1.2V16c-0.2,0.8-0.7,1.2-1.6,1.2c-1.5,0-2.1-1.2-2.1-2.7V9.6c0-1.6,0.8-2.7,2.6-2.7
			c1.9,0,2.4,1.1,2.4,2.6v0.9h-1.6v-1c0-0.6-0.2-1-0.9-1c-0.6,0-0.9,0.4-0.9,1v5.5c0,0.6,0.3,1,0.8,1c0.6,0,0.8-0.3,0.8-1V13h-0.8
			V11.7z"/>
	</g>
	<g class="st2">
		<path class="st1" d="M30.2,6.9h4.1v1.4h-2.4v2.9h1.7v1.4h-1.7v3.1h2.4v1.4h-4.1V6.9z"/>
	</g>
	<g class="st2">
		<path class="st1" d="M35.1,6.9h4.5v1.4h-1.4v8.8h-1.7V8.3h-1.4V6.9z"/>
	</g>
	<g>
		<path class="st1" d="M98.2,171.9h-95v-49.7h95V171.9z M4.2,170.9h93v-47.7h-93V170.9z"/>
	</g>
	<g>
		<g>
			<g>
				<path class="st0" d="M51.9,71.7h-1.7V67h1.7V71.7z M51.9,62.9h-1.7v-4.7h1.7V62.9z M51.9,54.1h-1.7v-4.7h1.7V54.1z"/>
			</g>
			<g>
				<path class="st0" d="M51.9,45.4h-1.7v-4.7h1.7V45.4z M51.9,36.5h-1.7v-4.7h1.7V36.5z"/>
			</g>
		</g>
		<g>
			<g>
				<path class="st0" d="M21.4,66.3l4.7-4.7C24,62.4,22.3,64.1,21.4,66.3z"/>
			</g>
			<g>
				<path class="st0" d="M25.5,76.8l11.2-11.2c-0.3-0.5-0.6-1.1-1-1.5L23.9,75.8C24.4,76.2,24.9,76.5,25.5,76.8z"/>
			</g>
			<g>
				<path class="st0" d="M29.2,77.7h0.2l8.1-8.1c0-0.1,0-0.2,0-0.2c0-0.7-0.1-1.3-0.3-2L27.2,77.4C27.8,77.6,28.5,77.7,29.2,77.7z"
					/>
			</g>
			<g>
				<path class="st0" d="M37,72.5l-4.5,4.6C34.5,76.2,36.1,74.6,37,72.5z"/>
			</g>
			<g>
				<path class="st0" d="M31.3,61.2c-0.7-0.2-1.4-0.3-2.1-0.3H29l-8.2,8.2c0,0,0,0.1,0,0.2c0,0.7,0.1,1.4,0.3,2.1L31.3,61.2z"/>
			</g>
			<g>
				<path class="st0" d="M22.8,74.7l11.8-11.8c-0.5-0.4-1-0.7-1.5-1L21.8,73.1C22,73.7,22.4,74.2,22.8,74.7z"/>
			</g>
			<g>
				<path class="st0" d="M18.5,108.1L44,82.6c-0.5-0.3-1.1-0.6-1.7-0.9l-23.8,23.8V108.1z"/>
			</g>
			<g>
				<polygon class="st0" points="15.8,98.6 9.3,105.1 9.3,107.6 15.8,101.1 				"/>
			</g>
			<g>
				<path class="st0" d="M18.5,103.2l22-22c-0.5-0.1-1-0.2-1.5-0.3c-0.2,0-0.4,0-0.6,0l0,0l-19.8,19.8L18.5,103.2z"/>
			</g>
			<g>
				<polygon class="st0" points="15.8,110.8 15.8,108.3 13,111.1 15.5,111.1 				"/>
			</g>
			<g>
				<path class="st0" d="M15.8,95.3c0-0.8,0.2-1.8,1.6-1.8c0.3,0,0.6,0.1,0.8,0.3l13-13h-2.5L9.3,100.2v2.5l6.5-6.5L15.8,95.3z"/>
			</g>
			<g>
				<path class="st0" d="M20,80.9c-0.2,0-0.4,0-0.6,0c-0.2,0-0.5,0.1-0.7,0.1l-9.3,9.3c-0.1,0.6-0.1,1.2-0.1,1.8V93l12.1-12.1H20z"
					/>
			</g>
			<g>
				<polygon class="st0" points="23.7,80.9 9.3,95.3 9.3,96.1 9.3,97.9 26.3,80.9 				"/>
			</g>
			<g>
				<polygon class="st0" points="15.8,106 15.8,103.4 9.3,109.9 9.3,111.1 10.6,111.1 				"/>
			</g>
			<g>
				<path class="st0" d="M46.6,84.9c-0.4-0.5-0.8-0.9-1.2-1.3l-26.8,26.8v0.7h1.9L46.6,84.9z"/>
			</g>
			<g>
				<polygon class="st0" points="49.1,108.9 47,111.1 49.1,111.1 				"/>
			</g>
			<g>
				<path class="st0" d="M39.9,96.5v-1.2c0-0.6,0.2-1.6,1.2-1.6c0.5,0,0.9,0.1,1.2,0.5l6.1-6.1c-0.2-0.6-0.5-1.2-0.8-1.7l-24.8,24.8
					h2.5L39.9,96.5z"/>
			</g>
			<g>
				<polygon class="st0" points="39.9,101.3 39.9,98.8 27.6,111.1 30.1,111.1 				"/>
			</g>
			<g>
				<path class="st0" d="M10.6,86.8l4.6-4.6C13.2,83.3,11.6,84.9,10.6,86.8z"/>
			</g>
			<g>
				<polygon class="st0" points="18.5,98.4 36,80.9 33.5,80.9 18.5,95.8 				"/>
			</g>
			<g>
				<polygon class="st0" points="39.9,111.1 39.9,108.5 37.3,111.1 39.9,111.1 				"/>
			</g>
			<g>
				<path class="st0" d="M42.7,98.6l6.5-6.5l0,0c0-0.8-0.1-1.5-0.2-2.3l-6.2,6.3L42.7,98.6z"/>
			</g>
			<g>
				<polygon class="st0" points="39.9,106.2 39.9,103.7 32.5,111.1 35,111.1 				"/>
			</g>
			<g>
				<polygon class="st0" points="42.7,108.3 49.1,101.8 49.1,99.3 42.7,105.8 				"/>
			</g>
			<g>
				<polygon class="st0" points="49.1,106.6 49.1,104.2 42.7,110.7 42.7,111.1 44.7,111.1 				"/>
			</g>
			<g>
				<polygon class="st0" points="49.1,96.1 49.1,94.9 49.1,94.4 42.7,100.9 42.7,103.5 49.1,97 				"/>
			</g>
		</g>
		<g>
			<g>
				<path class="st0" d="M73,77.7c4.6,0,8.4-3.8,8.4-8.4s-3.8-8.4-8.4-8.4c-4.6,0-8.4,3.8-8.4,8.4C64.6,73.9,68.4,77.7,73,77.7
					C73,77.7,73,77.7,73,77.7z"/>
			</g>
			<g>
				<path class="st0" d="M59.5,95.3c0-0.8,0.2-1.8,1.6-1.8c0.9,0,1.1,1,1.2,1.6v15.9h21.3V95.2c0-0.6,0.2-1.6,1.2-1.6
					c1.4,0,1.6,1,1.6,1.8v15.8h6.5v-19c0-5.8-4.4-10.6-10.1-11.2c-0.2,0-0.4,0-0.6,0H63.8c-0.2,0-0.4,0-0.6,0
					C57.4,81.4,53,86.3,53,92v19h6.5L59.5,95.3z M76.9,91.6c0.6,0,1.2,0.6,1.5,1c0.4-0.5,1-0.9,1.6-1c1,0,1.9,0.9,1.8,2
					c0,0,0,0.1,0,0.1c0,0.5-0.2,1.1-0.6,1.5l0,0L78.4,98l-2.8-2.8c-0.4-0.4-0.6-0.9-0.6-1.5c-0.1-1.1,0.7-2,1.8-2.1
					C76.8,91.6,76.9,91.6,76.9,91.6z"/>
			</g>
		</g>
		<g>
			<g>
				<path class="st0" d="M26.3,40.6c1.7-1.4,4.1-1.4,5.8,0c0.4-0.4,0.7-0.8,1-1.3c-2.3-1.8-5.6-1.8-7.9,0
					C25.6,39.8,25.9,40.2,26.3,40.6z"/>
			</g>
			<g>
				<path class="st0" d="M36.2,40.2c0-0.1,0-0.1,0-0.2c0.5-3.8-2.1-7.4-6-7.9c0,0,0,0,0,0v0.3c2.7,0.5,4.4,3.1,3.9,5.8
					c-0.4,2.2-2.3,3.8-4.6,4v0.7l0.3,0.1c0.7,0.3,1.1,1.1,0.8,1.8l0.6,0.4c1.4-2.4,4.4-3.2,6.7-1.8c2.1,1.2,3,3.8,2.1,6.1l0.2,0.1
					l0.1-0.2C41.7,45.7,39.8,41.6,36.2,40.2C36.2,40.3,36.2,40.3,36.2,40.2z"/>
			</g>
			<g>
				<path class="st0" d="M33.1,52.1c-2.4-1.3-3.3-4.2-2.1-6.6l-0.6-0.4c-0.1,0.1-0.1,0.1-0.2,0.2c-0.6,0.5-1.5,0.4-2-0.2
					c0,0,0,0,0,0l-0.6,0.4c1.3,2.4,0.4,5.4-2,6.7c-2,1.1-4.6,0.6-6.1-1.2l-0.2,0.1c0,0,0.1,0.1,0.1,0.2c2.4,3,6.8,3.5,9.8,1
					c0,0,0,0,0,0c0.1,0,0.1,0.1,0.2,0.1c3.1,2.4,7.5,1.8,9.8-1.2c0,0,0,0,0,0L39,51C37.5,52.7,35.1,53.1,33.1,52.1z"/>
			</g>
			<g>
				<path class="st0" d="M31,48.6c0.1,0.5,0.3,1.1,0.6,1.5c2.7-1.1,4.4-3.9,3.9-6.8c-0.6,0-1.1,0.1-1.6,0.2
					C34.2,45.7,33,47.8,31,48.6z"/>
			</g>
			<g>
				<path class="st0" d="M23,43.3c-0.4,2.9,1.2,5.7,3.9,6.8c0.3-0.5,0.5-1,0.6-1.5c-2-0.8-3.2-2.9-2.9-5
					C24.1,43.4,23.5,43.3,23,43.3z"/>
			</g>
			<g>
				<path class="st0" d="M20.5,43.6c2.3-1.5,5.3-0.8,6.8,1.5l0.6-0.4c0-0.1-0.1-0.2-0.1-0.3c-0.1-0.8,0.4-1.5,1.1-1.6v-0.7
					c-2.7-0.1-4.8-2.4-4.7-5.2c0.1-2.2,1.7-4.1,4-4.6v-0.3h-0.2c-3.8,0.6-6.4,4.2-5.8,8c0,0,0,0,0,0l-0.2,0.1
					c-3.6,1.5-5.3,5.5-3.8,9.1c0,0,0,0,0,0l0.2-0.1C17.8,47.2,18.6,44.8,20.5,43.6z"/>
			</g>
		</g>
		<g>
			<g>
				<path class="st0" d="M15.7,63.3c0,0.4-0.3,0.7-0.7,0.7c0,0,0,0,0,0c-0.4,0-0.7-0.3-0.7-0.7c0-0.4,0.3-0.7,0.7-0.7l0,0
					C15.4,62.6,15.7,62.9,15.7,63.3C15.7,63.3,15.7,63.3,15.7,63.3z"/>
			</g>
			<g>
				<path class="st0" d="M11,39.2c0,0.6-0.4,1-1,1s-1-0.4-1-1s0.4-1,1-1S11,38.6,11,39.2z"/>
			</g>
			<g>
				<path class="st0" d="M46.7,50.7c0,0.6-0.4,1-1,1s-1-0.4-1-1s0.4-1,1-1S46.7,50.1,46.7,50.7z"/>
			</g>
			<g>
				<path class="st0" d="M41.2,58.7c0,0.7-0.6,1.3-1.3,1.3c-0.7,0-1.3-0.6-1.3-1.3s0.6-1.3,1.3-1.3C40.7,57.4,41.2,58,41.2,58.7z"/>
			</g>
			<g>
				<path class="st0" d="M12.5,53.8c0,0.7-0.6,1.3-1.3,1.3c-0.7,0-1.3-0.6-1.3-1.3c0-0.7,0.6-1.3,1.3-1.3c0,0,0,0,0,0
					C12,52.6,12.5,53.1,12.5,53.8z"/>
			</g>
			<g>
				<path class="st0" d="M44.8,34.7c0,0.7-0.6,1.3-1.3,1.3c-0.7,0-1.3-0.6-1.3-1.3c0-0.7,0.6-1.3,1.3-1.3c0,0,0,0,0,0
					C44.2,33.4,44.8,34,44.8,34.7z"/>
			</g>
			<g>
				<path class="st0" d="M46.7,68.5c0,0.6-0.4,1-1,1s-1-0.4-1-1s0.4-1,1-1S46.7,68,46.7,68.5z"/>
			</g>
			<g>
				<path class="st0" d="M10,69.5c0,0.4-0.3,0.7-0.7,0.7c-0.4,0-0.7-0.3-0.7-0.7c0-0.4,0.3-0.7,0.7-0.7c0,0,0,0,0,0
					C9.7,68.8,10,69.1,10,69.5C10,69.5,10,69.5,10,69.5z"/>
			</g>
			<g>
				<path class="st0" d="M15.1,74c0,0.6-0.4,1-1,1s-1-0.4-1-1s0.4-1,1-1S15.1,73.5,15.1,74z"/>
			</g>
		</g>
	</g>
</g>
</svg>
