<?xml version="1.0" encoding="utf-8"?>
<!-- Generator: Adobe Illustrator 22.0.1, SVG Export Plug-In . SVG Version: 6.00 Build 0)  -->
<svg version="1.1" id="Layer_1" xmlns="http://www.w3.org/2000/svg" xmlns:xlink="http://www.w3.org/1999/xlink" x="0px" y="0px"
	 viewBox="0 0 101.5 166.3" style="enable-background:new 0 0 101.5 166.3;" xml:space="preserve">
<style type="text/css">
	.st0{fill:#FFFFFF;}
	.st1{fill:#4C9F38;}
	.st2{enable-background:new    ;}
</style>
<title>TARGET 1 B copy 6</title>
<g id="WHITE_BG">
	<g>
		<rect y="0" class="st0" width="101.5" height="166.3"/>
	</g>
</g>
<g id="TARGETS">
	<g>
		<g>
			<path class="st1" d="M7,132.2v-6.4h1v6.4H7z"/>
		</g>
		<g>
			<path class="st1" d="M12.5,131.3h-0.9l-1.6-3.9v4.8H9.1v-6.4h1.2l1.7,4.3l1.7-4.3H15v6.4h-1v-4.8L12.5,131.3z"/>
		</g>
		<g>
			<path class="st1" d="M16.9,132.2h-1v-6.4h2c1.6,0,2.2,1,2.2,2c0,1-0.6,2-2.2,2h-1V132.2z M16.9,128.9H18c0.6,0.1,1.2-0.4,1.2-1
				s-0.4-1.2-1-1.2c-0.1,0-0.1,0-0.2,0h-1.1V128.9z"/>
		</g>
		<g>
			<path class="st1" d="M21.8,132.2h-1v-6.4h2.1c1.6,0,2.2,0.7,2.2,1.9c0.1,0.7-0.3,1.4-1,1.7l1.3,2.8h-1.1l-1.2-2.6h-1.3V132.2z
				 M21.8,128.7H23c0.9,0,1-0.5,1-1s-0.1-1-1-1h-1.2V128.7z"/>
		</g>
		<g>
			<path class="st1" d="M25.8,129c0-1.8,0.4-3.3,2.5-3.3s2.5,1.5,2.5,3.3s-0.4,3.3-2.5,3.3S25.8,130.8,25.8,129z M26.8,129
				c0,1.5,0.3,2.4,1.5,2.4s1.5-0.9,1.5-2.4s-0.3-2.4-1.5-2.4S26.8,127.5,26.8,129L26.8,129z"/>
		</g>
		<g>
			<path class="st1" d="M36,125.8l-2,6.4h-1l-2-6.4h1l1.5,5.2l1.5-5.2L36,125.8z"/>
		</g>
		<g>
			<path class="st1" d="M40.1,129.3h-2.6v2h2.9v0.9h-3.9v-6.4h3.9v0.9h-2.9v1.8h2.6V129.3z"/>
		</g>
		<g>
			<path class="st1" d="M46.2,129.3h-2.6v2h2.9v0.9h-3.9v-6.4h3.9v0.9h-2.9v1.8h2.7L46.2,129.3z"/>
		</g>
		<g>
			<path class="st1" d="M50.4,130.6h-2l-0.5,1.6h-1l2-6.4h1l2,6.4h-1L50.4,130.6z M49.4,127l-0.8,2.8h1.6L49.4,127z"/>
		</g>
		<g>
			<path class="st1" d="M53.3,132.2h-1v-6.4h2.1c1.7,0,2.2,0.7,2.2,1.9c0.1,0.7-0.3,1.4-1,1.7l1.3,2.8h-1.1l-1.2-2.6h-1.3V132.2z
				 M53.3,128.7h1.3c0.9,0,1-0.5,1-1s-0.1-1-1-1h-1.3V128.7z"/>
		</g>
		<g>
			<path class="st1" d="M58.5,131.3h2.8v0.9h-3.7v-6.4h1L58.5,131.3z"/>
		</g>
		<g>
			<path class="st1" d="M63.4,129.6v2.6h-1v-2.6l-2.2-3.8h1.1l1.6,3l1.6-3h1.1L63.4,129.6z"/>
		</g>
		<g>
			<path class="st1" d="M9.5,134.8h1.2l1.1,5l0.8-5h1l-1.2,6.4h-1.1l-1.1-5.3L9,141.3H7.8l-1.2-6.4h1l0.8,5L9.5,134.8z"/>
		</g>
		<g>
			<path class="st1" d="M16.9,139.6h-2l-0.4,1.6h-1l2-6.4h1l2,6.4h-1L16.9,139.6z M15.9,136l-0.8,2.8h1.6L15.9,136z"/>
		</g>
		<g>
			<path class="st1" d="M19.9,141.2h-1v-6.4H21c1.6,0,2.2,0.7,2.2,1.9c0.1,0.7-0.3,1.4-1,1.7l1.3,2.8h-1.2l-1.1-2.6h-1.3V141.2z
				 M19.9,137.7h1.3c0.9,0,1-0.5,1-1s-0.1-1-1-1h-1.3V137.7z"/>
		</g>
		<g>
			<path class="st1" d="M27.7,141.2l-2.8-4.5v4.5H24v-6.4h0.9l2.8,4.5v-4.5h0.9v6.4H27.7z"/>
		</g>
		<g>
			<path class="st1" d="M29.6,141.2v-6.4h1v6.4H29.6z"/>
		</g>
		<g>
			<path class="st1" d="M35.3,141.2l-2.8-4.5v4.5h-0.9v-6.4h0.9l2.8,4.5v-4.5h0.9v6.4H35.3z"/>
		</g>
		<g>
			<path class="st1" d="M37,138c0-2,0.7-3.3,2.6-3.3c0.6,0,1.3,0.1,1.8,0.3v1c-0.5-0.2-1.1-0.4-1.7-0.4c-1.3,0-1.8,0.9-1.8,2.4
				s0.5,2.4,1.8,2.4c0.3,0,0.6,0,0.9-0.1v-1.7h-1.2v-0.9h2.1v3.2c-0.6,0.3-1.3,0.4-2,0.4C37.7,141.3,37,140,37,138z"/>
		</g>
		<g>
			<path class="st1" d="M48,139.3c0,1.2-0.7,2-2.4,2c-0.6,0-1.3-0.1-1.9-0.4V140c0.6,0.3,1.2,0.4,1.8,0.4c1.1,0,1.5-0.5,1.5-1.1
				s-0.3-0.9-1.2-1c-1.6-0.2-2.2-0.6-2.2-1.8c0-0.9,0.5-1.8,2.3-1.8c0.6,0,1.2,0.1,1.7,0.3v1c-0.5-0.2-1.1-0.3-1.7-0.3
				c-1,0-1.3,0.4-1.3,1s0.4,0.8,1.2,0.9C47.2,137.7,48,138,48,139.3z"/>
		</g>
		<g>
			<path class="st1" d="M51.2,138.6v2.6h-1v-2.6l-2.2-3.8h1.1l1.6,3l1.6-3h1.1L51.2,138.6z"/>
		</g>
		<g>
			<path class="st1" d="M57.7,139.3c0,1.2-0.7,2-2.4,2c-0.6,0-1.3-0.1-1.9-0.4V140c0.6,0.3,1.2,0.4,1.8,0.4c1.1,0,1.5-0.5,1.5-1.1
				s-0.3-0.9-1.2-1c-1.6-0.2-2.2-0.6-2.2-1.8c0-0.9,0.5-1.8,2.3-1.8c0.6,0,1.2,0.1,1.7,0.3v1c-0.5-0.2-1.1-0.3-1.7-0.3
				c-1,0-1.3,0.4-1.3,1s0.4,0.8,1.2,0.9C56.9,137.7,57.7,138,57.7,139.3z"/>
		</g>
		<g>
			<path class="st1" d="M60.5,135.7v5.5h-1v-5.5h-1.6v-0.9h4.3v0.9H60.5z"/>
		</g>
		<g>
			<path class="st1" d="M66.5,138.3h-2.7v2h2.9v0.9h-3.9v-6.4h3.9v0.9h-2.9v1.8h2.7V138.3z"/>
		</g>
		<g>
			<path class="st1" d="M71,140.3h-0.9l-1.6-3.9v4.8h-1v-6.4h1.2l1.7,4.3l1.7-4.3h1.2v6.4h-1v-4.8L71,140.3z"/>
		</g>
		<g>
			<path class="st1" d="M78.5,139.3c0,1.2-0.7,2-2.4,2c-0.6,0-1.3-0.1-1.9-0.4V140c0.6,0.3,1.2,0.4,1.8,0.4c1.2,0,1.5-0.5,1.5-1.1
				s-0.3-0.9-1.2-1c-1.6-0.2-2.2-0.6-2.2-1.8c0-0.9,0.5-1.8,2.3-1.8c0.6,0,1.2,0.1,1.7,0.3v1c-0.5-0.2-1.1-0.3-1.7-0.3
				c-1,0-1.3,0.4-1.3,1s0.4,0.8,1.2,0.9C77.7,137.7,78.5,138,78.5,139.3z"/>
		</g>
		<g>
			<path class="st1" d="M10.4,147.4H7.8v2.8h-1v-6.4h3.9v0.9H7.8v1.8h2.6V147.4z"/>
		</g>
		<g>
			<path class="st1" d="M11.2,147c0-1.8,0.4-3.3,2.5-3.3s2.5,1.5,2.5,3.3s-0.4,3.3-2.5,3.3S11.2,148.8,11.2,147z M12.2,147
				c0,1.5,0.3,2.4,1.5,2.4s1.5-0.9,1.5-2.4s-0.3-2.4-1.5-2.4S12.1,145.5,12.2,147L12.2,147z"/>
		</g>
		<g>
			<path class="st1" d="M17.8,150.2h-1v-6.4h2.1c1.6,0,2.2,0.7,2.2,1.9c0.1,0.7-0.3,1.4-1,1.7l1.3,2.8h-1.1l-1.2-2.6h-1.3V150.2z
				 M17.8,146.7H19c0.9,0,1-0.5,1-1s-0.1-1-1-1h-1.2V146.7z"/>
		</g>
		<g>
			<path class="st1" d="M23.3,147c0-2,0.7-3.3,2.6-3.3c0.6,0,1.3,0.1,1.8,0.3v1c-0.5-0.2-1.1-0.4-1.7-0.4c-1.3,0-1.8,0.9-1.8,2.4
				s0.5,2.4,1.8,2.4c0.3,0,0.6,0,0.9-0.1v-1.7h-1.1v-0.9h2.1v3.2c-0.6,0.3-1.3,0.4-2,0.4C24,150.3,23.3,149,23.3,147z"/>
		</g>
		<g>
			<path class="st1" d="M29.8,149.3h2.8v0.9h-3.7v-6.4h1L29.8,149.3z"/>
		</g>
		<g>
			<path class="st1" d="M32.6,147c0-1.8,0.4-3.3,2.5-3.3s2.5,1.5,2.5,3.3s-0.4,3.3-2.5,3.3S32.6,148.8,32.6,147z M33.6,147
				c0,1.5,0.3,2.4,1.5,2.4s1.5-0.9,1.5-2.4s-0.3-2.4-1.5-2.4S33.5,145.5,33.6,147L33.6,147z"/>
		</g>
		<g>
			<path class="st1" d="M38.2,143.8h2.1c1.6,0,2,0.8,2,1.7c0,0.5-0.3,1-0.8,1.3c0.6,0.2,1.1,0.8,1,1.5c0,1.1-0.5,1.9-2.2,1.9h-2.2
				L38.2,143.8z M40.4,144.7h-1.2v1.8h1.2c0.8,0,1-0.5,1-0.9S41.2,144.7,40.4,144.7z M39.2,149.3h1.3c0.9,0,1.1-0.5,1.1-1
				s-0.3-1-1.1-1h-1.3V149.3z"/>
		</g>
		<g>
			<path class="st1" d="M46.3,148.6h-2l-0.5,1.6h-1l2-6.4h1l2,6.4h-1L46.3,148.6z M45.3,145l-0.8,2.8h1.6L45.3,145z"/>
		</g>
		<g>
			<path class="st1" d="M49.3,149.3h2.8v0.9h-3.7v-6.4h1L49.3,149.3z"/>
		</g>
		<g>
			<path class="st1" d="M57.6,150.2v-2.9H55v2.9h-1v-6.4h1v2.6h2.6v-2.6h1v6.4H57.6z"/>
		</g>
		<g>
			<path class="st1" d="M63.1,147.3h-2.7v2h2.9v0.9h-3.9v-6.4h3.9v0.9h-2.9v1.8h2.7V147.3z"/>
		</g>
		<g>
			<path class="st1" d="M67.3,148.6h-2l-0.4,1.6h-1l2-6.4h1l2,6.4h-1L67.3,148.6z M66.3,145l-0.8,2.8h1.6L66.3,145z"/>
		</g>
		<g>
			<path class="st1" d="M70.3,149.3h2.8v0.9h-3.7v-6.4h1L70.3,149.3z"/>
		</g>
		<g>
			<path class="st1" d="M75.1,144.7v5.5h-1v-5.5h-1.6v-0.9h4.3v0.9H75.1z"/>
		</g>
		<g>
			<path class="st1" d="M80.8,150.2v-2.9h-2.6v2.9h-1v-6.4h1v2.6h2.6v-2.6h1v6.4H80.8z"/>
		</g>
		<g>
			<path class="st1" d="M7.8,159.2h-1v-6.4H9c1.6,0,2.2,0.7,2.2,1.9c0.1,0.7-0.3,1.4-1,1.7l1.3,2.8h-1.2l-1.1-2.6H7.8V159.2z
				 M7.8,155.7h1.3c0.9,0,1-0.5,1-1s-0.1-1-1-1H7.8V155.7z"/>
		</g>
		<g>
			<path class="st1" d="M12.1,159.2v-6.4H13v6.4H12.1z"/>
		</g>
		<g>
			<path class="st1" d="M18.3,157.3c0,1.2-0.7,2-2.4,2c-0.6,0-1.3-0.1-1.9-0.4V158c0.6,0.3,1.2,0.4,1.8,0.4c1.2,0,1.5-0.5,1.5-1.1
				s-0.3-0.9-1.2-1c-1.6-0.2-2.1-0.6-2.1-1.8c0-0.9,0.5-1.8,2.2-1.8c0.6,0,1.2,0.1,1.8,0.3v1c-0.5-0.2-1.1-0.3-1.7-0.3
				c-1,0-1.3,0.4-1.3,1s0.4,0.8,1.2,0.9C17.5,155.7,18.3,156,18.3,157.3z"/>
		</g>
		<g>
			<path class="st1" d="M20.6,156.4L20,157v2.2h-1v-6.4h1v3l2.3-3h1.2l-2.3,2.8l2.6,3.6h-1.2L20.6,156.4z"/>
		</g>
		<g>
			<path class="st1" d="M28.2,157.3c0,1.2-0.7,2-2.4,2c-0.6,0-1.3-0.1-1.9-0.4V158c0.6,0.3,1.2,0.4,1.8,0.4c1.1,0,1.5-0.5,1.5-1.1
				s-0.3-0.9-1.1-1c-1.6-0.2-2.2-0.6-2.2-1.8c0-0.9,0.5-1.8,2.3-1.8c0.6,0,1.2,0.1,1.7,0.3v1c-0.5-0.2-1.1-0.3-1.7-0.3
				c-1,0-1.3,0.4-1.3,1s0.4,0.8,1.2,0.9C27.4,155.7,28.2,156,28.2,157.3z"/>
		</g>
	</g>
	<g>
		<rect x="3.3" y="24" class="st1" width="94.8" height="94.8"/>
	</g>
	<g>
		<path class="st1" d="M98.2,20.7H3.3V3.3h94.8V20.7z M4.3,19.7h92.8V4.3H4.3L4.3,19.7z"/>
	</g>
	<g class="st2">
		<path class="st1" d="M6.7,6.9h4.5v1.4H9.9v8.8H8.1V8.3H6.7V6.9z"/>
	</g>
	<g class="st2">
		<path class="st1" d="M11.2,17.1l1.9-10.2h1.9L17,17.1h-1.8l-0.3-1.9h-1.8l-0.3,1.9H11.2z M13.3,13.9h1.4L14,9.8h0L13.3,13.9z"/>
	</g>
	<g class="st2">
		<path class="st1" d="M19.6,12.4v4.7h-1.7V6.9h2.5c1.7,0,2.4,0.9,2.4,2.3v1.3c0,1.1-0.4,1.7-1.4,2l1.6,4.6h-1.8L19.6,12.4z
			 M19.6,8.3v3.2h0.6c0.6,0,0.8-0.3,0.8-0.8V9.2c0-0.6-0.3-0.8-0.8-0.8H19.6z"/>
	</g>
	<g class="st2">
		<path class="st1" d="M26.4,11.7h2.4v5.4h-1.2V16c-0.2,0.8-0.7,1.2-1.6,1.2c-1.5,0-2.1-1.2-2.1-2.7V9.6c0-1.6,0.8-2.7,2.6-2.7
			c1.9,0,2.4,1.1,2.4,2.6v0.9h-1.6v-1c0-0.6-0.2-1-0.9-1c-0.6,0-0.9,0.4-0.9,1v5.5c0,0.6,0.3,1,0.8,1c0.6,0,0.8-0.3,0.8-1V13h-0.8
			V11.7z"/>
	</g>
	<g class="st2">
		<path class="st1" d="M30.2,6.9h4.1v1.4h-2.4v2.9h1.7v1.4h-1.7v3.1h2.4v1.4h-4.1V6.9z"/>
	</g>
	<g class="st2">
		<path class="st1" d="M35.1,6.9h4.5v1.4h-1.4v8.8h-1.7V8.3h-1.4V6.9z"/>
	</g>
	<g class="st2">
		<path class="st1" d="M94.3,9.7v4.7c0,1.6-0.6,2.7-2.5,2.7h-2.6V6.9h2.6C93.7,6.9,94.3,8.1,94.3,9.7z M91.6,15.7c0.7,0,1-0.4,1-1
			V9.4c0-0.6-0.3-1-1-1h-0.7v7.4H91.6z"/>
	</g>
	<g class="st2">
		<path class="st1" d="M83.1,9.1V10c0,0.9-0.5,1.4-1.2,1.7c0.9,0.2,1.3,0.8,1.3,1.7v1.5c0,1.4-0.8,2.3-2.5,2.3c-1.7,0-2.4-1-2.4-2.5
			v-1.3h1.6v1.5c0,0.6,0.2,1,0.8,1c0.5,0,0.8-0.4,0.8-0.9v-1.7c0-0.5-0.2-0.8-0.8-0.8h-0.7v-1.3h0.6c0.6,0,0.9-0.3,0.9-0.8V9.1
			c0-0.6-0.2-0.9-0.7-0.9S80,8.6,80,9.2v1h-1.6V9.3c0-1.5,0.6-2.6,2.4-2.6C82.4,6.8,83.1,7.7,83.1,9.1z"/>
	</g>
	<g>
		<polygon class="st1" points="85.4,9.9 85.4,14.1 87.6,12 		"/>
	</g>
	<g>
		<path class="st1" d="M98.2,162.9h-95v-40.7h95V162.9z M4.2,161.9h93v-38.7h-93V161.9z"/>
	</g>
	<g>
		<g>
			<path class="st0" d="M67.3,33.1H34.2c-2.1,0-3.8,1.7-3.8,3.8c0,0,0,0,0,0v69c0,2.1,1.7,3.8,3.8,3.8h33.2c2.1,0,3.8-1.7,3.8-3.8
				V37C71.2,34.9,69.5,33.2,67.3,33.1C67.3,33.1,67.3,33.1,67.3,33.1z M50.9,105.3c-2.3,0-4.2-1.9-4.2-4.2c0-2.3,1.9-4.2,4.2-4.2
				c2.3,0,4.2,1.9,4.2,4.2l0,0C55.1,103.4,53.2,105.3,50.9,105.3C50.9,105.3,50.9,105.3,50.9,105.3z M68.3,92.6H33.5v-56h34.7V92.6z
				"/>
		</g>
		<g>
			<path class="st0" d="M64.6,75.3L51,49.3c-0.1-0.1-0.2-0.2-0.4-0.1c-0.1,0-0.1,0.1-0.1,0.1l-13.5,26c-0.1,0.1,0,0.3,0.1,0.4
				c0,0,0.1,0,0.1,0h27.1c0.2,0,0.3-0.1,0.3-0.3C64.6,75.4,64.6,75.4,64.6,75.3z M52.3,56.9l-0.7,11.8h-1.7l-0.7-11.8H52.3z
				 M50.7,73.5c-0.9,0-1.6-0.7-1.6-1.6c0-0.9,0.7-1.6,1.6-1.6s1.6,0.7,1.6,1.6l0,0C52.3,72.8,51.6,73.5,50.7,73.5z"/>
		</g>
	</g>
</g>
</svg>
