<?xml version="1.0" encoding="utf-8"?>
<!-- Generator: Adobe Illustrator 22.0.1, SVG Export Plug-In . SVG Version: 6.00 Build 0)  -->
<svg version="1.1" id="Layer_1" xmlns="http://www.w3.org/2000/svg" xmlns:xlink="http://www.w3.org/1999/xlink" x="0px" y="0px"
	 viewBox="0 0 101.5 157.1" style="enable-background:new 0 0 101.5 157.1;" xml:space="preserve">
<style type="text/css">
	.st0{fill:#FFFFFF;}
	.st1{fill:#4C9F38;}
	.st2{enable-background:new    ;}
</style>
<title>TARGET 1.2</title>
<g id="WHITE_BG">
	<g>
		<rect y="0" class="st0" width="101.5" height="157.1"/>
	</g>
</g>
<g id="TARGETS">
	<g>
		<g>
			<path class="st1" d="M10.5,129.3H7.8v2h2.9v0.9H6.9v-6.4h3.9v0.9H7.8v1.8h2.6V129.3z"/>
		</g>
		<g>
			<path class="st1" d="M15.3,132.2l-2.8-4.5v4.5h-0.9v-6.4h0.9l2.8,4.5v-4.5h0.9v6.4H15.3z"/>
		</g>
		<g>
			<path class="st1" d="M17.1,132.2v-6.4H19c2.1,0,2.7,1.4,2.7,3.2s-0.6,3.2-2.7,3.2H17.1z M18.1,131.3h1c1.3,0,1.7-0.9,1.7-2.3
				s-0.4-2.3-1.7-2.3h-1V131.3z"/>
		</g>
		<g>
			<path class="st1" d="M27.1,130.6h-2l-0.5,1.6h-1l2-6.4h1l2,6.4h-1L27.1,130.6z M26.1,127l-0.8,2.8h1.6L26.1,127z"/>
		</g>
		<g>
			<path class="st1" d="M30,131.3h2.8v0.9h-3.7v-6.4h1L30,131.3z"/>
		</g>
		<g>
			<path class="st1" d="M34.3,131.3h2.8v0.9h-3.7v-6.4h1V131.3z"/>
		</g>
		<g>
			<path class="st1" d="M40,132.2h-1v-6.4h2c1.6,0,2.2,1,2.2,2c0,1-0.6,2-2.2,2h-1V132.2z M40,129h1.1c0.6,0,1.1-0.5,1.1-1.1
				c0-0.6-0.5-1.1-1.1-1.1c0,0,0,0,0,0H40V129z"/>
		</g>
		<g>
			<path class="st1" d="M44.9,132.2H44v-6.4h2c1.7,0,2.2,0.7,2.2,1.9c0.1,0.7-0.3,1.4-1,1.7l1.3,2.8h-1.1l-1.2-2.6h-1.3V132.2z
				 M44.9,128.7h1.3c0.9,0,1-0.5,1-1s-0.1-1-1-1h-1.3V128.7z"/>
		</g>
		<g>
			<path class="st1" d="M52.8,129.3h-2.7v2H53v0.9h-3.8v-6.4H53v0.9h-2.9v1.8h2.7V129.3z"/>
		</g>
		<g>
			<path class="st1" d="M58.5,125.8l-2,6.5h-1l-2-6.5h1l1.5,5.2l1.5-5.2L58.5,125.8z"/>
		</g>
		<g>
			<path class="st1" d="M62.6,129.3h-2.7v2h2.9v0.9H59v-6.4h3.9v0.9h-3v1.8h2.7V129.3z"/>
		</g>
		<g>
			<path class="st1" d="M67.4,132.2l-2.8-4.5v4.5h-0.9v-6.4h0.9l2.8,4.5v-4.5h0.9v6.4H67.4z"/>
		</g>
		<g>
			<path class="st1" d="M71.4,126.7v5.5h-1v-5.5h-1.6v-0.9H73v0.9L71.4,126.7z"/>
		</g>
		<g>
			<path class="st1" d="M76.1,130.6h-2l-0.4,1.6h-1l2-6.4h1l2,6.4h-1L76.1,130.6z M75.1,127l-0.8,2.8h1.6L75.1,127z"/>
		</g>
		<g>
			<path class="st1" d="M78.1,125.8h2.1c1.6,0,2,0.8,2,1.8c0,0.5-0.3,1-0.8,1.3c0.6,0.2,1.1,0.8,1,1.5c0,1-0.5,1.9-2.2,1.9h-2.2
				V125.8z M80.3,126.7h-1.2v1.8h1.2c0.8,0,0.9-0.5,0.9-0.9S81.1,126.7,80.3,126.7z M79.1,131.3h1.3c0.9,0,1.1-0.5,1.1-1
				s-0.3-1-1.1-1h-1.3L79.1,131.3z"/>
		</g>
		<g>
			<path class="st1" d="M84.2,131.3h2.8v0.9h-3.7v-6.4h1L84.2,131.3z"/>
		</g>
		<g>
			<path class="st1" d="M91.1,129.3h-2.6v2h2.9v0.9h-3.9v-6.4h3.9v0.9h-2.9v1.8h2.7L91.1,129.3z"/>
		</g>
		<g>
			<path class="st1" d="M6.9,141.2v-6.4h1.9c2.1,0,2.7,1.4,2.7,3.2s-0.6,3.2-2.7,3.2H6.9z M7.9,140.3h1c1.3,0,1.7-0.9,1.7-2.3
				s-0.4-2.3-1.7-2.3h-1L7.9,140.3z"/>
		</g>
		<g>
			<path class="st1" d="M15.8,138.3h-2.7v2h2.9v0.9h-3.9v-6.4h3.9v0.9h-2.9v1.8h2.7L15.8,138.3z"/>
		</g>
		<g>
			<path class="st1" d="M20,139.6h-2l-0.5,1.6h-1l2-6.4h1l2,6.4h-1L20,139.6z M19,136l-0.8,2.8h1.6L19,136z"/>
		</g>
		<g>
			<path class="st1" d="M23.7,135.7v5.5h-1v-5.5H21v-0.9h4.3v0.9H23.7z"/>
		</g>
		<g>
			<path class="st1" d="M29.5,141.2v-2.9h-2.6v2.9H26v-6.4h1v2.6h2.6v-2.6h1v6.4H29.5z"/>
		</g>
		<g>
			<path class="st1" d="M35.6,139.3c0,1.2-0.7,2-2.4,2c-0.6,0-1.3-0.1-1.9-0.4v-1c0.6,0.3,1.2,0.4,1.8,0.4c1.2,0,1.5-0.5,1.5-1.1
				s-0.3-0.9-1.2-1c-1.5-0.2-2.1-0.6-2.1-1.8c0-0.9,0.5-1.9,2.3-1.9c0.6,0,1.2,0.1,1.7,0.3v1c-0.5-0.2-1.1-0.3-1.7-0.3
				c-1,0-1.3,0.4-1.3,1s0.4,0.8,1.2,0.9C34.8,137.7,35.6,138,35.6,139.3z"/>
		</g>
		<g>
			<path class="st1" d="M37.7,139.2v-4.4h1v4.3c0,0.8,0.6,1.4,1.4,1.4s1.4-0.6,1.4-1.4l0,0v-4.3h1v4.4c0.1,1.1-0.8,2.1-1.9,2.1
				c-0.2,0-0.3,0-0.5,0c-1.1,0.1-2.1-0.7-2.3-1.8C37.7,139.4,37.7,139.3,37.7,139.2z"/>
		</g>
		<g>
			<path class="st1" d="M46.9,141.2l-2.8-4.5v4.5h-1v-6.4h0.9l2.8,4.5v-4.5h0.9v6.4H46.9z"/>
		</g>
		<g>
			<path class="st1" d="M48.8,141.2v-6.4h1.9c2.1,0,2.7,1.4,2.7,3.2s-0.6,3.2-2.7,3.2H48.8z M49.8,140.3h1c1.3,0,1.7-0.9,1.7-2.3
				s-0.4-2.3-1.7-2.3h-1V140.3z"/>
		</g>
		<g>
			<path class="st1" d="M57.7,138.3H55v2h2.9v0.9h-3.8v-6.4h3.9v0.9H55v1.8h2.7L57.7,138.3z"/>
		</g>
		<g>
			<path class="st1" d="M59.6,141.2h-1v-6.4h2.1c1.7,0,2.2,0.7,2.2,1.9c0.1,0.7-0.3,1.4-1,1.7l1.3,2.8h-1.1l-1.2-2.6h-1.3V141.2z
				 M59.6,137.7h1.3c0.9,0,1-0.5,1-1s-0.1-1-1-1h-1.3V137.7z"/>
		</g>
		<g>
			<path class="st1" d="M65.2,141v-0.9c0.5,0.2,1,0.3,1.6,0.3c0.7,0,1.4-0.2,1.4-1.2s-0.6-1-1.3-1h-1.5v-3.4H69v0.9h-2.7v1.7
				c0.1,0,0.6,0,0.7,0c1.1,0,2.1,0.2,2.1,1.9c0,1.9-1.3,2.1-2.4,2.1C66.2,141.3,65.7,141.2,65.2,141z"/>
		</g>
		<g>
			<path class="st1" d="M9.7,147.6v2.6h-1v-2.6l-2.2-3.8h1.1l1.6,3l1.6-3h1.1L9.7,147.6z"/>
		</g>
		<g>
			<path class="st1" d="M16,147.3h-2.7v2h2.9v0.9h-3.9v-6.4h3.9v0.9h-2.9v1.8H16V147.3z"/>
		</g>
		<g>
			<path class="st1" d="M20.2,148.6h-2l-0.5,1.6h-1l2-6.4h1l2,6.4h-1L20.2,148.6z M19.2,145l-0.8,2.8H20L19.2,145z"/>
		</g>
		<g>
			<path class="st1" d="M23.1,150.2h-1v-6.4h2.1c1.6,0,2.2,0.7,2.2,1.9c0.1,0.7-0.3,1.4-1,1.7l1.3,2.8h-1.2l-1.1-2.6h-1.3V150.2z
				 M23.1,146.7h1.3c0.9,0,1-0.5,1-1s-0.1-1-1-1h-1.3V146.7z"/>
		</g>
		<g>
			<path class="st1" d="M31.6,148.3c0,1.2-0.7,2-2.4,2c-0.6,0-1.3-0.1-1.9-0.4v-1c0.6,0.3,1.2,0.4,1.8,0.4c1.1,0,1.5-0.5,1.5-1.1
				s-0.3-0.9-1.1-1c-1.6-0.2-2.2-0.6-2.2-1.8c0-0.9,0.5-1.9,2.3-1.9c0.6,0,1.2,0.1,1.7,0.3v1c-0.5-0.2-1.1-0.3-1.7-0.3
				c-1,0-1.3,0.4-1.3,1s0.4,0.8,1.2,0.9C30.8,146.7,31.6,147,31.6,148.3z"/>
		</g>
		<g>
			<path class="st1" d="M33.6,147c0-1.8,0.4-3.3,2.5-3.3s2.5,1.5,2.5,3.3s-0.4,3.3-2.5,3.3S33.6,148.8,33.6,147z M34.6,147
				c0,1.5,0.3,2.4,1.5,2.4s1.5-0.9,1.5-2.4s-0.3-2.4-1.5-2.4S34.6,145.5,34.6,147L34.6,147z"/>
		</g>
		<g>
			<path class="st1" d="M42.8,147.4h-2.6v2.8h-1v-6.4h3.8v0.9h-2.8v1.8h2.6V147.4z"/>
		</g>
		<g>
			<path class="st1" d="M48.4,148.6h-2l-0.5,1.6h-1l2-6.4h1l2,6.4h-1L48.4,148.6z M47.4,145l-0.8,2.8h1.6L47.4,145z"/>
		</g>
		<g>
			<path class="st1" d="M50.1,147c0-2,0.7-3.3,2.6-3.3c0.6,0,1.3,0.1,1.8,0.3v1c-0.5-0.2-1.1-0.4-1.7-0.4c-1.3,0-1.8,0.9-1.8,2.4
				s0.5,2.4,1.8,2.4c0.3,0,0.6,0,0.9-0.1v-1.7h-1.1v-0.9h2.1v3.2c-0.6,0.3-1.3,0.4-2,0.4C50.8,150.3,50.1,149,50.1,147z"/>
		</g>
		<g>
			<path class="st1" d="M59.2,147.3h-2.6v2h2.9v0.9h-3.9v-6.4h3.9v0.9h-2.9v1.8h2.7L59.2,147.3z"/>
		</g>
	</g>
	<g>
		<rect x="3.3" y="24" class="st1" width="94.8" height="94.8"/>
	</g>
	<g>
		<path class="st1" d="M98.2,20.7H3.3V3.3h94.8V20.7z M4.3,19.7h92.8V4.3H4.3L4.3,19.7z"/>
	</g>
	<g class="st2">
		<path class="st1" d="M6.7,6.9h4.5v1.4H9.9v8.8H8.1V8.3H6.7V6.9z"/>
	</g>
	<g class="st2">
		<path class="st1" d="M11.2,17.1l1.9-10.2h1.9L17,17.1h-1.8l-0.3-1.9h-1.8l-0.3,1.9H11.2z M13.3,13.9h1.4L14,9.8h0L13.3,13.9z"/>
	</g>
	<g class="st2">
		<path class="st1" d="M19.6,12.4v4.7h-1.7V6.9h2.5c1.7,0,2.4,0.9,2.4,2.3v1.3c0,1.1-0.4,1.7-1.4,2l1.6,4.6h-1.8L19.6,12.4z
			 M19.6,8.3v3.2h0.6c0.6,0,0.8-0.3,0.8-0.8V9.2c0-0.6-0.3-0.8-0.8-0.8H19.6z"/>
	</g>
	<g class="st2">
		<path class="st1" d="M26.4,11.7h2.4v5.4h-1.2V16c-0.2,0.8-0.7,1.2-1.6,1.2c-1.5,0-2.1-1.2-2.1-2.7V9.6c0-1.6,0.8-2.7,2.6-2.7
			c1.9,0,2.4,1.1,2.4,2.6v0.9h-1.6v-1c0-0.6-0.2-1-0.9-1c-0.6,0-0.9,0.4-0.9,1v5.5c0,0.6,0.3,1,0.8,1c0.6,0,0.8-0.3,0.8-1V13h-0.8
			V11.7z"/>
	</g>
	<g class="st2">
		<path class="st1" d="M30.2,6.9h4.1v1.4h-2.4v2.9h1.7v1.4h-1.7v3.1h2.4v1.4h-4.1V6.9z"/>
	</g>
	<g class="st2">
		<path class="st1" d="M35.1,6.9h4.5v1.4h-1.4v8.8h-1.7V8.3h-1.4V6.9z"/>
	</g>
	<g class="st2">
		<path class="st1" d="M84.1,9.1V10c0,0.9-0.5,1.4-1.2,1.7c0.9,0.2,1.3,0.8,1.3,1.7v1.5c0,1.4-0.8,2.3-2.5,2.3c-1.7,0-2.4-1-2.4-2.5
			v-1.3H81v1.5c0,0.6,0.2,1,0.8,1c0.5,0,0.8-0.4,0.8-0.9v-1.7c0-0.5-0.2-0.8-0.8-0.8H81v-1.3h0.6c0.6,0,0.9-0.3,0.9-0.8V9.2
			c0-0.6-0.2-0.9-0.7-0.9S81,8.6,81,9.2v1h-1.6V9.4c0-1.5,0.6-2.6,2.4-2.6C83.4,6.8,84.1,7.7,84.1,9.1z"/>
	</g>
	<g class="st2">
	</g>
	<g class="st2">
		<path class="st1" d="M87.1,10.8c0.7,0,1.2,0.6,1.2,1.2c0,0.7-0.6,1.2-1.2,1.2c-0.7,0-1.2-0.6-1.2-1.2
			C85.8,11.4,86.4,10.8,87.1,10.8z"/>
	</g>
	<g class="st2">
		<path class="st1" d="M89.8,15.2c0-1,0.3-1.7,1.3-2.7l1-1c0.6-0.6,0.6-0.9,0.6-1.8V9c0-0.6-0.3-0.8-0.6-0.8c-0.4,0-0.7,0.2-0.7,0.8
			v1.3h-1.6V9c0-1.4,0.8-2.2,2.3-2.2c1.5,0,2.2,0.7,2.2,2.1v1c0,1-0.2,1.6-1.1,2.6l-1.1,1.2c-0.4,0.5-0.7,0.8-0.7,1.6v0.5h2.8v1.4
			h-4.4V15.2z"/>
	</g>
	<g>
		<path class="st1" d="M98.2,153.8H3.3v-31.6h94.8V153.8z M4.3,152.8h92.8v-29.6H4.3L4.3,152.8z"/>
	</g>
	<g>
		<g>
			<g>
				<path class="st0" d="M68.7,80.9v3c0,1.7-0.8,2.8-2.9,2.8s-2.8-1.2-2.8-3.1v-1.4h1.9v1.5c0,0.7,0.3,1.2,1,1.2s0.9-0.4,0.9-1.1v-3
					c0-0.7-0.2-1.1-0.9-1.1s-0.9,0.4-0.9,1.1v0.3h-1.9v-6.9h5.5v1.7h-3.6V79l0,0c0.4-0.6,1-0.9,1.7-0.8
					C67.7,78.2,68.7,78.9,68.7,80.9z"/>
			</g>
			<g>
				<path class="st0" d="M75.2,81.9v4.7h-2.1v-4.7l-2.3-7.6H73l1.2,4.7l0,0l1.2-4.7h2L75.2,81.9z"/>
			</g>
			<g>
				<path class="st0" d="M80.5,80.9v5.6h-2.1V74.3h3c2.1,0,2.8,1,2.8,2.8v1.6c0,1.3-0.5,2.1-1.7,2.4l2,5.6h-2.2L80.5,80.9z
					 M80.5,75.9v3.8h0.7c0.5,0.1,0.9-0.3,1-0.8c0-0.1,0-0.2,0-0.2v-1.8c0-0.7-0.3-1-1-1L80.5,75.9z"/>
			</g>
			<g>
				<path class="st0" d="M85.4,83.9v-1.7h1.9V84c0,0.7,0.3,1.1,1,1.1s1-0.4,1-1.1v-0.5c0-0.7-0.4-1.3-0.9-1.8l-1.2-1.2
					c-1.2-1.2-1.7-1.9-1.7-3.3v-0.4c-0.1-1.4,1-2.6,2.4-2.7c0.2,0,0.3,0,0.5,0c2.1,0,2.9,1,2.9,2.8v1h-1.9v-1.1c0-0.7-0.3-1-1-1
					c-0.5-0.1-0.9,0.3-1,0.8c0,0.1,0,0.1,0,0.2v0.2c0,0.7,0.4,1.1,1,1.7l1.4,1.2c1.1,1.1,1.7,1.8,1.7,3.2v0.6
					c0.1,1.5-0.9,2.8-2.4,2.9c-0.2,0-0.4,0-0.6,0C86.2,86.7,85.4,85.5,85.4,83.9z"/>
			</g>
		</g>
		<g>
			<g>
				<path class="st0" d="M26.4,93.5c0,0,0-0.1,0-0.1c0-0.1-0.1-0.2-0.1-0.3c0-0.1-0.1-0.1-0.1-0.2L26,92.8c0,0-0.1-0.1-0.1-0.1
					c-0.1-0.1-0.1-0.1-0.2-0.2l-4-4.3c-0.5-0.6-0.1-0.8-0.1-0.8l3.5-3.6l-5.4-5.6c0,0-3.5,3.6-5,5c-2.3,2.3,0,4.7,0,4.7l7.9,7.9l0,0
					c0.4,0.4,1,0.7,1.6,0.7l0,0h0.2h0.1c0.1,0,0.2,0,0.3-0.1c1-0.3,1.6-1.2,1.6-2.2c0,0,0,0,0-0.1C26.4,93.9,26.4,93.7,26.4,93.5z"
					/>
			</g>
			<g>
				<path class="st0" d="M34.7,78.1l-5.4,5.6l3.5,3.6c0,0,0.4,0.3-0.2,0.8l-4,4.3c-0.1,0.1-0.1,0.1-0.2,0.2c0,0-0.1,0.1-0.1,0.1
					l-0.1,0.1c0,0.1-0.1,0.1-0.1,0.2c0,0.1-0.1,0.2-0.1,0.3c0,0,0,0.1,0,0.1c0,0.2-0.1,0.4-0.1,0.6c0,0,0,0,0,0.1
					c0,1,0.7,1.9,1.6,2.2c0.1,0,0.2,0.1,0.3,0.1H30h0.2l0,0c0.6,0,1.2-0.2,1.6-0.7l0,0l7.9-7.9c0,0,2.3-2.4,0-4.7
					C38.2,81.7,34.7,78.1,34.7,78.1z"/>
			</g>
			<g>
				<path class="st0" d="M27.1,60c3.7,0,6.8-3,6.8-6.7c0-3.7-3-6.8-6.7-6.8s-6.8,3-6.8,6.7c0,0,0,0,0,0C20.4,57,23.4,60,27.1,60z"/>
			</g>
			<g>
				<path class="st0" d="M91.8,64.4L91.8,64.4L91.8,64.4l-5.1-3.8l0,0l0,0c-0.1-0.1-0.2-0.1-0.3,0c0,0-0.1,0.1-0.1,0.1l0,0l0,0v2.8
					h-12v-2.1h-1v2.1H61c-0.5,0-1,0.3-1.2,0.8l-3.6,10.3l-5.2-22.5c-0.1-0.6-0.6-1-1.2-1c-0.6,0-1.1,0.4-1.2,0.9L43,71.7l-9.4-9.4
					c-0.4-0.5-1-0.7-1.6-0.7h-9.6c-0.6,0-1.2,0.3-1.6,0.7L10.3,72.7c-0.2,0.2-0.3,0.4-0.4,0.7c-0.1,0.3-0.2,0.6-0.2,0.9
					c0,1.2,1,2.1,2.1,2.1c0.4,0,0.9-0.1,1.2-0.4l0.2-0.2l0.4-0.4l5.3-5.4c0,0,0.8-0.8,1,0.1v4.9h14.7v-4.9c0.2-0.9,1-0.1,1-0.1
					l5.3,5.4l0.3,0.4c0.1,0.1,0.1,0.1,0.2,0.2c0.3,0.2,0.8,0.4,1.2,0.4c0.9,0,1.7-0.5,2-1.3c0-0.1,0.1-0.1,0.1-0.2l5.2-17.6
					l5.1,22.1c0.1,0.6,0.6,1,1.2,1h0.1c0.5,0,1-0.3,1.2-0.8L62,65.9h11.2V68h1v-2.1h12v2.8c0,0.1,0.1,0.2,0.2,0.2c0,0,0.1,0,0.2,0
					l0,0l5.1-4h0.1c0-0.1,0.1-0.1,0.1-0.2C91.9,64.6,91.8,64.5,91.8,64.4z"/>
			</g>
		</g>
	</g>
</g>
</svg>
