<?xml version="1.0" encoding="utf-8"?>
<!-- Generator: Adobe Illustrator 22.0.1, SVG Export Plug-In . SVG Version: 6.00 Build 0)  -->
<svg version="1.1" id="Layer_1" xmlns="http://www.w3.org/2000/svg" xmlns:xlink="http://www.w3.org/1999/xlink" x="0px" y="0px"
	 viewBox="0 0 101.5 184.2" style="enable-background:new 0 0 101.5 184.2;" xml:space="preserve">
<style type="text/css">
	.st0{fill:#FFFFFF;}
	.st1{fill:#4C9F38;}
	.st2{enable-background:new    ;}
</style>
<title>TARGET 1.4</title>
<g id="WHITE_BG">
	<g>
		<rect y="0" class="st0" width="101.5" height="184.2"/>
	</g>
</g>
<g id="TARGETS">
	<g>
		<g>
			<path class="st1" d="M7.8,132.2h-1v-6.4H9c1.6,0,2.2,0.7,2.2,1.9c0.1,0.7-0.3,1.4-1,1.7l1.3,2.8h-1.2l-1.1-2.6H7.8V132.2z
				 M7.8,128.7h1.3c0.9,0,1-0.5,1-1s-0.1-1-1-1H7.8V128.7z"/>
		</g>
		<g>
			<path class="st1" d="M15.7,129.3H13v2h3v0.9h-3.9v-6.4H16v0.9h-3v1.8h2.7L15.7,129.3z"/>
		</g>
		<g>
			<path class="st1" d="M16.8,132.2v-6.4h1.9c2.1,0,2.7,1.4,2.7,3.2s-0.6,3.2-2.7,3.2L16.8,132.2z M17.8,131.3h1
				c1.3,0,1.7-0.9,1.7-2.3s-0.4-2.3-1.7-2.3h-1V131.3z"/>
		</g>
		<g>
			<path class="st1" d="M22.1,130.2v-4.4H23v4.3c-0.1,0.7,0.4,1.3,1,1.3c0.1,0,0.2,0,0.3,0c0.6,0.1,1.3-0.3,1.4-1c0-0.1,0-0.2,0-0.3
				v-4.3h1v4.4c0,1.1-0.8,2.1-2,2.1c-0.1,0-0.2,0-0.3,0c-1.1,0.2-2.2-0.6-2.3-1.8C22.1,130.4,22.1,130.3,22.1,130.2z"/>
		</g>
		<g>
			<path class="st1" d="M30.1,125.7c0.5,0,1,0.1,1.5,0.3v0.9c-0.5-0.2-0.9-0.3-1.4-0.3c-1.2,0-1.7,0.8-1.7,2.4s0.5,2.4,1.7,2.4
				c0.5,0,1-0.1,1.4-0.3v0.9c-0.5,0.2-1,0.3-1.5,0.3c-1.9,0-2.6-1.2-2.6-3.3S28.3,125.7,30.1,125.7z"/>
		</g>
		<g>
			<path class="st1" d="M36.1,129.3h-2.7v2h2.9v0.9h-3.9v-6.4h3.9v0.9h-2.9v1.8h2.7V129.3z"/>
		</g>
		<g>
			<path class="st1" d="M42,131.3h-0.9l-1.6-3.9v4.8h-1v-6.4h1.2l1.7,4.3l1.7-4.3h1.2v6.4h-1v-4.8L42,131.3z"/>
		</g>
		<g>
			<path class="st1" d="M45.2,129c0-1.8,0.4-3.3,2.5-3.3s2.5,1.5,2.5,3.3s-0.4,3.3-2.5,3.3S45.2,130.8,45.2,129z M46.2,129
				c0,1.5,0.3,2.4,1.5,2.4s1.5-0.9,1.5-2.4s-0.3-2.4-1.5-2.4S46.2,127.5,46.2,129L46.2,129z"/>
		</g>
		<g>
			<path class="st1" d="M51.8,132.2h-1v-6.4H53c1.7,0,2.2,0.7,2.2,1.9c0.1,0.7-0.3,1.4-1,1.7l1.3,2.8h-1.2l-1.2-2.6h-1.3V132.2z
				 M51.8,128.7h1.3c0.9,0,1-0.5,1-1s-0.1-1-1-1h-1.3V128.7z"/>
		</g>
		<g>
			<path class="st1" d="M58.1,126.7v5.5h-1v-5.5h-1.6v-0.9h4.3v0.9L58.1,126.7z"/>
		</g>
		<g>
			<path class="st1" d="M62.8,130.7h-2l-0.5,1.6h-1l2-6.4h1l2,6.4h-1L62.8,130.7z M61.8,127l-0.8,2.8h1.6L61.8,127z"/>
		</g>
		<g>
			<path class="st1" d="M65.8,131.3h2.8v0.9h-3.7v-6.4h1L65.8,131.3z"/>
		</g>
		<g>
			<path class="st1" d="M69.2,132.2v-6.4h1v6.4H69.2z"/>
		</g>
		<g>
			<path class="st1" d="M73.4,126.7v5.5h-1v-5.5h-1.6v-0.9h4.3v0.9L73.4,126.7z"/>
		</g>
		<g>
			<path class="st1" d="M78.4,129.7v2.6h-1v-2.6l-2.2-3.8h1.1l1.6,3l1.6-3h1.1L78.4,129.7z"/>
		</g>
		<g>
			<path class="st1" d="M10.4,138.4H7.8v2.8h-1v-6.4h3.9v0.9H7.8v1.8h2.6V138.4z"/>
		</g>
		<g>
			<path class="st1" d="M12.2,141.2h-0.9v-6.4h2.1c1.6,0,2.2,0.7,2.2,1.9c0.1,0.7-0.3,1.4-1,1.7l1.3,2.8h-1.2l-1.1-2.6h-1.3V141.2z
				 M12.2,137.7h1.3c0.9,0,1-0.5,1-1s-0.1-1-1-1h-1.3V137.7z"/>
		</g>
		<g>
			<path class="st1" d="M16.2,138c0-1.8,0.4-3.3,2.5-3.3s2.5,1.5,2.5,3.3s-0.4,3.3-2.5,3.3S16.2,139.8,16.2,138z M17.2,138
				c0,1.5,0.3,2.4,1.5,2.4s1.5-0.9,1.5-2.4s-0.3-2.4-1.5-2.4S17.2,136.5,17.2,138L17.2,138z"/>
		</g>
		<g>
			<path class="st1" d="M25.4,140.3h-0.9l-1.6-3.9v4.8H22v-6.4h1.2l1.8,4.3l1.7-4.3h1.2v6.4H27v-4.8L25.4,140.3z"/>
		</g>
		<g>
			<path class="st1" d="M10.6,150.2l-2.8-4.5v4.5H6.9v-6.4h0.9l2.8,4.5v-4.5h0.9v6.4H10.6z"/>
		</g>
		<g>
			<path class="st1" d="M12.3,147c0-1.8,0.4-3.3,2.5-3.3s2.5,1.5,2.5,3.3s-0.4,3.3-2.4,3.3S12.3,148.8,12.3,147z M13.3,147
				c0,1.5,0.3,2.4,1.5,2.4s1.5-0.9,1.5-2.4s-0.3-2.4-1.5-2.4S13.3,145.5,13.3,147L13.3,147z"/>
		</g>
		<g>
			<path class="st1" d="M21.6,150.2l-2.8-4.5v4.5H18v-6.4h0.9l2.8,4.5v-4.5h0.9v6.4H21.6z"/>
		</g>
		<g>
			<path class="st1" d="M25.2,147.4h-2.2v-0.9h2.2V147.4z"/>
		</g>
		<g>
			<path class="st1" d="M28.4,143.7c0.5,0,1,0.1,1.5,0.3v0.9c-0.5-0.2-0.9-0.3-1.4-0.3c-1.2,0-1.7,0.8-1.7,2.4s0.5,2.4,1.7,2.4
				c0.5,0,1-0.1,1.4-0.3v0.9c-0.5,0.2-1,0.3-1.5,0.3c-1.9,0-2.6-1.2-2.6-3.3S26.5,143.7,28.4,143.7z"/>
		</g>
		<g>
			<path class="st1" d="M30.5,147c0-1.8,0.4-3.3,2.5-3.3s2.5,1.5,2.5,3.3s-0.4,3.3-2.5,3.3S30.5,148.8,30.5,147z M31.5,147
				c0,1.5,0.3,2.4,1.5,2.4s1.5-0.9,1.5-2.4s-0.3-2.4-1.5-2.4S31.4,145.5,31.5,147L31.5,147z"/>
		</g>
		<g>
			<path class="st1" d="M39.5,149.3h-0.9l-1.6-3.9v4.8h-1v-6.4h1.2l1.7,4.3l1.7-4.3H42v6.4h-1v-4.8L39.5,149.3z"/>
		</g>
		<g>
			<path class="st1" d="M46.4,149.3h-0.9l-1.6-3.9v4.8H43v-6.4h1.2l1.7,4.3l1.7-4.3h1.2v6.4h-1v-4.8L46.4,149.3z"/>
		</g>
		<g>
			<path class="st1" d="M49.8,148.2v-4.4h1v4.3c0,0.8,0.6,1.4,1.4,1.4s1.4-0.6,1.4-1.4v-4.3h1v4.4c-0.1,1.3-1.2,2.2-2.5,2.1
				C50.8,150.2,49.9,149.3,49.8,148.2L49.8,148.2z"/>
		</g>
		<g>
			<path class="st1" d="M58.9,150.2l-2.8-4.5v4.5h-0.9v-6.4H56l2.8,4.5v-4.5h0.9v6.4H58.9z"/>
		</g>
		<g>
			<path class="st1" d="M60.7,150.2v-6.4h1v6.4H60.7z"/>
		</g>
		<g>
			<path class="st1" d="M65.2,143.7c0.5,0,1,0.1,1.5,0.3v0.9c-0.4-0.2-0.9-0.3-1.4-0.3c-1.2,0-1.7,0.8-1.7,2.4s0.5,2.4,1.7,2.4
				c0.5,0,1-0.1,1.4-0.3v0.9c-0.5,0.2-1,0.3-1.5,0.3c-1.9,0-2.6-1.2-2.6-3.3S63.3,143.7,65.2,143.7z"/>
		</g>
		<g>
			<path class="st1" d="M70.5,148.7h-2l-0.5,1.6h-1l2-6.4h1l2,6.4h-1L70.5,148.7z M69.5,145l-0.8,2.8h1.6L69.5,145z"/>
		</g>
		<g>
			<path class="st1" d="M72.5,143.8h2.1c1.6,0,2,0.8,2,1.7c0,0.5-0.3,1-0.8,1.3c0.6,0.2,1.1,0.8,1,1.5c0,1.1-0.5,1.9-2.2,1.9h-2.2
				V143.8z M74.7,144.7h-1.2v1.8h1.2c0.4,0.1,0.9-0.2,0.9-0.7c0-0.1,0-0.1,0-0.2C75.7,145.2,75.5,144.7,74.7,144.7L74.7,144.7z
				 M73.5,149.3h1.3c0.9,0,1.1-0.5,1.1-1s-0.3-1-1.1-1h-1.3V149.3z"/>
		</g>
		<g>
			<path class="st1" d="M78.6,149.3h2.8v0.9h-3.7v-6.4h1L78.6,149.3z"/>
		</g>
		<g>
			<path class="st1" d="M85.4,147.3h-2.6v2h2.9v0.9h-3.9v-6.4h3.9v0.9h-2.9v1.8h2.7L85.4,147.3z"/>
		</g>
		<g>
			<path class="st1" d="M6.9,159.2v-6.4h1.9c2.1,0,2.7,1.4,2.7,3.2s-0.6,3.2-2.7,3.2H6.9z M7.9,158.3h1c1.3,0,1.7-0.9,1.7-2.3
				s-0.4-2.3-1.7-2.3h-1L7.9,158.3z"/>
		</g>
		<g>
			<path class="st1" d="M12.3,159.2v-6.4h0.9v6.4H12.3z"/>
		</g>
		<g>
			<path class="st1" d="M18.5,157.3c0,1.2-0.7,2-2.4,2c-0.6,0-1.3-0.1-1.9-0.4V158c0.6,0.3,1.2,0.4,1.8,0.4c1.1,0,1.5-0.5,1.5-1.1
				s-0.3-0.9-1.2-1c-1.6-0.2-2.2-0.6-2.2-1.8c0-0.9,0.5-1.8,2.3-1.8c0.6,0,1.2,0.1,1.7,0.3v1c-0.5-0.2-1.1-0.3-1.7-0.3
				c-1,0-1.3,0.4-1.3,1c0,0.7,0.4,0.8,1.2,0.9C17.8,155.7,18.5,156,18.5,157.3z"/>
		</g>
		<g>
			<path class="st1" d="M22.8,156.3h-2.6v2h2.9v0.9h-3.9v-6.4h3.9v0.9h-2.9v1.8h2.6V156.3z"/>
		</g>
		<g>
			<path class="st1" d="M27,157.7h-2l-0.5,1.6h-1l2-6.4h1l2,6.4h-1L27,157.7z M26,154l-0.8,2.8h1.6L26,154z"/>
		</g>
		<g>
			<path class="st1" d="M33,157.3c0,1.2-0.7,2-2.4,2c-0.6,0-1.3-0.1-1.9-0.4V158c0.6,0.3,1.2,0.4,1.8,0.4c1.1,0,1.5-0.5,1.5-1.1
				s-0.3-0.9-1.2-1c-1.5-0.2-2.1-0.6-2.1-1.8c0-0.9,0.5-1.8,2.3-1.8c0.6,0,1.2,0.1,1.7,0.3v1c-0.5-0.2-1.1-0.3-1.7-0.3
				c-1,0-1.3,0.4-1.3,1c0,0.7,0.4,0.8,1.2,0.9C32.3,155.7,33,156,33,157.3z"/>
		</g>
		<g>
			<path class="st1" d="M37.5,156.3h-2.7v2h2.9v0.9h-3.9v-6.4h3.9v0.9h-2.9v1.8h2.7V156.3z"/>
		</g>
		<g>
			<path class="st1" d="M42.6,157.3c0,1.2-0.7,2-2.4,2c-0.6,0-1.3-0.1-1.9-0.3v-1c0.6,0.3,1.2,0.4,1.8,0.4c1.1,0,1.5-0.5,1.5-1.1
				s-0.3-0.9-1.2-1c-1.6-0.2-2.2-0.6-2.2-1.8c0-0.9,0.5-1.8,2.3-1.8c0.6,0,1.2,0.1,1.7,0.3v1c-0.5-0.2-1.1-0.3-1.7-0.3
				c-1,0-1.3,0.4-1.3,1c0,0.7,0.4,0.8,1.2,0.9C41.8,155.7,42.6,156,42.6,157.3z"/>
		</g>
		<g>
			<path class="st1" d="M48,157.7h-2l-0.5,1.6h-1l2-6.4h1l2,6.4h-1L48,157.7z M47,154l-0.8,2.8h1.6L47,154z"/>
		</g>
		<g>
			<path class="st1" d="M53.6,159.2l-2.8-4.5v4.5H50v-6.4h0.9l2.8,4.5v-4.5h1v6.4H53.6z"/>
		</g>
		<g>
			<path class="st1" d="M55.5,159.2v-6.4h1.9c2.1,0,2.7,1.4,2.7,3.2s-0.6,3.2-2.7,3.2H55.5z M56.4,158.3h1c1.3,0,1.7-0.9,1.7-2.3
				s-0.4-2.3-1.7-2.3h-1V158.3z"/>
		</g>
		<g>
			<path class="st1" d="M7.8,168.2h-1v-6.4h2.1c1.6,0,2.2,0.9,2.2,2s-0.6,2-2.2,2H7.8V168.2z M7.8,165H9c0.6,0.1,1.2-0.4,1.2-1
				c0.1-0.6-0.4-1.2-1-1.2c-0.1,0-0.1,0-0.2,0H7.8V165z"/>
		</g>
		<g>
			<path class="st1" d="M12.7,168.2h-1v-6.4h2.1c1.6,0,2.2,0.7,2.2,1.9c0.1,0.7-0.3,1.4-1,1.7l1.3,2.8h-1.1l-1.2-2.6h-1.3V168.2z
				 M12.7,164.7h1.2c0.9,0,1-0.5,1-1s-0.1-1-1-1h-1.2V164.7z"/>
		</g>
		<g>
			<path class="st1" d="M16.7,165c0-1.8,0.4-3.3,2.5-3.3s2.5,1.5,2.5,3.3s-0.4,3.3-2.5,3.3S16.7,166.8,16.7,165z M17.7,165
				c0,1.5,0.3,2.4,1.5,2.4s1.5-0.9,1.5-2.4s-0.3-2.4-1.5-2.4S17.7,163.5,17.7,165L17.7,165z"/>
		</g>
		<g>
			<path class="st1" d="M25.8,167.3h-0.9l-1.6-3.9v4.8h-1v-6.4h1.2l1.7,4.3l1.7-4.3h1.2v6.4h-1l0-4.8L25.8,167.3z"/>
		</g>
		<g>
			<path class="st1" d="M29.1,165c0-1.8,0.4-3.3,2.5-3.3s2.5,1.5,2.5,3.3s-0.4,3.3-2.5,3.3S29.1,166.8,29.1,165z M30.1,165
				c0,1.5,0.3,2.4,1.5,2.4c1.2,0,1.5-0.9,1.5-2.4s-0.3-2.4-1.5-2.4S30.1,163.5,30.1,165L30.1,165z"/>
		</g>
		<g>
			<path class="st1" d="M36.8,162.7v5.5h-1v-5.5h-1.6v-0.9h4.3v0.9H36.8z"/>
		</g>
		<g>
			<path class="st1" d="M42.7,165.3H40v2h3v0.9h-3.9v-6.4H43v0.9h-3v1.8h2.7L42.7,165.3z"/>
		</g>
		<g>
			<path class="st1" d="M48.6,167.3h-0.9l-1.6-3.9v4.8h-1v-6.4h1.2l1.7,4.3l1.7-4.3H51v6.4h-1v-4.8L48.6,167.3z"/>
		</g>
		<g>
			<path class="st1" d="M55.6,165.3H53v2h2.9v0.9H52v-6.4h3.9v0.9H53v1.8h2.7L55.6,165.3z"/>
		</g>
		<g>
			<path class="st1" d="M60.4,168.2l-2.8-4.5v4.5h-1v-6.4h0.9l2.8,4.5v-4.5h0.9v6.4H60.4z"/>
		</g>
		<g>
			<path class="st1" d="M64.4,162.7v5.5h-1v-5.5h-1.6v-0.9h4.3v0.9H64.4z"/>
		</g>
		<g>
			<path class="st1" d="M69.1,166.7h-2l-0.5,1.6h-1l2-6.4h1l2,6.4h-1L69.1,166.7z M68.1,163l-0.8,2.8h1.6L68.1,163z"/>
		</g>
		<g>
			<path class="st1" d="M72.1,167.3h2.8v0.9h-3.7v-6.4h1L72.1,167.3z"/>
		</g>
		<g>
			<path class="st1" d="M10.4,177.2v-2.9H7.8v2.9h-1v-6.4h1v2.6h2.6v-2.6h1v6.4H10.4z"/>
		</g>
		<g>
			<path class="st1" d="M15.9,174.3h-2.7v2h2.9v0.9h-3.9v-6.4h3.9v0.9h-2.9v1.8h2.7V174.3z"/>
		</g>
		<g>
			<path class="st1" d="M20.1,175.7h-2l-0.5,1.6h-1l2-6.4h1l2,6.4h-1L20.1,175.7z M19.1,172l-0.8,2.8H20L19.1,172z"/>
		</g>
		<g>
			<path class="st1" d="M23.1,176.3h2.8v0.9h-3.7v-6.4h1L23.1,176.3z"/>
		</g>
		<g>
			<path class="st1" d="M27.9,171.7v5.5h-1v-5.5h-1.7v-0.9h4.3v0.9H27.9z"/>
		</g>
		<g>
			<path class="st1" d="M33.7,177.2v-2.9h-2.6v2.9h-1v-6.4h1v2.6h2.6v-2.6h1v6.4H33.7z"/>
		</g>
	</g>
	<g>
		<rect x="3.3" y="24" class="st1" width="94.8" height="94.8"/>
	</g>
	<g>
		<path class="st1" d="M98.2,20.7H3.3V3.3h94.8V20.7z M4.3,19.7h92.8V4.3H4.3L4.3,19.7z"/>
	</g>
	<g class="st2">
		<path class="st1" d="M6.7,6.9h4.5v1.4H9.9v8.8H8.1V8.3H6.7V6.9z"/>
	</g>
	<g class="st2">
		<path class="st1" d="M11.2,17.1l1.9-10.2h1.9L17,17.1h-1.8l-0.3-1.9h-1.8l-0.3,1.9H11.2z M13.3,13.9h1.4L14,9.8h0L13.3,13.9z"/>
	</g>
	<g class="st2">
		<path class="st1" d="M19.6,12.5v4.7h-1.7V6.9h2.5c1.7,0,2.4,0.9,2.4,2.3v1.3c0,1.1-0.4,1.7-1.4,2l1.6,4.6h-1.8L19.6,12.5z
			 M19.6,8.3v3.2h0.6c0.6,0,0.8-0.3,0.8-0.8V9.2c0-0.6-0.3-0.8-0.8-0.8H19.6z"/>
	</g>
	<g class="st2">
		<path class="st1" d="M26.4,11.7h2.4v5.4h-1.2V16c-0.2,0.8-0.7,1.2-1.6,1.2c-1.5,0-2.1-1.2-2.1-2.7V9.6c0-1.6,0.8-2.7,2.6-2.7
			c1.9,0,2.4,1.1,2.4,2.6v0.9h-1.6v-1c0-0.6-0.2-1-0.9-1c-0.6,0-0.9,0.4-0.9,1v5.5c0,0.6,0.3,1,0.8,1c0.6,0,0.8-0.3,0.8-1V13h-0.8
			V11.7z"/>
	</g>
	<g class="st2">
		<path class="st1" d="M30.2,6.9h4.1v1.4h-2.4v2.9h1.7v1.4h-1.7v3.1h2.4v1.4h-4.1V6.9z"/>
	</g>
	<g class="st2">
		<path class="st1" d="M35.1,6.9h4.5v1.4h-1.4v8.8h-1.7V8.3h-1.4V6.9z"/>
	</g>
	<g class="st2">
		<path class="st1" d="M83.7,9.2V10c0,0.9-0.5,1.4-1.2,1.7c0.9,0.2,1.3,0.8,1.3,1.7v1.5c0,1.4-0.8,2.3-2.5,2.3c-1.7,0-2.4-1-2.4-2.5
			v-1.3h1.6v1.5c0,0.6,0.2,1,0.8,1c0.5,0,0.8-0.4,0.8-0.9v-1.7c0-0.5-0.2-0.8-0.8-0.8h-0.7v-1.3h0.6c0.6,0,0.9-0.3,0.9-0.8V9.2
			c0-0.6-0.2-0.9-0.7-0.9s-0.7,0.4-0.7,1v1H79V9.4c0-1.5,0.6-2.6,2.4-2.6C83,6.8,83.7,7.7,83.7,9.2z"/>
	</g>
	<g class="st2">
	</g>
	<g class="st2">
		<path class="st1" d="M86.6,10.8c0.7,0,1.2,0.6,1.2,1.2c0,0.7-0.6,1.2-1.2,1.2c-0.7,0-1.2-0.6-1.2-1.2C85.4,11.4,86,10.8,86.6,10.8
			z"/>
	</g>
	<g class="st2">
		<path class="st1" d="M89.1,14.4l3-7.5h1.7v7.2h0.7v1.3h-0.7v1.7h-1.6v-1.7h-3V14.4z M90.6,14.1h1.5V9.9h0L90.6,14.1z"/>
	</g>
	<g>
		<path class="st1" d="M98.2,180.9h-95v-58.8h95V180.9z M4.2,179.9h93v-56.8h-93V179.9z"/>
	</g>
	<g>
		<g>
			<path class="st0" d="M76.4,75.4c0,1.8,1.4,3.2,3.2,3.2s3.2-1.4,3.2-3.2s-1.4-3.2-3.2-3.2l0,0C77.9,72.2,76.4,73.6,76.4,75.4z"/>
		</g>
		<g>
			<path class="st0" d="M48.4,77c0,1.7,1.3,3,3,3s3-1.3,3-3s-1.3-3-3-3S48.4,75.4,48.4,77z"/>
		</g>
		<g>
			<path class="st0" d="M20.9,75.4c0,1.8,1.4,3.2,3.2,3.2s3.2-1.4,3.2-3.2s-1.4-3.2-3.2-3.2S20.9,73.6,20.9,75.4L20.9,75.4z"/>
		</g>
		<g>
			<path class="st0" d="M39.5,56.1h0.5c0.6,0,1.1-0.4,1.3-1l2.4-8.1l4.7,18.8c0.1,0.6,0.6,1.1,1.2,1.2h0.2c0.5,0,1-0.3,1.3-0.8
				l6.8-13.4l2.5,6.8c0.2,0.5,0.7,0.9,1.3,0.9l0,0c0.6,0,1.1-0.4,1.3-0.9l8.6-21.6l2.3,5.6c0.3,0.7,1.1,1,1.8,0.7
				c0.7-0.3,1-1.1,0.7-1.8l0,0l-3.7-8.8c-0.2-0.5-0.7-0.8-1.3-0.8l0,0c-0.6,0-1.1,0.3-1.3,0.9l-8.5,21.4l-2.4-6.5
				c-0.2-0.5-0.7-0.9-1.2-0.9c-0.6,0-1.1,0.3-1.3,0.8l-6.3,12.4l-5-19.5c-0.1-0.6-0.6-1.1-1.2-1.1c-0.6,0-1.2,0.4-1.4,1l-3.7,12
				H16.2v2.8L39.5,56.1z"/>
		</g>
		<g>
			<path class="st0" d="M71.4,51c0,1.2,0.5,2.4,1.3,3.3l6.4,6.4l6.3-6.4l0,0c0.9-0.9,1.3-2.1,1.3-3.3c0-2.5-1.6-4.6-4.1-4.6
				c-1.2,0-2.7,1.4-3.6,2.2c-0.8-0.8-2.2-2.2-3.4-2.2c-2.4,0.1-4.3,2-4.2,4.4C71.4,50.9,71.4,50.9,71.4,51z"/>
		</g>
		<g>
			<path class="st0" d="M83.4,79.8h-0.2h-7h-0.2c-2.2,0.2-3.9,2-3.9,4.3V93c-0.1,0.7,0.4,1.3,1.1,1.4c0.7,0.1,1.3-0.4,1.4-1.1
				c0-0.1,0-0.1,0-0.2v-7.7c0-0.3,0.1-0.7,0.6-0.7c0.4,0,0.4,0.4,0.4,0.6v22.9c-0.1,1,0.7,1.8,1.7,1.9c1,0.1,1.8-0.7,1.9-1.7
				c0-0.1,0-0.2,0-0.3V95c0-0.3,0.2-0.5,0.5-0.5c0,0,0,0,0,0l0,0c0.3,0,0.5,0.2,0.5,0.4c0,0,0,0,0,0.1v13.2c0,1,0.8,1.8,1.8,1.8
				s1.8-0.8,1.8-1.8V85.3c0-0.2,0.1-0.6,0.4-0.6c0.5,0,0.6,0.4,0.6,0.7V93c-0.1,0.7,0.4,1.3,1.1,1.4c0.7,0.1,1.3-0.4,1.4-1.1
				c0-0.1,0-0.1,0-0.2v-8.9C87.3,81.9,85.6,80,83.4,79.8z"/>
		</g>
		<g>
			<path class="st0" d="M60.1,92.2l-2.5-8.2c0,0-0.9-2.4-2.9-2.4h-6.4c-2,0-2.9,2.4-2.9,2.4l-2.5,8.2c0,0.2-0.1,0.3-0.1,0.5
				c-0.1-0.1-0.2-0.2-0.3-0.2c-0.5-0.2-1-0.1-1.3,0.4c0,0,0,0,0,0c-0.5,0.9-1,1.7-1.6,2.5c-0.2,0.2-0.5,0.4-0.8,0.4h-3.1
				c-0.3,0-0.6-0.2-0.7-0.4c-0.4-0.4-1.6-2.5-1.6-2.6c-0.3-0.4-0.8-0.5-1.3-0.3c-0.1,0.1-0.2,0.2-0.3,0.3v-8.7
				c0-2.2-1.7-4.1-3.9-4.3h-0.2h-7h-0.2c-2.2,0.2-3.9,2-3.9,4.3V93c0,0.4,0.2,0.8,0.6,1l-2.9,15.3c-0.1,0.3,0.1,0.6,0.4,0.7h0.1
				c0.3,0,0.5-0.2,0.6-0.5l2.9-15.4c0.4-0.2,0.7-0.6,0.7-1.1v-7.7c0-0.3,0.1-0.7,0.6-0.7c0.4,0,0.4,0.4,0.5,0.6v22.9
				c0,1,0.8,1.8,1.8,1.8c1,0,1.8-0.8,1.8-1.8c0,0,0,0,0,0V95c-0.1-0.3,0.1-0.5,0.4-0.6s0.5,0.1,0.6,0.4c0,0.1,0,0.1,0,0.2v13.2
				c0,1,0.8,1.8,1.8,1.8c1,0,1.8-0.8,1.8-1.8V85.3c0-0.2,0.1-0.6,0.5-0.6c0.5,0,0.6,0.4,0.6,0.7V93c0,0.7,0.5,1.2,1.2,1.3
				c0.5,0,0.9-0.3,1.2-0.7c0,0.1,0,0.1,0,0.1l2.6,4.6c0.1,0.2,0.1,0.4,0.2,0.6v0.7l0,0c0,0.3,0,0.5-0.1,0.8l-1.2,4.8h1.4v3.6l0,0
				c-0.1,0.7,0.4,1.3,1.1,1.4c0.7,0.1,1.3-0.4,1.4-1.1c0-0.1,0-0.1,0-0.2v-3.4c0,0,0-0.1,0-0.2h0.8c0,0,0,0.1,0,0.2v3.4
				c0,0.7,0.6,1.2,1.2,1.2s1.2-0.6,1.2-1.2v-3.6h1.3l-1.2-4.8c-0.1-0.2-0.1-0.4-0.1-0.6v-0.2l0,0v-0.7c0-0.2,0.1-0.4,0.2-0.6
				l2.4-4.3l0.2-0.4c0,0,0-0.1,0-0.1c0.1,0.3,0.4,0.5,0.8,0.6c1.3,0.4,1.7-1.1,1.7-1.1l2-6.9c0,0,0.1-0.5,0.5-0.4s0.2,0.7,0.2,0.7
				l-3.5,12.9h3.3v9.2c0.1,0.9,0.8,1.5,1.7,1.5c0.8-0.1,1.4-0.7,1.5-1.5v-9.2h0.9v9.2c0.1,0.9,0.8,1.5,1.7,1.5
				c0.8-0.1,1.4-0.7,1.5-1.5v-9.2h3.3l-3.5-12.9c0,0-0.2-0.6,0.2-0.7s0.5,0.4,0.5,0.4l2,6.9c0,0,0.4,1.5,1.7,1.1
				S60.1,92.2,60.1,92.2z"/>
		</g>
		<g>
			<path class="st0" d="M63.4,91.6c0,1.4,1.2,2.5,2.6,2.5c1.4,0,2.5-1.2,2.5-2.6c0-1.4-1.1-2.5-2.5-2.5C64.6,89,63.4,90.1,63.4,91.6
				C63.4,91.5,63.4,91.6,63.4,91.6z"/>
		</g>
		<g>
			<path class="st0" d="M71.1,99c-1.5-4-1.8-3.9-3.2-4H64c-1.4,0-1.7,0-3.2,4c-0.2,0.6-1.1,2.8-1.2,2.9s-0.4,0.9,0.5,1.2
				s1.1-0.6,1.1-0.6l1.6-3.9c0,0,0-0.1,0.1-0.1s0.1,0.1,0.1,0.1v10.1l0,0c0,0.7,0.5,1.3,1.3,1.4c0,0,0,0,0.1,0
				c0.7,0,1.3-0.6,1.3-1.3c0,0,0,0,0-0.1v-4c0,0,0-0.6,0.4-0.6s0.4,0.6,0.4,0.6v4c0,0.7,0.5,1.3,1.3,1.4c0,0,0,0,0,0
				c0.7,0,1.3-0.5,1.3-1.2c0,0,0-0.1,0-0.1l0,0V98.7c0-0.1,0-0.1,0-0.1l0.1,0.1l1.4,3.5c0,0,0.4,0.9,1.2,0.6s0.4-1.2,0.4-1.2
				S71.3,99.6,71.1,99z"/>
		</g>
		<g>
			<path class="st0" d="M37.3,89c-1.4,0-2.5,1.1-2.5,2.5c0,1.4,1.1,2.5,2.5,2.5c1.4,0,2.5-1.1,2.5-2.5l0,0
				C39.8,90.1,38.7,89,37.3,89z"/>
		</g>
	</g>
</g>
</svg>
