<?xml version="1.0" encoding="utf-8"?>
<!-- Generator: Adobe Illustrator 22.0.1, SVG Export Plug-In . SVG Version: 6.00 Build 0)  -->
<svg version="1.1" id="Layer_1" xmlns="http://www.w3.org/2000/svg" xmlns:xlink="http://www.w3.org/1999/xlink" x="0px" y="0px"
	 viewBox="0 0 101.5 148.1" style="enable-background:new 0 0 101.5 148.1;" xml:space="preserve">
<style type="text/css">
	.st0{fill:#FFFFFF;}
	.st1{fill:#4C9F38;}
	.st2{enable-background:new    ;}
	.st3{opacity:0.3;enable-background:new    ;}
	.st4{fill:#1A1818;}
</style>
<title>TARGET 1 A</title>
<g id="WHITE_BG">
	<g>
		<rect y="0" class="st0" width="101.5" height="148.1"/>
	</g>
</g>
<g id="TARGETS">
	<g>
		<g>
			<path class="st1" d="M7.8,132.2h-1v-6.4H9c1.6,0,2.2,0.7,2.2,1.9c0.1,0.7-0.3,1.4-1,1.7l1.3,2.8h-1.2l-1.1-2.6H7.8V132.2z
				 M7.8,128.7h1.3c0.9,0,1-0.5,1-1s-0.1-1-1-1H7.8V128.7z"/>
		</g>
		<g>
			<path class="st1" d="M15.6,129.3h-2.7v2h2.9v0.9H12v-6.4h3.9v0.9h-3v1.8h2.6L15.6,129.3z"/>
		</g>
		<g>
			<path class="st1" d="M16.7,132.2v-6.4h1.9c2.1,0,2.7,1.4,2.7,3.2s-0.6,3.2-2.7,3.2L16.7,132.2z M17.6,131.3h1
				c1.3,0,1.7-0.9,1.7-2.3s-0.4-2.3-1.7-2.3h-1V131.3z"/>
		</g>
		<g>
			<path class="st1" d="M21.9,130.2v-4.4h1v4.3c-0.1,0.7,0.4,1.2,1,1.3c0.1,0,0.2,0,0.3,0c0.7,0.1,1.3-0.4,1.4-1c0-0.1,0-0.2,0-0.3
				v-4.3h1v4.4c0,1.1-0.9,2.1-2,2.1c-0.1,0-0.2,0-0.3,0c-1.1,0.2-2.2-0.6-2.3-1.7C21.9,130.5,21.9,130.3,21.9,130.2z"/>
		</g>
		<g>
			<path class="st1" d="M29.9,125.7c0.5,0,1,0.1,1.5,0.3v0.9c-0.5-0.2-0.9-0.3-1.4-0.3c-1.2,0-1.7,0.8-1.7,2.4s0.5,2.4,1.7,2.4
				c0.5,0,1-0.1,1.4-0.3v0.9c-0.5,0.2-1,0.3-1.5,0.3c-1.9,0-2.6-1.2-2.6-3.3S28,125.7,29.9,125.7z"/>
		</g>
		<g>
			<path class="st1" d="M35.9,129.3h-2.7v2h2.9v0.9h-3.9v-6.4h3.9v0.9h-2.9v1.8h2.7V129.3z"/>
		</g>
		<g>
			<path class="st1" d="M39.3,132.2h-1v-6.4h2.1c1.6,0,2.2,0.7,2.2,1.9c0.1,0.7-0.3,1.4-1,1.7l1.3,2.8h-1.1l-1.2-2.6h-1.3V132.2z
				 M39.3,128.7h1.3c0.9,0,1-0.5,1-1s-0.1-1-1-1h-1.3V128.7z"/>
		</g>
		<g>
			<path class="st1" d="M43.3,129c0-1.8,0.4-3.3,2.5-3.3s2.5,1.5,2.5,3.3s-0.4,3.3-2.5,3.3S43.3,130.8,43.3,129z M44.3,129
				c0,1.5,0.3,2.4,1.5,2.4s1.5-0.9,1.5-2.4s-0.3-2.4-1.5-2.4S44.2,127.5,44.3,129L44.3,129z"/>
		</g>
		<g>
			<path class="st1" d="M52,130.7h-2l-0.5,1.6h-1l2-6.4h1l2,6.4h-1L52,130.7z M51,127l-0.8,2.8h1.6L51,127z"/>
		</g>
		<g>
			<path class="st1" d="M54,132.2v-6.4h1.9c2.1,0,2.7,1.4,2.7,3.2s-0.6,3.2-2.7,3.2L54,132.2z M55,131.3h1c1.3,0,1.7-0.9,1.7-2.3
				s-0.4-2.3-1.7-2.3h-1V131.3z"/>
		</g>
		<g>
			<path class="st1" d="M60.9,132.2v-6.4h1v6.4H60.9z"/>
		</g>
		<g>
			<path class="st1" d="M66.7,132.2l-2.8-4.5v4.5H63v-6.4h0.9l2.8,4.5v-4.5h0.9v6.4H66.7z"/>
		</g>
		<g>
			<path class="st1" d="M68,131.3c0.2,0.1,0.4,0.1,0.7,0.1c0.5,0,0.8-0.2,0.8-0.7v-4.9h1v5.1c0,0.9-0.5,1.4-1.7,1.4
				c-0.2,0-0.5,0-0.7-0.1L68,131.3z"/>
		</g>
		<g>
			<path class="st1" d="M71.3,130.2v-4.4h0.9v4.3c0,0.8,0.6,1.4,1.4,1.4s1.4-0.6,1.4-1.4v-4.3h0.9v4.4c-0.1,1.3-1.2,2.2-2.5,2.1
				C72.2,132.2,71.4,131.3,71.3,130.2z"/>
		</g>
		<g>
			<path class="st1" d="M77.6,132.2h-1v-6.4h2.1c1.7,0,2.2,0.7,2.2,1.9c0.1,0.7-0.3,1.4-1,1.7l1.3,2.8h-1.1l-1.1-2.6h-1.4V132.2z
				 M77.6,128.7h1.3c0.9,0,1-0.5,1-1s-0.1-1-1-1h-1.3V128.7z"/>
		</g>
		<g>
			<path class="st1" d="M81.9,132.2v-6.4h0.9v6.4H81.9z"/>
		</g>
		<g>
			<path class="st1" d="M87.5,129.3h-2.7v2h2.9v0.9h-3.9v-6.4h3.9v0.9h-2.9v1.8h2.7V129.3z"/>
		</g>
		<g>
			<path class="st1" d="M92.7,130.3c0,1.2-0.7,2-2.4,2c-0.6,0-1.3-0.1-1.9-0.4V131c0.6,0.3,1.2,0.4,1.8,0.4c1.2,0,1.5-0.5,1.5-1.1
				s-0.3-0.9-1.2-1c-1.6-0.2-2.2-0.6-2.2-1.8c0-0.9,0.5-1.8,2.3-1.8c0.6,0,1.2,0.1,1.7,0.3v1c-0.5-0.2-1.1-0.3-1.7-0.3
				c-1,0-1.3,0.4-1.3,1c0,0.7,0.4,0.8,1.2,0.9C91.9,128.7,92.7,129,92.7,130.3z"/>
		</g>
		<g>
			<path class="st1" d="M10.1,139.7h-2l-0.4,1.6h-1l2-6.4h1l2,6.4h-1L10.1,139.7z M9.1,136l-0.8,2.8h1.6L9.1,136z"/>
		</g>
		<g>
			<path class="st1" d="M15.7,141.2l-2.7-4.5v4.5h-1v-6.4h0.9l2.8,4.5v-4.5h1v6.4L15.7,141.2z"/>
		</g>
		<g>
			<path class="st1" d="M17.5,141.2v-6.4h1.9c2.1,0,2.7,1.4,2.7,3.2s-0.6,3.2-2.7,3.2H17.5z M18.5,140.3h1c1.3,0,1.7-0.9,1.7-2.3
				s-0.4-2.3-1.7-2.3h-1V140.3z"/>
		</g>
		<g>
			<path class="st1" d="M24.3,141.2v-6.4h1.9c2.1,0,2.7,1.4,2.7,3.2s-0.6,3.2-2.7,3.2H24.3z M25.3,140.3h1c1.3,0,1.7-0.9,1.7-2.3
				s-0.4-2.3-1.7-2.3h-1V140.3z"/>
		</g>
		<g>
			<path class="st1" d="M33.3,138.3h-2.6v2h2.9v0.9h-3.9v-6.4h3.9v0.9h-2.9v1.8h2.7L33.3,138.3z"/>
		</g>
		<g>
			<path class="st1" d="M37.5,139.7h-2l-0.5,1.6h-1l2-6.4h1l2,6.4h-1L37.5,139.7z M36.5,136l-0.8,2.8h1.6L36.5,136z"/>
		</g>
		<g>
			<path class="st1" d="M41.1,135.7v5.5h-1v-5.5h-1.6v-0.9h4.3v0.9H41.1z"/>
		</g>
		<g>
			<path class="st1" d="M47,141.2v-2.9h-2.6v2.9h-1v-6.4h1v2.6H47v-2.6h1v6.4H47z"/>
		</g>
		<g>
			<path class="st1" d="M53,139.3c0,1.2-0.7,2-2.4,2c-0.6,0-1.3-0.1-1.9-0.4V140c0.6,0.3,1.2,0.4,1.8,0.4c1.2,0,1.5-0.5,1.5-1.1
				s-0.3-0.9-1.2-1c-1.6-0.2-2.2-0.6-2.2-1.8c0-0.9,0.5-1.8,2.3-1.8c0.6,0,1.2,0.1,1.7,0.3v1c-0.5-0.2-1.1-0.3-1.7-0.3
				c-1,0-1.3,0.4-1.3,1c0,0.7,0.4,0.8,1.2,0.9C52.3,137.7,53,138,53,139.3z"/>
		</g>
	</g>
	<g>
		<rect x="3.3" y="24" class="st1" width="94.8" height="94.8"/>
	</g>
	<g>
		<path class="st1" d="M98.2,20.7H3.3V3.3h94.8V20.7z M4.3,19.7h92.8V4.3H4.3L4.3,19.7z"/>
	</g>
	<g class="st2">
		<path class="st1" d="M6.7,6.9h4.5v1.4H9.9v8.8H8.1V8.3H6.7V6.9z"/>
	</g>
	<g class="st2">
		<path class="st1" d="M11.2,17.1l1.9-10.2h1.9L17,17.1h-1.8l-0.3-1.9h-1.8l-0.3,1.9H11.2z M13.3,13.9h1.4L14,9.8h0L13.3,13.9z"/>
	</g>
	<g class="st2">
		<path class="st1" d="M19.6,12.5v4.7h-1.7V6.9h2.5c1.7,0,2.4,0.9,2.4,2.3v1.3c0,1.1-0.4,1.7-1.4,2l1.6,4.6h-1.8L19.6,12.5z
			 M19.6,8.3v3.2h0.6c0.6,0,0.8-0.3,0.8-0.8V9.2c0-0.6-0.3-0.8-0.8-0.8H19.6z"/>
	</g>
	<g class="st2">
		<path class="st1" d="M26.4,11.7h2.4v5.4h-1.2V16c-0.2,0.8-0.7,1.2-1.6,1.2c-1.5,0-2.1-1.2-2.1-2.7V9.6c0-1.6,0.8-2.7,2.6-2.7
			c1.9,0,2.4,1.1,2.4,2.6v0.9h-1.6v-1c0-0.6-0.2-1-0.9-1c-0.6,0-0.9,0.4-0.9,1v5.5c0,0.6,0.3,1,0.8,1c0.6,0,0.8-0.3,0.8-1V13h-0.8
			V11.7z"/>
	</g>
	<g class="st2">
		<path class="st1" d="M30.2,6.9h4.1v1.4h-2.4v2.9h1.7v1.4h-1.7v3.1h2.4v1.4h-4.1V6.9z"/>
	</g>
	<g class="st2">
		<path class="st1" d="M35.1,6.9h4.5v1.4h-1.4v8.8h-1.7V8.3h-1.4V6.9z"/>
	</g>
	<g class="st2">
		<path class="st1" d="M83.5,9.2V10c0,0.9-0.5,1.4-1.2,1.7c0.9,0.2,1.3,0.8,1.3,1.7v1.5c0,1.4-0.8,2.3-2.5,2.3c-1.7,0-2.4-1-2.4-2.5
			v-1.3h1.6v1.5c0,0.6,0.2,1,0.8,1c0.5,0,0.8-0.4,0.8-0.9v-1.7c0-0.5-0.2-0.8-0.8-0.8h-0.7v-1.3h0.6c0.6,0,0.9-0.3,0.9-0.8V9.2
			c0-0.6-0.2-0.9-0.7-0.9s-0.7,0.4-0.7,1v1h-1.6V9.4c0-1.5,0.6-2.6,2.4-2.6C82.8,6.8,83.5,7.7,83.5,9.2z"/>
	</g>
	<g class="st2">
	</g>
	<g class="st2">
		<path class="st1" d="M86.4,10.8c0.7,0,1.2,0.6,1.2,1.2c0,0.7-0.6,1.2-1.2,1.2c-0.7,0-1.2-0.6-1.2-1.2
			C85.2,11.4,85.7,10.8,86.4,10.8z"/>
	</g>
	<g class="st2">
		<path class="st1" d="M89.3,14.5v-5c0-1.6,0.7-2.7,2.5-2.7c1.9,0,2.4,1.1,2.4,2.6v0.5h-1.6V9.2c0-0.6-0.2-1-0.8-1
			c-0.6,0-0.8,0.4-0.8,1v2.2h0c0.3-0.5,0.7-0.8,1.4-0.8c1.2,0,1.9,0.8,1.9,2.5v1.5c0,1.6-0.7,2.6-2.5,2.6
			C90,17.2,89.3,16.1,89.3,14.5z M92.7,14.8v-1.8c0-0.7-0.2-1-0.8-1c-0.5,0-0.8,0.4-0.8,0.9v1.9c0,0.6,0.2,1,0.8,1
			C92.4,15.8,92.7,15.5,92.7,14.8z"/>
	</g>
	<g>
		<path class="st1" d="M98.2,144.8H3.3v-22.6h94.8V144.8z M4.3,143.8h92.8v-20.6H4.3L4.3,143.8z"/>
	</g>
	<g>
		<g class="st3">
			<path class="st4" d="M70.1,54.9c0,5.5-4.5,10-10,10s-10-4.5-10-10s4.5-10,10-10S70.1,49.4,70.1,54.9z"/>
		</g>
		<g class="st3">
			<path class="st4" d="M56.7,56.8c0,3.3-2.6,5.9-5.9,5.9s-5.9-2.6-5.9-5.9c0-3.3,2.6-5.9,5.9-5.9S56.7,53.5,56.7,56.8L56.7,56.8z"
				/>
		</g>
		<g class="st3">
			<path class="st4" d="M53,49.8c0,3.3-2.6,5.9-5.8,5.9c-3.3,0-5.9-2.6-5.9-5.8c0-3.3,2.6-5.9,5.8-5.9c0,0,0.1,0,0.1,0
				C50.4,44,53,46.6,53,49.8z"/>
		</g>
		<g class="st3">
			<path class="st4" d="M74.3,63.1c0,3-2.4,5.4-5.4,5.4c-3,0-5.4-2.4-5.4-5.4s2.4-5.4,5.4-5.4c0,0,0,0,0,0
				C71.9,57.6,74.3,60.1,74.3,63.1C74.3,63.1,74.3,63.1,74.3,63.1z"/>
		</g>
	</g>
	<g>
		<g>
			<g>
				<path d="M61,81.3c2.9,1.5,6.5,0.3,8-2.7c1.5-2.9,0.3-6.5-2.7-8c-2.9-1.5-6.5-0.3-8,2.6C56.9,76.3,58.1,79.9,61,81.3
					C61,81.3,61,81.3,61,81.3z M65.1,73.2c1.5,0.8,2.2,2.7,1.4,4.2c-0.8,1.5-2.7,2.2-4.2,1.4c-1.5-0.8-2.2-2.7-1.4-4.2
					C61.6,73.1,63.5,72.4,65.1,73.2C65.1,73.2,65.1,73.2,65.1,73.2L65.1,73.2z"/>
			</g>
			<g>
				<path d="M34.4,68c2.9,1.5,6.5,0.3,8-2.7c1.5-2.9,0.3-6.5-2.7-8c-2.9-1.5-6.5-0.3-8,2.6C30.3,62.9,31.4,66.5,34.4,68
					C34.4,68,34.4,68,34.4,68z M38.5,59.9c1.5,0.8,2.2,2.7,1.4,4.2c-0.8,1.5-2.7,2.2-4.2,1.4c-1.5-0.8-2.2-2.7-1.4-4.2
					C35,59.7,36.9,59.1,38.5,59.9C38.5,59.8,38.5,59.8,38.5,59.9L38.5,59.9z"/>
			</g>
			<g>
				<path d="M24.2,66.1c0.6,0.5,1.2,1.1,1.7,1.8c0,0,0.2,0.3,0.4,0.8c1.2,2.7,2.5,5.2,3.9,7.7c1.9,3,4.7,5.3,7.9,6.8
					c3.1,1.7,6.6,2.7,10.1,2.9c2.8,0.1,6.9-1.9,7.2-1.9s0.3,0,1,0.2s8.9,3.2,12.9,2.4c0.9-0.3,1.6-0.7,2.3-1.3
					c0.4-0.4,0.7-0.9,0.9-1.3c0.4-0.7,1.6-3.2,1.6-3.2s0.4-0.9-0.1-1.2l-3.6-1.8l0,0L70.2,78l0,0l-0.5,1.1l0,0
					c-2,3.2-6.1,4.2-9.3,2.2c-2.8-1.7-3.9-5.2-2.7-8.3l0,0l0.5-1v-0.1L58,71.6l-0.1-0.1l-13.9-7l-0.1-0.1c-0.1-0.1-0.3,0-0.3,0.1
					l0,0l-0.1,0.1L43,65.6v0.1c-2,3.2-6.1,4.1-9.3,2.1c-2.8-1.7-3.9-5.2-2.7-8.2c0-0.1,0.1-0.2,0.1-0.3l0.3-0.6l0.1-0.2
					c0.1-0.1,0-0.3-0.1-0.3l-0.1-0.1l-2.2-1.1c-0.7-0.3-2-0.5-2.9,1.3l-2.5,5C23.1,64.3,23.3,65.5,24.2,66.1z M53.5,81.9
					c0.4,0.2-0.2,0.4-0.2,0.4c-0.8,0.4-5.6,2.8-12.5-0.4l2.6-5.1L53.5,81.9z M32,71.1l9.8,4.9l-2.6,5.1c-3.7-2-6.5-5.5-7.5-9.6
					C31.5,70.9,32,71.1,32,71.1z"/>
			</g>
		</g>
		<g>
			<polygon points="72.1,75.7 77.1,70.9 78.5,73.4 			"/>
		</g>
		<g>
			<circle cx="72.9" cy="71.5" r="0.5"/>
		</g>
		<g>
			<circle cx="74.9" cy="66.9" r="0.5"/>
		</g>
		<g>
			<circle cx="78.2" cy="67" r="0.5"/>
		</g>
		<g>
			<circle cx="82.3" cy="62" r="0.5"/>
		</g>
		<g>
			<circle cx="73.4" cy="58.2" r="0.5"/>
		</g>
		<g>
			<circle cx="78" cy="62.3" r="0.5"/>
		</g>
		<g>
			<circle cx="45.3" cy="51.2" r="0.5"/>
		</g>
		<g>
			<circle cx="68.3" cy="56.6" r="0.5"/>
		</g>
		<g>
			<circle cx="72.8" cy="53.9" r="0.5"/>
		</g>
		<g>
			<circle cx="49.5" cy="58" r="0.5"/>
		</g>
		<g>
			<circle cx="70" cy="62.4" r="0.5"/>
		</g>
		<g>
			<path d="M26.9,87h47.4c0.3,0,0.5,0.2,0.5,0.5v2.9c0,0.3-0.2,0.5-0.5,0.5H26.9c-0.3,0-0.5-0.2-0.5-0.5v-2.9
				C26.4,87.2,26.6,87,26.9,87z"/>
		</g>
	</g>
	<g>
		<path class="st0" d="M76.8,43.1C61.3,28.6,37,29.4,22.5,44.9S8.8,84.7,24.3,99.3s39.8,13.7,54.4-1.8C85.3,90.3,89,81,89,71.2
			C89,60.6,84.6,50.4,76.8,43.1z M24,93.9C11.6,79.1,13.7,57,28.5,44.6c12.9-10.7,31.6-10.8,44.6-0.2L24,93.9z M50.6,106.2
			c-9,0-17.7-3.5-24.2-9.7l49.2-49.6c13.4,13.9,13.1,36.1-0.8,49.5C68.3,102.6,59.6,106.2,50.6,106.2L50.6,106.2z"/>
	</g>
</g>
</svg>
